# Blender 4.5.1 LTS
# www.blender.org
mtllib ladder.mtl
o Cube.002
v -0.062218 0.292295 0.498910
v -0.062218 0.416731 0.498910
v -0.062218 0.292295 -0.487093
v -0.062218 0.416731 -0.487093
v 0.062218 0.292295 0.498910
v 0.062218 0.416731 0.498910
v 0.062218 0.292295 -0.487093
v 0.062218 0.416731 -0.487093
v -0.062218 0.914477 0.498910
v -0.062218 1.038914 0.498910
v -0.062218 0.914477 -0.487093
v -0.062218 1.038914 -0.487093
v 0.062218 0.914477 0.498910
v 0.062218 1.038914 0.498910
v 0.062218 0.914477 -0.487093
v 0.062218 1.038914 -0.487093
v -0.062218 1.536660 0.498910
v -0.062218 1.661096 0.498910
v -0.062218 1.536660 -0.487093
v -0.062218 1.661096 -0.487093
v 0.062218 1.536660 0.498910
v 0.062218 1.661096 0.498910
v 0.062218 1.536660 -0.487093
v 0.062218 1.661096 -0.487093
v -0.062218 2.158842 0.498910
v -0.062218 2.283279 0.498910
v -0.062218 2.158842 -0.487093
v -0.062218 2.283279 -0.487093
v 0.062218 2.158842 0.498910
v 0.062218 2.283279 0.498910
v 0.062218 2.158842 -0.487093
v 0.062218 2.283279 -0.487093
v -0.062218 2.781025 0.498910
v -0.062218 2.905461 0.498910
v -0.062218 2.781025 -0.487093
v -0.062218 2.905461 -0.487093
v 0.062218 2.781025 0.498910
v 0.062218 2.905461 0.498910
v 0.062218 2.781025 -0.487093
v 0.062218 2.905461 -0.487093
v -0.062218 3.403207 0.498910
v -0.062218 3.527644 0.498910
v -0.062218 3.403207 -0.487093
v -0.062218 3.527644 -0.487093
v 0.062218 3.403207 0.498910
v 0.062218 3.527644 0.498910
v 0.062218 3.403207 -0.487093
v 0.062218 3.527644 -0.487093
v -0.062218 4.025390 0.498910
v -0.062218 4.149826 0.498910
v -0.062218 4.025390 -0.487093
v -0.062218 4.149826 -0.487093
v 0.062218 4.025390 0.498910
v 0.062218 4.149826 0.498910
v 0.062218 4.025390 -0.487093
v 0.062218 4.149826 -0.487093
v -0.000000 -0.097868 -0.568056
v -0.000000 0.000000 -0.470188
v -0.097868 0.000000 -0.568056
v -0.000000 -0.069203 -0.498853
v -0.056504 -0.056504 -0.511552
v -0.069203 0.000000 -0.498853
v -0.069203 -0.069203 -0.568056
v -0.000000 4.447645 -0.470188
v -0.000000 4.545513 -0.568056
v -0.097868 4.447645 -0.568056
v -0.000000 4.516847 -0.498853
v -0.056504 4.504149 -0.511552
v -0.069203 4.516847 -0.568056
v -0.069203 4.447644 -0.498853
v -0.000000 -0.097868 -0.568056
v -0.097868 0.000000 -0.568056
v -0.000000 0.000000 -0.665924
v -0.069203 -0.069203 -0.568056
v -0.056504 -0.056504 -0.624560
v -0.069203 0.000000 -0.637259
v -0.000000 -0.069203 -0.637259
v -0.000000 4.545513 -0.568056
v -0.000000 4.447645 -0.665924
v -0.097868 4.447645 -0.568056
v -0.000000 4.516847 -0.637259
v -0.056504 4.504149 -0.624560
v -0.069203 4.447644 -0.637259
v -0.069203 4.516847 -0.568056
v 0.000000 -0.097868 -0.568056
v 0.097868 0.000000 -0.568056
v 0.000000 0.000000 -0.470188
v 0.069203 -0.069203 -0.568056
v 0.056504 -0.056504 -0.511552
v 0.069203 0.000000 -0.498853
v 0.000000 -0.069203 -0.498853
v 0.000000 4.545513 -0.568056
v 0.000000 4.447645 -0.470188
v 0.097868 4.447645 -0.568056
v 0.000000 4.516847 -0.498853
v 0.056504 4.504149 -0.511552
v 0.069203 4.447644 -0.498853
v 0.069203 4.516847 -0.568056
v 0.000000 -0.097868 -0.568056
v 0.000000 0.000000 -0.665924
v 0.097868 0.000000 -0.568056
v 0.000000 -0.069203 -0.637259
v 0.056504 -0.056504 -0.624560
v 0.069203 0.000000 -0.637259
v 0.069203 -0.069203 -0.568056
v 0.000000 4.545513 -0.568056
v 0.097868 4.447645 -0.568056
v 0.000000 4.447645 -0.665924
v 0.069203 4.516847 -0.568056
v 0.056504 4.504149 -0.624560
v 0.069203 4.447644 -0.637259
v 0.000000 4.516847 -0.637259
v -0.000000 -0.097868 0.568056
v -0.097868 0.000000 0.568056
v -0.000000 0.000000 0.470188
v -0.069203 -0.069203 0.568056
v -0.056504 -0.056504 0.511552
v -0.069203 0.000000 0.498853
v -0.000000 -0.069203 0.498853
v -0.000000 4.447645 0.470188
v -0.097868 4.447645 0.568056
v -0.000000 4.545513 0.568056
v -0.069203 4.447644 0.498853
v -0.056504 4.504149 0.511552
v -0.069203 4.516847 0.568056
v -0.000000 4.516847 0.498853
v -0.000000 -0.097868 0.568056
v -0.000000 0.000000 0.665924
v -0.097868 0.000000 0.568056
v -0.000000 -0.069203 0.637259
v -0.056504 -0.056504 0.624560
v -0.069203 0.000000 0.637259
v -0.069203 -0.069203 0.568056
v -0.000000 4.545513 0.568056
v -0.097868 4.447645 0.568056
v -0.000000 4.447645 0.665924
v -0.069203 4.516847 0.568056
v -0.056504 4.504149 0.624560
v -0.069203 4.447644 0.637259
v -0.000000 4.516847 0.637259
v 0.000000 -0.097868 0.568056
v 0.000000 0.000000 0.470188
v 0.097868 0.000000 0.568056
v 0.000000 -0.069203 0.498853
v 0.056504 -0.056504 0.511552
v 0.069203 0.000000 0.498853
v 0.069203 -0.069203 0.568056
v 0.000000 4.545513 0.568056
v 0.097868 4.447645 0.568056
v 0.000000 4.447645 0.470188
v 0.069203 4.516847 0.568056
v 0.056504 4.504149 0.511552
v 0.069203 4.447644 0.498853
v 0.000000 4.516847 0.498853
v 0.000000 -0.097868 0.568056
v 0.097868 0.000000 0.568056
v 0.000000 0.000000 0.665924
v 0.069203 -0.069203 0.568056
v 0.056504 -0.056504 0.624560
v 0.069203 0.000000 0.637259
v 0.000000 -0.069203 0.637259
v 0.000000 4.545513 0.568056
v 0.000000 4.447645 0.665924
v 0.097868 4.447645 0.568056
v 0.000000 4.516847 0.637259
v 0.056504 4.504149 0.624560
v 0.069203 4.447644 0.637259
v 0.069203 4.516847 0.568056
vn -0.7043 -0.7043 0.0889
vn -0.7043 0.7043 0.0889
vn -0.7043 -0.7043 -0.0889
vn -0.7043 0.7043 -0.0889
vn 0.7043 -0.7043 0.0889
vn 0.7043 0.7043 0.0889
vn 0.7043 -0.7043 -0.0889
vn 0.7043 0.7043 -0.0889
vn -0.0609 0.9879 0.1425
vn -0.1879 -0.1879 0.9641
vn -0.2696 0.9572 0.1057
vn -0.1904 -0.8220 0.5367
vn -0.6274 -0.6274 0.4612
vn -0.8220 -0.1904 0.5367
vn -0.1993 0.9741 0.1068
vn -0.1879 0.1879 0.9641
vn -0.0354 0.9959 0.0828
vn -0.2480 0.9639 0.0973
vn -0.1904 0.8220 0.5367
vn -0.6274 0.6274 0.4612
vn -0.1433 0.9867 0.0768
vn -0.8220 0.1904 0.5367
vn -0.0609 0.9879 -0.1425
vn -0.2696 0.9572 -0.1057
vn -0.1879 -0.1879 -0.9641
vn -0.1993 0.9741 -0.1068
vn -0.6274 -0.6274 -0.4612
vn -0.8220 -0.1904 -0.5367
vn -0.1904 -0.8220 -0.5367
vn -0.0354 0.9959 -0.0828
vn -0.1879 0.1879 -0.9641
vn -0.2480 0.9639 -0.0973
vn -0.1904 0.8220 -0.5367
vn -0.6274 0.6274 -0.4612
vn -0.8220 0.1904 -0.5367
vn -0.1433 0.9867 -0.0768
vn 0.0609 0.9879 0.1425
vn 0.2696 0.9572 0.1057
vn 0.1879 -0.1879 0.9641
vn 0.1993 0.9741 0.1068
vn 0.6274 -0.6274 0.4612
vn 0.8220 -0.1904 0.5367
vn 0.1904 -0.8220 0.5367
vn 0.0354 0.9959 0.0828
vn 0.1879 0.1879 0.9641
vn 0.2480 0.9639 0.0973
vn 0.1904 0.8220 0.5367
vn 0.6274 0.6274 0.4612
vn 0.8220 0.1904 0.5367
vn 0.1433 0.9867 0.0768
vn 0.0609 0.9879 -0.1425
vn 0.1879 -0.1879 -0.9641
vn 0.2696 0.9572 -0.1057
vn 0.1904 -0.8220 -0.5367
vn 0.6274 -0.6274 -0.4612
vn 0.8220 -0.1904 -0.5367
vn 0.1993 0.9741 -0.1068
vn 0.0354 0.9959 -0.0828
vn 0.2480 0.9639 -0.0973
vn 0.1879 0.1879 -0.9641
vn 0.1433 0.9867 -0.0768
vn 0.6274 0.6274 -0.4612
vn 0.8220 0.1904 -0.5367
vn 0.1904 0.8220 -0.5367
vt 0.228676 0.030455
vt 0.202084 0.030455
vt 0.202084 0.003864
vt 0.228676 0.003864
vt 0.228676 0.064774
vt 0.202084 0.064774
vt 0.202084 0.038182
vt 0.228676 0.038182
vt 0.228676 0.099092
vt 0.202084 0.099092
vt 0.202084 0.072501
vt 0.228676 0.072501
vt 0.228676 0.133411
vt 0.202084 0.133411
vt 0.202084 0.106819
vt 0.228676 0.106819
vt 0.228676 0.141138
vt 0.228676 0.167730
vt 0.202084 0.167730
vt 0.202084 0.141138
vt 0.228676 0.175457
vt 0.228676 0.202048
vt 0.202084 0.202048
vt 0.202084 0.175457
vt 0.228676 0.648191
vt 0.202084 0.648191
vt 0.202084 0.621599
vt 0.228676 0.621599
vt 0.228676 0.682509
vt 0.202084 0.682509
vt 0.202084 0.655918
vt 0.228676 0.655918
vt 0.228676 0.716828
vt 0.202084 0.716828
vt 0.202084 0.690236
vt 0.228676 0.690236
vt 0.228676 0.751146
vt 0.202084 0.751146
vt 0.202084 0.724555
vt 0.228676 0.724555
vt 0.228676 0.209775
vt 0.228676 0.236367
vt 0.202084 0.236367
vt 0.202084 0.209775
vt 0.228676 0.244094
vt 0.228676 0.270686
vt 0.202084 0.270686
vt 0.202084 0.244094
vt 0.262994 0.202048
vt 0.236403 0.202048
vt 0.236403 0.175457
vt 0.262994 0.175457
vt 0.262994 0.236367
vt 0.236403 0.236367
vt 0.236403 0.209775
vt 0.262994 0.209775
vt 0.262994 0.270686
vt 0.236403 0.270686
vt 0.236403 0.244094
vt 0.262994 0.244094
vt 0.262994 0.305004
vt 0.236403 0.305004
vt 0.236403 0.278413
vt 0.262994 0.278413
vt 0.228676 0.278413
vt 0.228676 0.305004
vt 0.202084 0.305004
vt 0.202084 0.278413
vt 0.228676 0.312731
vt 0.228676 0.339323
vt 0.202084 0.339323
vt 0.202084 0.312731
vt 0.228676 0.785465
vt 0.202084 0.785465
vt 0.202084 0.758873
vt 0.228676 0.758873
vt 0.228676 0.819784
vt 0.202084 0.819784
vt 0.202084 0.793192
vt 0.228676 0.793192
vt 0.228676 0.854102
vt 0.202084 0.854102
vt 0.202084 0.827511
vt 0.228676 0.827511
vt 0.228676 0.888421
vt 0.202084 0.888421
vt 0.202084 0.861829
vt 0.228676 0.861829
vt 0.228676 0.347050
vt 0.228676 0.373642
vt 0.202084 0.373642
vt 0.202084 0.347050
vt 0.228676 0.381369
vt 0.228676 0.407960
vt 0.202084 0.407960
vt 0.202084 0.381369
vt 0.228676 0.922739
vt 0.202084 0.922739
vt 0.202084 0.896148
vt 0.228676 0.896148
vt 0.228676 0.957058
vt 0.202084 0.957058
vt 0.202084 0.930466
vt 0.228676 0.930466
vt 0.228676 0.991377
vt 0.202084 0.991377
vt 0.202084 0.964785
vt 0.228676 0.964785
vt 0.262994 0.030455
vt 0.236403 0.030455
vt 0.236403 0.003864
vt 0.262994 0.003864
vt 0.228676 0.415687
vt 0.228676 0.442279
vt 0.202084 0.442279
vt 0.202084 0.415687
vt 0.228676 0.450006
vt 0.228676 0.476597
vt 0.202084 0.476597
vt 0.202084 0.450006
vt 0.262994 0.339323
vt 0.236403 0.339323
vt 0.236403 0.312731
vt 0.262994 0.312731
vt 0.262994 0.373642
vt 0.236403 0.373642
vt 0.236403 0.347050
vt 0.262994 0.347050
vt 0.262994 0.407960
vt 0.236403 0.407960
vt 0.236403 0.381369
vt 0.262994 0.381369
vt 0.262994 0.442279
vt 0.236403 0.442279
vt 0.236403 0.415687
vt 0.262994 0.415687
vt 0.228676 0.484325
vt 0.228676 0.510916
vt 0.202084 0.510916
vt 0.202084 0.484325
vt 0.228676 0.518643
vt 0.228676 0.545235
vt 0.202084 0.545235
vt 0.202084 0.518643
vt 0.262994 0.064774
vt 0.236403 0.064774
vt 0.236403 0.038182
vt 0.262994 0.038182
vt 0.262994 0.099092
vt 0.236403 0.099092
vt 0.236403 0.072501
vt 0.262994 0.072501
vt 0.262994 0.133411
vt 0.236403 0.133411
vt 0.236403 0.106819
vt 0.262994 0.106819
vt 0.262994 0.167730
vt 0.236403 0.167730
vt 0.236403 0.141138
vt 0.262994 0.141138
vt 0.228676 0.552962
vt 0.228676 0.579553
vt 0.202084 0.579553
vt 0.202084 0.552962
vt 0.228676 0.587280
vt 0.228676 0.613872
vt 0.202084 0.613872
vt 0.202084 0.587280
vt 0.024778 0.996137
vt 0.024778 0.990011
vt 0.036852 0.987297
vt 0.039566 0.990011
vt 0.024778 0.975222
vt 0.039566 0.975222
vt 0.045692 0.975222
vt 0.024778 0.024778
vt 0.024778 0.009989
vt 0.036852 0.012703
vt 0.039566 0.024778
vt 0.024778 0.003864
vt 0.039566 0.009989
vt 0.045692 0.024778
vt 0.074333 0.996137
vt 0.059544 0.990011
vt 0.062258 0.987297
vt 0.074333 0.990011
vt 0.053419 0.975222
vt 0.059544 0.975222
vt 0.074333 0.975222
vt 0.074333 0.003864
vt 0.074333 0.009989
vt 0.062258 0.012703
vt 0.059544 0.009989
vt 0.074333 0.024778
vt 0.059544 0.024778
vt 0.053419 0.024778
vt 0.024778 0.996137
vt 0.009989 0.990011
vt 0.012703 0.987297
vt 0.024778 0.990011
vt 0.003864 0.975222
vt 0.009989 0.975222
vt 0.024778 0.975222
vt 0.024778 0.003864
vt 0.024778 0.009989
vt 0.012703 0.012703
vt 0.009989 0.009989
vt 0.024778 0.024778
vt 0.009989 0.024778
vt 0.003864 0.024778
vt 0.086407 0.987297
vt 0.089121 0.990011
vt 0.089121 0.975222
vt 0.095247 0.975222
vt 0.089121 0.009989
vt 0.086407 0.012703
vt 0.095247 0.024778
vt 0.089121 0.024778
vt 0.123888 0.996137
vt 0.109099 0.990011
vt 0.111813 0.987297
vt 0.123888 0.990011
vt 0.102974 0.975222
vt 0.109099 0.975222
vt 0.123888 0.975222
vt 0.123888 0.024778
vt 0.109099 0.024778
vt 0.111813 0.012703
vt 0.123888 0.009989
vt 0.102974 0.024778
vt 0.109099 0.009989
vt 0.123888 0.003864
vt 0.173443 0.996137
vt 0.173443 0.990011
vt 0.185518 0.987297
vt 0.188232 0.990011
vt 0.173443 0.975222
vt 0.188232 0.975222
vt 0.194357 0.975222
vt 0.173443 0.003864
vt 0.188232 0.009989
vt 0.185518 0.012703
vt 0.173443 0.009989
vt 0.194357 0.024778
vt 0.188232 0.024778
vt 0.173443 0.024778
vt 0.135963 0.987297
vt 0.138676 0.990011
vt 0.138676 0.975222
vt 0.144802 0.975222
vt 0.138676 0.009989
vt 0.135963 0.012703
vt 0.144802 0.024778
vt 0.138676 0.024778
vt 0.158655 0.990011
vt 0.161368 0.987297
vt 0.152529 0.975222
vt 0.158655 0.975222
vt 0.161368 0.012703
vt 0.158655 0.009989
vt 0.158655 0.024778
vt 0.152529 0.024778
vt 0.236403 0.450006
vt 0.236403 0.457733
s 1
usemtl Material.001
f 1/1/1 2/2/2 4/3/4 3/4/3
f 3/5/3 4/6/4 8/7/8 7/8/7
f 7/9/7 8/10/8 6/11/6 5/12/5
f 5/13/5 6/14/6 2/15/2 1/16/1
f 3/17/3 7/18/7 5/19/5 1/20/1
f 8/21/8 4/22/4 2/23/2 6/24/6
f 9/25/1 10/26/2 12/27/4 11/28/3
f 11/29/3 12/30/4 16/31/8 15/32/7
f 15/33/7 16/34/8 14/35/6 13/36/5
f 13/37/5 14/38/6 10/39/2 9/40/1
f 11/41/3 15/42/7 13/43/5 9/44/1
f 16/45/8 12/46/4 10/47/2 14/48/6
f 17/49/1 18/50/2 20/51/4 19/52/3
f 19/53/3 20/54/4 24/55/8 23/56/7
f 23/57/7 24/58/8 22/59/6 21/60/5
f 21/61/5 22/62/6 18/63/2 17/64/1
f 19/65/3 23/66/7 21/67/5 17/68/1
f 24/69/8 20/70/4 18/71/2 22/72/6
f 25/73/1 26/74/2 28/75/4 27/76/3
f 27/77/3 28/78/4 32/79/8 31/80/7
f 31/81/7 32/82/8 30/83/6 29/84/5
f 29/85/5 30/86/6 26/87/2 25/88/1
f 27/89/3 31/90/7 29/91/5 25/92/1
f 32/93/8 28/94/4 26/95/2 30/96/6
f 33/97/1 34/98/2 36/99/4 35/100/3
f 35/101/3 36/102/4 40/103/8 39/104/7
f 39/105/7 40/106/8 38/107/6 37/108/5
f 37/109/5 38/110/6 34/111/2 33/112/1
f 35/113/3 39/114/7 37/115/5 33/116/1
f 40/117/8 36/118/4 34/119/2 38/120/6
f 41/121/1 42/122/2 44/123/4 43/124/3
f 43/125/3 44/126/4 48/127/8 47/128/7
f 47/129/7 48/130/8 46/131/6 45/132/5
f 45/133/5 46/134/6 42/135/2 41/136/1
f 43/137/3 47/138/7 45/139/5 41/140/1
f 48/141/8 44/142/4 42/143/2 46/144/6
f 49/145/1 50/146/2 52/147/4 51/148/3
f 51/149/3 52/150/4 56/151/8 55/152/7
f 55/153/7 56/154/8 54/155/6 53/156/5
f 53/157/5 54/158/6 50/159/2 49/160/1
f 51/161/3 55/162/7 53/163/5 49/164/1
f 56/165/8 52/166/4 50/167/2 54/168/6
usemtl Material.002
f 57/169/9 60/170/12 61/171/13 63/172/15
f 58/173/10 62/174/14 61/171/13 60/170/12
f 59/175/11 63/172/15 61/171/13 62/174/14
f 64/176/16 67/177/19 68/178/20 70/179/22
f 65/180/17 69/181/21 68/178/20 67/177/19
f 66/182/18 70/179/22 68/178/20 69/181/21
f 71/183/23 74/184/26 75/185/27 77/186/29
f 72/187/24 76/188/28 75/185/27 74/184/26
f 73/189/25 77/186/29 75/185/27 76/188/28
f 78/190/30 81/191/33 82/192/34 84/193/36
f 79/194/31 83/195/35 82/192/34 81/191/33
f 80/196/32 84/193/36 82/192/34 83/195/35
f 85/197/37 88/198/40 89/199/41 91/200/43
f 86/201/38 90/202/42 89/199/41 88/198/40
f 87/203/39 91/200/43 89/199/41 90/202/42
f 92/204/44 95/205/47 96/206/48 98/207/50
f 93/208/45 97/209/49 96/206/48 95/205/47
f 94/210/46 98/207/50 96/206/48 97/209/49
f 99/183/51 102/186/54 103/211/55 105/212/57
f 100/189/52 104/213/56 103/211/55 102/186/54
f 101/214/53 105/212/57 103/211/55 104/213/56
f 106/190/58 109/215/61 110/216/62 112/191/64
f 107/217/59 111/218/63 110/216/62 109/215/61
f 108/194/60 112/191/64 110/216/62 111/218/63
f 113/219/23 116/220/26 117/221/27 119/222/29
f 114/223/24 118/224/28 117/221/27 116/220/26
f 115/225/25 119/222/29 117/221/27 118/224/28
f 120/226/31 123/227/35 124/228/34 126/229/33
f 121/230/32 125/231/36 124/228/34 123/227/35
f 122/232/30 126/229/33 124/228/34 125/231/36
f 127/233/9 130/234/12 131/235/13 133/236/15
f 128/237/10 132/238/14 131/235/13 130/234/12
f 129/239/11 133/236/15 131/235/13 132/238/14
f 134/240/17 137/241/21 138/242/20 140/243/19
f 135/244/18 139/245/22 138/242/20 137/241/21
f 136/246/16 140/243/19 138/242/20 139/245/22
f 141/219/51 144/222/54 145/247/55 147/248/57
f 142/225/52 146/249/56 145/247/55 144/222/54
f 143/250/53 147/248/57 145/247/55 146/249/56
f 148/232/58 151/251/61 152/252/62 154/229/64
f 149/253/59 153/254/63 152/252/62 151/251/61
f 150/226/60 154/229/64 152/252/62 153/254/63
f 155/233/37 158/255/40 159/256/41 161/234/43
f 156/257/38 160/258/42 159/256/41 158/255/40
f 157/237/39 161/234/43 159/256/41 160/258/42
f 162/240/44 165/243/47 166/259/48 168/260/50
f 163/246/45 167/261/49 166/259/48 165/243/47
f 164/262/46 168/260/50 166/259/48 167/261/49
f 71/263/23 57/263/9 63/263/15 74/263/26
f 74/263/26 63/263/15 59/263/11 72/263/24
f 58/173/10 64/176/16 70/179/22 62/174/14
f 62/174/14 70/179/22 66/182/18 59/175/11
f 65/263/17 78/263/30 84/263/36 69/263/21
f 69/263/21 84/263/36 80/263/32 66/263/18
f 79/194/31 73/189/25 76/188/28 83/195/35
f 83/195/35 76/188/28 72/187/24 80/196/32
f 99/183/51 71/183/23 77/186/29 102/186/54
f 102/186/54 77/186/29 73/189/25 100/189/52
f 78/190/30 106/190/58 112/191/64 81/191/33
f 81/191/33 112/191/64 108/194/60 79/194/31
f 107/217/59 101/214/53 104/213/56 111/218/63
f 111/218/63 104/213/56 100/189/52 108/194/60
f 85/263/37 99/263/51 105/263/57 88/263/40
f 88/263/40 105/263/57 101/263/53 86/263/38
f 106/263/58 92/263/44 98/263/50 109/263/61
f 109/263/61 98/263/50 94/263/46 107/263/59
f 93/208/45 87/203/39 90/202/42 97/209/49
f 97/209/49 90/202/42 86/201/38 94/210/46
f 57/169/9 85/197/37 91/200/43 60/170/12
f 60/170/12 91/200/43 87/203/39 58/173/10
f 92/204/44 65/180/17 67/177/19 95/205/47
f 95/205/47 67/177/19 64/176/16 93/208/45
f 129/264/11 114/264/24 116/264/26 133/264/15
f 133/264/15 116/264/26 113/264/23 127/264/9
f 114/223/24 121/230/32 123/227/35 118/224/28
f 118/224/28 123/227/35 120/226/31 115/225/25
f 121/264/32 135/264/18 137/264/21 125/264/36
f 125/264/36 137/264/21 134/264/17 122/264/30
f 135/244/18 129/239/11 132/238/14 139/245/22
f 139/245/22 132/238/14 128/237/10 136/246/16
f 157/237/39 128/237/10 130/234/12 161/234/43
f 161/234/43 130/234/12 127/233/9 155/233/37
f 136/246/16 163/246/45 165/243/47 140/243/19
f 140/243/19 165/243/47 162/240/44 134/240/17
f 163/246/45 157/237/39 160/258/42 167/261/49
f 167/261/49 160/258/42 156/257/38 164/262/46
f 143/264/53 156/264/38 158/264/40 147/264/57
f 147/264/57 158/264/40 155/264/37 141/264/51
f 164/264/46 149/264/59 151/264/61 168/264/50
f 168/264/50 151/264/61 148/264/58 162/264/44
f 149/253/59 143/250/53 146/249/56 153/254/63
f 153/254/63 146/249/56 142/225/52 150/226/60
f 115/225/25 142/225/52 144/222/54 119/222/29
f 119/222/29 144/222/54 141/219/51 113/219/23
f 150/226/60 120/226/31 126/229/33 154/229/64
f 154/229/64 126/229/33 122/232/30 148/232/58
f 71/263/23 99/263/51 85/263/37 57/263/9
f 59/263/11 66/263/18 80/263/32 72/263/24
f 87/203/39 93/208/45 64/176/16 58/173/10
f 106/263/58 78/263/30 65/263/17 92/263/44
f 73/189/25 79/194/31 108/194/60 100/189/52
f 101/263/53 107/263/59 94/263/46 86/263/38
f 127/264/9 113/264/23 141/264/51 155/264/37
f 114/264/24 129/264/11 135/264/18 121/264/32
f 142/225/52 115/225/25 120/226/31 150/226/60
f 162/264/44 148/264/58 122/264/30 134/264/17
f 128/237/10 157/237/39 163/246/45 136/246/16
f 156/264/38 143/264/53 149/264/59 164/264/46
