# Blender 4.5.1 LTS
# www.blender.org
mtllib locker_open.mtl
o Cube
v 0.600000 3.936599 -0.655173
v 0.600000 0.226254 -0.655173
v 0.600000 3.936599 0.655173
v 0.600000 0.226254 0.655173
v -0.600000 4.006542 -0.800000
v -0.600000 0.006542 -0.800000
v -0.600000 4.006542 0.800000
v -0.600000 0.006542 0.800000
v 0.600000 4.006542 -0.800000
v 0.600000 0.006542 -0.800000
v 0.600000 4.006542 0.800000
v 0.600000 0.006542 0.800000
v -0.413702 3.936599 -0.655173
v -0.413702 0.226254 -0.655173
v -0.413702 3.936599 0.655173
v -0.413702 0.226254 0.655173
v 0.600000 3.006542 -0.800000
v 0.600000 2.006542 -0.800000
v 0.600000 1.006542 -0.800000
v -0.600000 1.006542 0.800000
v -0.600000 2.006542 0.800000
v -0.600000 3.006542 0.800000
v 0.600000 3.006542 0.800000
v 0.600000 2.006542 0.800000
v 0.600000 1.006542 0.800000
v -0.600000 3.006542 -0.800000
v -0.600000 2.006542 -0.800000
v -0.600000 1.006542 -0.800000
v 0.600000 3.009012 -0.655173
v 0.600000 2.081426 -0.655173
v 0.600000 1.153840 -0.655173
v 0.600000 3.009012 0.655173
v 0.600000 2.081426 0.655173
v 0.600000 1.153840 0.655173
v -0.413702 3.009012 -0.655173
v -0.413702 2.081426 -0.655173
v -0.413702 1.153840 -0.655173
v -0.413702 3.009012 0.655173
v -0.413702 2.081426 0.655173
v -0.413702 1.153840 0.655173
v 0.583551 0.833688 0.695441
v 0.583551 1.165371 0.695441
v 0.583551 0.833688 0.604439
v 0.583551 1.165371 0.604439
v 0.667091 0.833688 0.695441
v 0.667091 1.165371 0.695441
v 0.667091 0.833688 0.604439
v 0.667091 1.165371 0.604439
v 0.583551 2.817975 0.695441
v 0.583551 3.149657 0.695441
v 0.583551 2.817975 0.604439
v 0.583551 3.149657 0.604439
v 0.667091 2.817975 0.695441
v 0.667091 3.149657 0.695441
v 0.667091 2.817975 0.604439
v 0.667091 3.149657 0.604439
v 1.920606 3.936599 0.609442
v 1.920606 0.226254 0.609442
v 0.611059 3.936599 0.655173
v 0.611059 0.226254 0.655173
v 1.709389 1.826911 0.603514
v 1.709389 2.173089 0.603514
v 1.820738 1.826911 0.599626
v 1.820738 2.173089 0.599626
v 1.712086 1.826911 0.680747
v 1.712086 2.173089 0.680747
v 1.823435 1.826911 0.676859
v 1.823435 2.173089 0.676859
v 1.709946 1.942304 0.619466
v 1.709946 2.057696 0.619466
v 1.821295 2.057696 0.615577
v 1.821295 1.942304 0.615577
v 1.823992 2.057696 0.692811
v 1.823992 1.942304 0.692811
v 1.712643 2.057696 0.696699
v 1.712643 1.942304 0.696699
vn -0.0000 1.0000 -0.0000
vn -0.0000 -0.0000 1.0000
vn -1.0000 -0.0000 -0.0000
vn -0.0000 -1.0000 -0.0000
vn -0.0000 -0.0000 -1.0000
vn 1.0000 -0.0000 -0.0000
vn 0.0349 -0.0000 0.9994
vn -0.0346 -0.1370 -0.9900
vn 0.9994 -0.0000 -0.0349
vn 0.0346 0.1370 0.9900
vn -0.9994 -0.0000 0.0349
vn 0.0346 -0.1370 0.9900
vn -0.0346 0.1370 -0.9900
vn -0.0349 -0.0000 -0.9994
vt 0.279476 0.675939
vt 0.138984 0.675939
vt 0.138984 0.488616
vt 0.279476 0.488616
vt 0.408479 0.571781
vt 0.408479 0.454704
vt 0.548964 0.454704
vt 0.548964 0.571781
vt 0.207629 0.123846
vt 0.207629 0.006770
vt 0.394939 0.006770
vt 0.394939 0.123846
vt 0.279476 0.876801
vt 0.138984 0.876801
vt 0.138984 0.689478
vt 0.279476 0.689478
vt 0.681180 0.780501
vt 0.681180 0.889100
vt 0.562503 0.889100
vt 0.562503 0.780501
vt 0.742329 0.123846
vt 0.742329 0.006770
vt 0.882817 0.006770
vt 0.882817 0.123846
vt 0.023725 0.340755
vt 0.023725 0.449354
vt 0.006770 0.475077
vt 0.006770 0.358000
vt 0.177134 0.123557
vt 0.177134 0.014958
vt 0.194090 0.006770
vt 0.194090 0.123846
vt 0.023725 0.014958
vt 0.006770 0.006770
vt 0.177134 0.449354
vt 0.194090 0.475077
vt 0.408479 0.115368
vt 0.408479 0.006770
vt 0.561887 0.006770
vt 0.561887 0.115368
vt 0.742329 0.642027
vt 0.742329 0.488616
vt 0.861010 0.488616
vt 0.861010 0.642027
vt 0.006770 0.597215
vt 0.006770 0.488616
vt 0.125445 0.488616
vt 0.125445 0.597215
vt 0.861010 0.655567
vt 0.861010 0.808978
vt 0.742329 0.808978
vt 0.742329 0.655567
vt 0.006770 0.923012
vt 0.006770 0.814413
vt 0.125445 0.814413
vt 0.125445 0.923012
vt 0.006770 0.705814
vt 0.125445 0.705814
vt 0.408479 0.441165
vt 0.408479 0.332566
vt 0.561887 0.332566
vt 0.561887 0.441165
vt 0.408479 0.223967
vt 0.561887 0.223967
vt 0.177134 0.340755
vt 0.194090 0.358000
vt 0.177134 0.232156
vt 0.194090 0.240923
vt 0.023725 0.123557
vt 0.006770 0.123846
vt 0.023725 0.232156
vt 0.006770 0.240923
vt 0.742329 0.475077
vt 0.742329 0.358000
vt 0.882817 0.358000
vt 0.882817 0.475077
vt 0.742329 0.240923
vt 0.882817 0.240923
vt 0.681180 0.454704
vt 0.681180 0.563303
vt 0.562503 0.563303
vt 0.562503 0.454704
vt 0.681180 0.671902
vt 0.562503 0.671902
vt 0.207629 0.475077
vt 0.207629 0.358000
vt 0.394939 0.358000
vt 0.394939 0.475077
vt 0.207629 0.240923
vt 0.394939 0.240923
vt 0.408479 0.923012
vt 0.408479 0.805935
vt 0.548964 0.805935
vt 0.548964 0.923012
vt 0.408479 0.688858
vt 0.548964 0.688858
vt 0.861010 0.822517
vt 0.861010 0.975928
vt 0.742329 0.975928
vt 0.742329 0.822517
vt 0.993230 0.488616
vt 0.993230 0.642027
vt 0.874549 0.642027
vt 0.874549 0.488616
vt 0.874549 0.808978
vt 0.874549 0.655567
vt 0.993230 0.655567
vt 0.993230 0.808978
vt 0.365595 0.581517
vt 0.365595 0.542685
vt 0.376249 0.542685
vt 0.376249 0.581517
vt 0.293016 0.633889
vt 0.293016 0.595057
vt 0.302796 0.595057
vt 0.302796 0.633889
vt 0.317209 0.581517
vt 0.317209 0.542685
vt 0.327863 0.542685
vt 0.327863 0.581517
vt 0.365595 0.633889
vt 0.365595 0.595057
vt 0.375375 0.595057
vt 0.375375 0.633889
vt 0.351183 0.658082
vt 0.341402 0.658082
vt 0.341402 0.647428
vt 0.351183 0.647428
vt 0.375376 0.658082
vt 0.365595 0.658082
vt 0.365595 0.647428
vt 0.375376 0.647428
vt 0.341402 0.581517
vt 0.341402 0.542685
vt 0.352056 0.542685
vt 0.352056 0.581517
vt 0.317209 0.633889
vt 0.317209 0.595057
vt 0.326989 0.595057
vt 0.326989 0.633889
vt 0.293016 0.581517
vt 0.293016 0.542685
vt 0.303670 0.542685
vt 0.303670 0.581517
vt 0.341402 0.633889
vt 0.341402 0.595056
vt 0.351183 0.595056
vt 0.351183 0.633889
vt 0.351183 0.682276
vt 0.341402 0.682276
vt 0.341402 0.671622
vt 0.351183 0.671622
vt 0.374503 0.682276
vt 0.364722 0.682276
vt 0.364722 0.671622
vt 0.374503 0.671622
vt 0.575427 0.441165
vt 0.575427 0.006770
vt 0.728790 0.006770
vt 0.728790 0.441165
vt 0.293066 0.502126
vt 0.293016 0.488616
vt 0.306055 0.488616
vt 0.306105 0.502126
vt 0.372592 0.502126
vt 0.370724 0.488616
vt 0.379768 0.488616
vt 0.381636 0.502126
vt 0.319645 0.502126
vt 0.319691 0.488616
vt 0.332732 0.488616
vt 0.332685 0.502126
vt 0.346271 0.502126
vt 0.348139 0.488616
vt 0.357185 0.488616
vt 0.355316 0.502126
vt 0.326257 0.660473
vt 0.317209 0.660473
vt 0.317209 0.647428
vt 0.326257 0.647428
vt 0.302063 0.660473
vt 0.293016 0.660473
vt 0.293016 0.647428
vt 0.302063 0.647428
vt 0.348139 0.529146
vt 0.346271 0.515636
vt 0.355316 0.515636
vt 0.357185 0.529146
vt 0.319691 0.529146
vt 0.319645 0.515636
vt 0.332685 0.515636
vt 0.332732 0.529146
vt 0.370724 0.529146
vt 0.372592 0.515636
vt 0.381636 0.515636
vt 0.379768 0.529146
vt 0.293016 0.529146
vt 0.293066 0.515636
vt 0.306105 0.515636
vt 0.306055 0.529146
s 0
usemtl Material
f 9/1/1 5/2/1 7/3/1 11/4/1
f 23/5/2 11/6/2 7/7/2 22/8/2
f 22/9/3 7/10/3 5/11/3 26/12/3
f 6/13/4 10/14/4 12/15/4 8/16/4
f 34/17/5 4/18/5 16/19/5 40/20/5
f 26/21/5 5/22/5 9/23/5 17/24/5
f 31/25/6 2/26/6 10/27/6 19/28/6
f 32/29/6 3/30/6 11/31/6 23/32/6
f 3/30/6 1/33/6 9/34/6 11/31/6
f 2/26/6 4/35/6 12/36/6 10/27/6
f 35/37/6 13/38/6 15/39/6 38/40/6
f 1/41/4 3/42/4 15/43/4 13/44/4
f 29/45/2 1/46/2 13/47/2 35/48/2
f 4/49/1 2/50/1 14/51/1 16/52/1
f 2/53/2 31/54/2 37/55/2 14/56/2
f 31/54/2 30/57/2 36/58/2 37/55/2
f 30/57/2 29/45/2 35/48/2 36/58/2
f 14/59/6 37/60/6 40/61/6 16/62/6
f 37/60/6 36/63/6 39/64/6 40/61/6
f 36/63/6 35/37/6 38/40/6 39/64/6
f 4/35/6 34/65/6 25/66/6 12/36/6
f 34/65/6 33/67/6 24/68/6 25/66/6
f 33/67/6 32/29/6 23/32/6 24/68/6
f 1/33/6 29/69/6 17/70/6 9/34/6
f 29/69/6 30/71/6 18/72/6 17/70/6
f 30/71/6 31/25/6 19/28/6 18/72/6
f 6/73/5 28/74/5 19/75/5 10/76/5
f 28/74/5 27/77/5 18/78/5 19/75/5
f 27/77/5 26/21/5 17/24/5 18/78/5
f 3/79/5 32/80/5 38/81/5 15/82/5
f 32/80/5 33/83/5 39/84/5 38/81/5
f 33/83/5 34/17/5 40/20/5 39/84/5
f 8/85/3 20/86/3 28/87/3 6/88/3
f 20/86/3 21/89/3 27/90/3 28/87/3
f 21/89/3 22/9/3 26/12/3 27/90/3
f 12/91/2 25/92/2 20/93/2 8/94/2
f 25/92/2 24/95/2 21/96/2 20/93/2
f 24/95/2 23/5/2 22/8/2 21/96/2
f 33/97/1 30/98/1 36/99/1 39/100/1
f 34/101/1 31/102/1 37/103/1 40/104/1
f 29/105/4 32/106/4 38/107/4 35/108/4
f 41/109/3 42/110/3 44/111/3 43/112/3
f 43/113/5 44/114/5 48/115/5 47/116/5
f 47/117/6 48/118/6 46/119/6 45/120/6
f 45/121/2 46/122/2 42/123/2 41/124/2
f 43/125/4 47/126/4 45/127/4 41/128/4
f 48/129/1 44/130/1 42/131/1 46/132/1
f 49/133/3 50/134/3 52/135/3 51/136/3
f 51/137/5 52/138/5 56/139/5 55/140/5
f 55/141/6 56/142/6 54/143/6 53/144/6
f 53/145/2 54/146/2 50/147/2 49/148/2
f 51/149/4 55/150/4 53/151/4 49/152/4
f 56/153/1 52/154/1 50/155/1 54/156/1
f 58/157/7 57/158/7 59/159/7 60/160/7
f 70/161/8 62/162/8 64/163/8 71/164/8
f 71/165/9 64/166/9 68/167/9 73/168/9
f 73/169/10 68/170/10 66/171/10 75/172/10
f 75/173/11 66/174/11 62/175/11 70/176/11
f 63/177/4 67/178/4 65/179/4 61/180/4
f 68/181/1 64/182/1 62/183/1 66/184/1
f 65/185/11 76/186/11 69/187/11 61/188/11
f 76/186/11 75/173/11 70/176/11 69/187/11
f 67/189/12 74/190/12 76/191/12 65/192/12
f 74/190/7 73/169/7 75/172/7 76/191/7
f 63/193/9 72/194/9 74/195/9 67/196/9
f 72/194/9 71/165/9 73/168/9 74/195/9
f 61/197/13 69/198/13 72/199/13 63/200/13
f 69/198/14 70/161/14 71/164/14 72/199/14
