# Blender 4.5.1 LTS
# www.blender.org
mtllib locker_closed.mtl
o Cube.002
v 0.600000 3.936599 -0.655173
v 0.600000 0.226254 -0.655173
v 0.600000 3.936599 0.655173
v 0.600000 0.226254 0.655173
v -0.600000 4.006542 -0.800000
v -0.600000 0.006542 -0.800000
v -0.600000 4.006542 0.800000
v -0.600000 0.006542 0.800000
v 0.600000 4.006542 -0.800000
v 0.600000 0.006542 -0.800000
v 0.600000 4.006542 0.800000
v 0.600000 0.006542 0.800000
v -0.413702 3.936599 -0.655173
v -0.413702 0.226254 -0.655173
v -0.413702 3.936599 0.655173
v -0.413702 0.226254 0.655173
v 0.600000 3.006542 -0.800000
v 0.600000 2.006542 -0.800000
v 0.600000 1.006542 -0.800000
v -0.600000 1.006542 0.800000
v -0.600000 2.006542 0.800000
v -0.600000 3.006542 0.800000
v 0.600000 3.006542 0.800000
v 0.600000 2.006542 0.800000
v 0.600000 1.006542 0.800000
v -0.600000 3.006542 -0.800000
v -0.600000 2.006542 -0.800000
v -0.600000 1.006542 -0.800000
v 0.600000 3.009012 -0.655173
v 0.600000 2.081426 -0.655173
v 0.600000 1.153840 -0.655173
v 0.600000 3.009012 0.655173
v 0.600000 2.081426 0.655173
v 0.600000 1.153840 0.655173
v -0.413702 3.009012 -0.655173
v -0.413702 2.081426 -0.655173
v -0.413702 1.153840 -0.655173
v -0.413702 3.009012 0.655173
v -0.413702 2.081426 0.655173
v -0.413702 1.153840 0.655173
v 0.583551 0.833688 0.695441
v 0.583551 1.165371 0.695441
v 0.583551 0.833688 0.604439
v 0.583551 1.165371 0.604439
v 0.667091 0.833688 0.695441
v 0.667091 1.165371 0.695441
v 0.667091 0.833688 0.604439
v 0.667091 1.165371 0.604439
v 0.583551 2.817975 0.695441
v 0.583551 3.149657 0.695441
v 0.583551 2.817975 0.604439
v 0.583551 3.149657 0.604439
v 0.667091 2.817975 0.695441
v 0.667091 3.149657 0.695441
v 0.667091 2.817975 0.604439
v 0.667091 3.149657 0.604439
v 0.611059 3.936599 -0.655175
v 0.611059 0.226254 -0.655175
v 0.611059 3.936599 0.655170
v 0.611059 0.226254 0.655170
v 0.597763 1.826911 -0.444294
v 0.597763 2.173089 -0.444294
v 0.597763 1.826911 -0.555711
v 0.597763 2.173089 -0.555711
v 0.675043 1.826911 -0.444294
v 0.675043 2.173089 -0.444294
v 0.675043 1.826911 -0.555711
v 0.675043 2.173089 -0.555711
v 0.613724 1.942304 -0.444294
v 0.613724 2.057696 -0.444294
v 0.613724 2.057696 -0.555711
v 0.613724 1.942304 -0.555711
v 0.691005 2.057696 -0.555711
v 0.691005 1.942304 -0.555711
v 0.691005 2.057696 -0.444294
v 0.691005 1.942304 -0.444294
vn -0.0000 1.0000 -0.0000
vn -0.0000 -0.0000 1.0000
vn -1.0000 -0.0000 -0.0000
vn -0.0000 -1.0000 -0.0000
vn -0.0000 -0.0000 -1.0000
vn 1.0000 -0.0000 -0.0000
vn -0.9906 -0.1370 -0.0000
vn 0.9906 0.1370 -0.0000
vn 0.9906 -0.1370 -0.0000
vn -0.9906 0.1370 -0.0000
vt 0.279464 0.675895
vt 0.138981 0.675895
vt 0.138981 0.488584
vt 0.279464 0.488584
vt 0.742346 0.123838
vt 0.742346 0.006769
vt 0.882829 0.006769
vt 0.882829 0.123838
vt 0.006769 0.123838
vt 0.006769 0.006769
vt 0.194080 0.006769
vt 0.194080 0.123838
vt 0.279464 0.876744
vt 0.138981 0.876744
vt 0.138981 0.689433
vt 0.279464 0.689433
vt 0.681162 0.780450
vt 0.681162 0.889041
vt 0.562489 0.889041
vt 0.562489 0.780450
vt 0.408467 0.571743
vt 0.408467 0.454674
vt 0.548950 0.454674
vt 0.548950 0.571743
vt 0.224573 0.340733
vt 0.224573 0.449324
vt 0.207618 0.475046
vt 0.207618 0.357976
vt 0.377974 0.123549
vt 0.377974 0.014957
vt 0.394929 0.006769
vt 0.394929 0.123838
vt 0.224573 0.014957
vt 0.207618 0.006769
vt 0.377974 0.449324
vt 0.394929 0.475046
vt 0.408467 0.115361
vt 0.408467 0.006769
vt 0.561868 0.006769
vt 0.561868 0.115361
vt 0.742346 0.641985
vt 0.742346 0.488584
vt 0.861019 0.488584
vt 0.861019 0.641985
vt 0.006769 0.597176
vt 0.006769 0.488584
vt 0.125442 0.488584
vt 0.125442 0.597176
vt 0.861019 0.655523
vt 0.861019 0.808924
vt 0.742346 0.808924
vt 0.742346 0.655523
vt 0.006769 0.922951
vt 0.006769 0.814359
vt 0.125442 0.814359
vt 0.125442 0.922951
vt 0.006769 0.705767
vt 0.125442 0.705767
vt 0.408467 0.441136
vt 0.408467 0.332544
vt 0.561868 0.332544
vt 0.561868 0.441136
vt 0.408467 0.223953
vt 0.561868 0.223953
vt 0.377974 0.340733
vt 0.394929 0.357976
vt 0.377974 0.232141
vt 0.394929 0.240907
vt 0.224573 0.123549
vt 0.207618 0.123838
vt 0.224573 0.232141
vt 0.207618 0.240907
vt 0.408467 0.922951
vt 0.408467 0.805882
vt 0.548950 0.805882
vt 0.548950 0.922951
vt 0.408467 0.688813
vt 0.548950 0.688813
vt 0.681162 0.454674
vt 0.681162 0.563266
vt 0.562489 0.563266
vt 0.562489 0.454674
vt 0.681162 0.671858
vt 0.562489 0.671858
vt 0.006769 0.475046
vt 0.006769 0.357976
vt 0.194080 0.357976
vt 0.194080 0.475046
vt 0.006769 0.240907
vt 0.194080 0.240907
vt 0.742346 0.475046
vt 0.742346 0.357976
vt 0.882829 0.357976
vt 0.882829 0.475046
vt 0.742346 0.240907
vt 0.882829 0.240907
vt 0.861019 0.822463
vt 0.861019 0.975864
vt 0.742346 0.975864
vt 0.742346 0.822463
vt 0.993231 0.488584
vt 0.993231 0.641985
vt 0.874558 0.641985
vt 0.874558 0.488584
vt 0.874558 0.808924
vt 0.874558 0.655523
vt 0.993231 0.655523
vt 0.993231 0.808924
vt 0.293002 0.581479
vt 0.293002 0.542649
vt 0.303656 0.542649
vt 0.303656 0.581479
vt 0.293002 0.633847
vt 0.293002 0.595017
vt 0.302782 0.595017
vt 0.302782 0.633847
vt 0.317194 0.581479
vt 0.317194 0.542649
vt 0.327848 0.542649
vt 0.327848 0.581479
vt 0.317194 0.633847
vt 0.317194 0.595017
vt 0.326974 0.595017
vt 0.326974 0.633847
vt 0.351166 0.658039
vt 0.341386 0.658039
vt 0.341386 0.647386
vt 0.351166 0.647386
vt 0.374485 0.658039
vt 0.364705 0.658039
vt 0.364705 0.647386
vt 0.374485 0.647386
vt 0.341386 0.581479
vt 0.341386 0.542649
vt 0.352040 0.542649
vt 0.352040 0.581479
vt 0.341386 0.633847
vt 0.341386 0.595017
vt 0.351166 0.595017
vt 0.351166 0.633847
vt 0.365578 0.581479
vt 0.365578 0.542649
vt 0.376232 0.542649
vt 0.376232 0.581479
vt 0.365578 0.633847
vt 0.365578 0.595017
vt 0.375358 0.595017
vt 0.375358 0.633847
vt 0.351166 0.682231
vt 0.341386 0.682231
vt 0.341386 0.671578
vt 0.351166 0.671578
vt 0.374485 0.682231
vt 0.364705 0.682231
vt 0.364705 0.671578
vt 0.374485 0.671578
vt 0.575407 0.441136
vt 0.575407 0.006769
vt 0.728808 0.006769
vt 0.728808 0.441136
vt 0.293002 0.502093
vt 0.293002 0.488584
vt 0.306046 0.488584
vt 0.306046 0.502093
vt 0.348035 0.502093
vt 0.346166 0.488584
vt 0.355213 0.488584
vt 0.357082 0.502093
vt 0.319584 0.502093
vt 0.319584 0.488584
vt 0.332628 0.488584
vt 0.332628 0.502093
vt 0.370620 0.502093
vt 0.372489 0.488584
vt 0.381536 0.488584
vt 0.379667 0.502093
vt 0.302049 0.660429
vt 0.293002 0.660429
vt 0.293002 0.647386
vt 0.302049 0.647386
vt 0.326241 0.660429
vt 0.317194 0.660429
vt 0.317194 0.647386
vt 0.326241 0.647386
vt 0.372489 0.529111
vt 0.370620 0.515602
vt 0.379667 0.515602
vt 0.381536 0.529111
vt 0.319584 0.529111
vt 0.319584 0.515602
vt 0.332628 0.515602
vt 0.332628 0.529111
vt 0.346166 0.529111
vt 0.348035 0.515602
vt 0.357082 0.515602
vt 0.355213 0.529111
vt 0.293002 0.529111
vt 0.293002 0.515602
vt 0.306046 0.515602
vt 0.306046 0.529111
s 0
usemtl Material
f 9/1/1 5/2/1 7/3/1 11/4/1
f 23/5/2 11/6/2 7/7/2 22/8/2
f 22/9/3 7/10/3 5/11/3 26/12/3
f 6/13/4 10/14/4 12/15/4 8/16/4
f 34/17/5 4/18/5 16/19/5 40/20/5
f 26/21/5 5/22/5 9/23/5 17/24/5
f 31/25/6 2/26/6 10/27/6 19/28/6
f 32/29/6 3/30/6 11/31/6 23/32/6
f 3/30/6 1/33/6 9/34/6 11/31/6
f 2/26/6 4/35/6 12/36/6 10/27/6
f 35/37/6 13/38/6 15/39/6 38/40/6
f 1/41/4 3/42/4 15/43/4 13/44/4
f 29/45/2 1/46/2 13/47/2 35/48/2
f 4/49/1 2/50/1 14/51/1 16/52/1
f 2/53/2 31/54/2 37/55/2 14/56/2
f 31/54/2 30/57/2 36/58/2 37/55/2
f 30/57/2 29/45/2 35/48/2 36/58/2
f 14/59/6 37/60/6 40/61/6 16/62/6
f 37/60/6 36/63/6 39/64/6 40/61/6
f 36/63/6 35/37/6 38/40/6 39/64/6
f 4/35/6 34/65/6 25/66/6 12/36/6
f 34/65/6 33/67/6 24/68/6 25/66/6
f 33/67/6 32/29/6 23/32/6 24/68/6
f 1/33/6 29/69/6 17/70/6 9/34/6
f 29/69/6 30/71/6 18/72/6 17/70/6
f 30/71/6 31/25/6 19/28/6 18/72/6
f 6/73/5 28/74/5 19/75/5 10/76/5
f 28/74/5 27/77/5 18/78/5 19/75/5
f 27/77/5 26/21/5 17/24/5 18/78/5
f 3/79/5 32/80/5 38/81/5 15/82/5
f 32/80/5 33/83/5 39/84/5 38/81/5
f 33/83/5 34/17/5 40/20/5 39/84/5
f 8/85/3 20/86/3 28/87/3 6/88/3
f 20/86/3 21/89/3 27/90/3 28/87/3
f 21/89/3 22/9/3 26/12/3 27/90/3
f 12/91/2 25/92/2 20/93/2 8/94/2
f 25/92/2 24/95/2 21/96/2 20/93/2
f 24/95/2 23/5/2 22/8/2 21/96/2
f 33/97/1 30/98/1 36/99/1 39/100/1
f 34/101/1 31/102/1 37/103/1 40/104/1
f 29/105/4 32/106/4 38/107/4 35/108/4
f 41/109/3 42/110/3 44/111/3 43/112/3
f 43/113/5 44/114/5 48/115/5 47/116/5
f 47/117/6 48/118/6 46/119/6 45/120/6
f 45/121/2 46/122/2 42/123/2 41/124/2
f 43/125/4 47/126/4 45/127/4 41/128/4
f 48/129/1 44/130/1 42/131/1 46/132/1
f 49/133/3 50/134/3 52/135/3 51/136/3
f 51/137/5 52/138/5 56/139/5 55/140/5
f 55/141/6 56/142/6 54/143/6 53/144/6
f 53/145/2 54/146/2 50/147/2 49/148/2
f 51/149/4 55/150/4 53/151/4 49/152/4
f 56/153/1 52/154/1 50/155/1 54/156/1
f 58/157/6 57/158/6 59/159/6 60/160/6
f 70/161/7 62/162/7 64/163/7 71/164/7
f 71/165/5 64/166/5 68/167/5 73/168/5
f 73/169/8 68/170/8 66/171/8 75/172/8
f 75/173/2 66/174/2 62/175/2 70/176/2
f 63/177/4 67/178/4 65/179/4 61/180/4
f 68/181/1 64/182/1 62/183/1 66/184/1
f 65/185/2 76/186/2 69/187/2 61/188/2
f 76/186/2 75/173/2 70/176/2 69/187/2
f 67/189/9 74/190/9 76/191/9 65/192/9
f 74/190/6 73/169/6 75/172/6 76/191/6
f 63/193/5 72/194/5 74/195/5 67/196/5
f 72/194/5 71/165/5 73/168/5 74/195/5
f 61/197/10 69/198/10 72/199/10 63/200/10
f 69/198/3 70/161/3 71/164/3 72/199/3
