# Blender 4.5.1 LTS
# www.blender.org
mtllib hatch.mtl
o Cube
v -0.800343 -0.005745 1.407477
v -1.407477 -0.005745 0.800343
v -1.229652 -0.005745 1.229652
v -1.407477 0.277538 0.800343
v -0.800343 0.277538 1.407477
v -1.229652 0.277538 1.229652
v -1.407477 -0.005745 -0.800343
v -0.800343 -0.005745 -1.407477
v -1.229652 -0.005745 -1.229652
v -0.800343 0.277538 -1.407477
v -1.407477 0.277538 -0.800343
v -1.229652 0.277538 -1.229652
v 1.407477 -0.005745 0.800343
v 0.800343 -0.005745 1.407477
v 1.229652 -0.005745 1.229652
v 0.800343 0.277538 1.407477
v 1.407477 0.277538 0.800343
v 1.229652 0.277538 1.229652
v 0.800343 -0.005745 -1.407477
v 1.407477 -0.005745 -0.800343
v 1.229652 -0.005745 -1.229652
v 1.407477 0.277538 -0.800343
v 0.800343 0.277538 -1.407477
v 1.229652 0.277538 -1.229652
v 0.000000 0.269866 -1.000000
v -0.000000 0.346760 -0.201924
v 0.195090 0.269866 -0.980785
v 0.039393 0.346760 -0.198044
v 0.382683 0.269866 -0.923880
v 0.077273 0.346760 -0.186553
v 0.555570 0.269866 -0.831470
v 0.112183 0.346760 -0.167893
v 0.707107 0.269866 -0.707107
v 0.142782 0.346760 -0.142782
v 0.831470 0.269866 -0.555570
v 0.167893 0.346760 -0.112183
v 0.923880 0.269866 -0.382683
v 0.980785 0.269866 -0.195090
v 0.201924 0.346760 0.000000
v 1.000000 0.269866 0.000000
v 0.980785 0.269866 0.195090
v 0.198044 0.346760 0.039393
v 0.923880 0.269866 0.382683
v 0.186553 0.346760 0.077273
v 0.831470 0.269866 0.555570
v 0.167893 0.346760 0.112183
v 0.707107 0.269866 0.707107
v 0.142782 0.346760 0.142782
v 0.555570 0.269866 0.831470
v 0.112183 0.346760 0.167893
v 0.382683 0.269866 0.923880
v 0.077273 0.346760 0.186553
v 0.195090 0.269866 0.980785
v 0.039393 0.346760 0.198044
v 0.000000 0.269866 1.000000
v -0.000000 0.346760 0.201924
v -0.195090 0.269866 0.980785
v -0.382683 0.269866 0.923880
v -0.112183 0.346760 0.167893
v -0.555570 0.269866 0.831470
v -0.707107 0.269866 0.707107
v -0.142782 0.346760 0.142782
v -0.831470 0.269866 0.555570
v -0.167893 0.346760 0.112183
v -0.923880 0.269866 0.382683
v -0.186553 0.346760 0.077273
v -0.980785 0.269866 0.195090
v -0.198044 0.346760 0.039393
v -1.000000 0.269866 0.000000
v -0.201924 0.346760 0.000000
v -0.980785 0.269866 -0.195090
v -0.198044 0.346760 -0.039393
v -0.923880 0.269866 -0.382683
v -0.186553 0.346760 -0.077273
v -0.831470 0.269866 -0.555570
v -0.707107 0.269866 -0.707107
v -0.112183 0.346760 -0.167893
v -0.555570 0.269866 -0.831470
v -0.382683 0.269866 -0.923880
v -0.077273 0.346760 -0.186553
v -0.195090 0.269866 -0.980785
v -0.039393 0.346760 -0.198044
v 0.195090 0.346760 -0.980785
v 0.000000 0.346760 -1.000000
v 0.382683 0.346760 -0.923880
v 0.555570 0.346760 -0.831470
v 0.707107 0.346760 -0.707107
v 0.831470 0.346760 -0.555570
v 0.923880 0.346760 -0.382683
v 0.980785 0.346760 -0.195090
v 1.000000 0.346760 0.000000
v 0.980785 0.346760 0.195090
v 0.923880 0.346760 0.382683
v 0.831470 0.346760 0.555570
v 0.707107 0.346760 0.707107
v 0.555570 0.346760 0.831470
v 0.382683 0.346760 0.923880
v 0.195090 0.346760 0.980785
v 0.000000 0.346760 1.000000
v -0.195090 0.346760 0.980785
v -0.382683 0.346760 0.923880
v -0.555570 0.346760 0.831470
v -0.707107 0.346760 0.707107
v -0.831470 0.346760 0.555570
v -0.923880 0.346760 0.382683
v -0.980785 0.346760 0.195090
v -1.000000 0.346760 0.000000
v -0.980785 0.346760 -0.195090
v -0.923880 0.346760 -0.382683
v -0.831470 0.346760 -0.555570
v -0.707107 0.346760 -0.707107
v -0.555570 0.346760 -0.831470
v -0.382683 0.346760 -0.923880
v -0.195090 0.346760 -0.980785
v 0.164865 0.346760 -0.828834
v 0.000000 0.346760 -0.845071
v 0.323395 0.346760 -0.780744
v 0.469497 0.346760 -0.702651
v 0.597556 0.346760 -0.597556
v 0.702651 0.346760 -0.469497
v 0.780744 0.346760 -0.323395
v 0.828834 0.346760 -0.164865
v 0.845071 0.346760 0.000000
v 0.828834 0.346760 0.164865
v 0.780744 0.346760 0.323395
v 0.702651 0.346760 0.469497
v 0.597556 0.346760 0.597556
v 0.469497 0.346760 0.702651
v 0.323395 0.346760 0.780744
v 0.164865 0.346760 0.828834
v 0.000000 0.346760 0.845071
v -0.164865 0.346760 0.828834
v -0.323395 0.346760 0.780744
v -0.469497 0.346760 0.702651
v -0.597556 0.346760 0.597556
v -0.702651 0.346760 0.469497
v -0.780744 0.346760 0.323395
v -0.828834 0.346760 0.164865
v -0.845071 0.346760 0.000000
v -0.828834 0.346760 -0.164865
v -0.780744 0.346760 -0.323395
v -0.702651 0.346760 -0.469497
v -0.597556 0.346760 -0.597556
v -0.469497 0.346760 -0.702651
v -0.323395 0.346760 -0.780744
v -0.164865 0.346760 -0.828834
v 0.195090 0.404687 -0.980785
v -0.000000 0.404687 -1.000000
v 0.382683 0.404687 -0.923880
v 0.555570 0.404687 -0.831470
v 0.707107 0.404687 -0.707107
v 0.831470 0.404687 -0.555570
v 0.923880 0.404687 -0.382683
v 0.980785 0.404687 -0.195090
v 1.000000 0.404687 -0.000000
v 0.980785 0.404687 0.195090
v 0.923880 0.404687 0.382683
v 0.831470 0.404687 0.555570
v 0.707107 0.404687 0.707107
v 0.555570 0.404687 0.831470
v 0.382683 0.404687 0.923880
v 0.195090 0.404687 0.980785
v -0.000000 0.404687 1.000000
v -0.195090 0.404687 0.980785
v -0.382683 0.404687 0.923880
v -0.555570 0.404687 0.831470
v -0.707107 0.404687 0.707107
v -0.831470 0.404687 0.555570
v -0.923880 0.404687 0.382683
v -0.980785 0.404687 0.195090
v -1.000000 0.404687 -0.000000
v -0.980785 0.404687 -0.195090
v -0.923880 0.404687 -0.382683
v -0.831470 0.404687 -0.555570
v -0.707107 0.404687 -0.707107
v -0.555570 0.404687 -0.831470
v -0.382683 0.404687 -0.923880
v -0.195090 0.404687 -0.980785
v 0.164865 0.404687 -0.828834
v -0.000000 0.404687 -0.845071
v 0.323395 0.404687 -0.780744
v 0.469497 0.404687 -0.702651
v 0.597556 0.404687 -0.597556
v 0.702651 0.404687 -0.469497
v 0.780744 0.404687 -0.323395
v 0.828834 0.404687 -0.164865
v 0.845071 0.404687 -0.000000
v 0.828834 0.404687 0.164865
v 0.780744 0.404687 0.323395
v 0.702651 0.404687 0.469497
v 0.597556 0.404687 0.597556
v 0.469497 0.404687 0.702651
v 0.323395 0.404687 0.780744
v 0.164865 0.404687 0.828834
v -0.000000 0.404687 0.845071
v -0.164865 0.404687 0.828834
v -0.323395 0.404687 0.780744
v -0.469497 0.404687 0.702651
v -0.597556 0.404687 0.597556
v -0.702651 0.404687 0.469497
v -0.780744 0.404687 0.323395
v -0.828834 0.404687 0.164865
v -0.845071 0.404687 -0.000000
v -0.828834 0.404687 -0.164865
v -0.780744 0.404687 -0.323395
v -0.702651 0.404687 -0.469497
v -0.597556 0.404687 -0.597556
v -0.469497 0.404687 -0.702651
v -0.323395 0.404687 -0.780744
v -0.164865 0.404687 -0.828834
v 0.018450 0.404687 -0.092757
v -0.000000 0.404687 -0.094574
v 0.036192 0.404687 -0.087375
v 0.052542 0.404687 -0.078635
v 0.066874 0.404687 -0.066874
v 0.071829 0.404687 -0.060835
v 0.093522 0.404687 0.010677
v 0.092757 0.404687 0.018450
v 0.087375 0.404687 0.036192
v 0.078635 0.404687 0.052542
v 0.066874 0.404687 0.066874
v 0.052542 0.404687 0.078635
v 0.036192 0.404687 0.087375
v 0.018450 0.404687 0.092757
v 0.010677 0.404687 0.093522
v -0.060835 0.404687 0.071829
v -0.066874 0.404687 0.066874
v -0.078635 0.404687 0.052542
v -0.087375 0.404687 0.036192
v -0.092757 0.404687 0.018450
v -0.094574 0.404687 0.000000
v -0.092757 0.404687 -0.018450
v -0.090489 0.404687 -0.025926
v -0.043081 0.404687 -0.083692
v -0.036192 0.404687 -0.087375
v -0.018450 0.404687 -0.092757
v -0.112183 0.404687 0.167893
v -0.000000 0.404687 0.201924
v 0.039393 0.404687 -0.198044
v -0.000000 0.404687 -0.201924
v 0.077273 0.404687 -0.186553
v 0.112183 0.404687 -0.167893
v 0.142782 0.404687 -0.142782
v 0.167893 0.404687 -0.112183
v 0.186553 0.404687 0.077273
v 0.198044 0.404687 0.039393
v 0.167893 0.404687 0.112183
v 0.142782 0.404687 0.142782
v 0.112183 0.404687 0.167893
v 0.077273 0.404687 0.186553
v 0.039393 0.404687 0.198044
v -0.167893 0.404687 0.112183
v -0.142782 0.404687 0.142782
v -0.186553 0.404687 0.077273
v -0.198044 0.404687 0.039393
v -0.201924 0.404687 0.000000
v -0.198044 0.404687 -0.039393
v -0.186553 0.404687 -0.077273
v -0.039393 0.404687 -0.198044
v -0.077273 0.404687 -0.186553
v -0.112183 0.404687 -0.167893
v 0.201924 0.404687 0.000000
v -0.060835 0.523712 0.071829
v 0.010677 0.523712 0.093522
v 0.018450 0.523712 -0.092757
v -0.000000 0.523712 -0.094574
v 0.036192 0.523712 -0.087375
v 0.052542 0.523712 -0.078635
v 0.066874 0.523712 -0.066874
v 0.071829 0.523712 -0.060835
v 0.087375 0.523712 0.036192
v 0.092757 0.523712 0.018450
v 0.078635 0.523712 0.052542
v 0.066874 0.523712 0.066874
v 0.052542 0.523712 0.078635
v 0.036192 0.523712 0.087375
v 0.018450 0.523712 0.092757
v -0.078635 0.523712 0.052542
v -0.066874 0.523712 0.066874
v -0.087375 0.523712 0.036192
v -0.092757 0.523712 0.018450
v -0.094574 0.523712 0.000000
v -0.092757 0.523712 -0.018450
v -0.090489 0.523712 -0.025926
v -0.018450 0.523712 -0.092757
v -0.036192 0.523712 -0.087375
v -0.043081 0.523712 -0.083692
v 0.093522 0.523712 0.010677
v 0.000000 0.512999 -0.534944
v 0.000000 0.610026 -0.534944
v 0.104362 0.512999 -0.524665
v 0.104362 0.610026 -0.524665
v 0.204714 0.512999 -0.494223
v 0.204714 0.610026 -0.494223
v 0.297199 0.512999 -0.444789
v 0.297199 0.610026 -0.444789
v 0.378262 0.512999 -0.378262
v 0.378262 0.610026 -0.378262
v 0.444789 0.512999 -0.297199
v 0.444789 0.610026 -0.297199
v 0.494223 0.512999 -0.204714
v 0.494223 0.610026 -0.204714
v 0.524665 0.512999 -0.104362
v 0.524665 0.610026 -0.104362
v 0.534944 0.512999 0.000000
v 0.534944 0.610026 0.000000
v 0.524665 0.512999 0.104362
v 0.524665 0.610026 0.104362
v 0.494223 0.512999 0.204714
v 0.494223 0.610026 0.204714
v 0.444789 0.512999 0.297199
v 0.444789 0.610026 0.297199
v 0.378262 0.512999 0.378262
v 0.378262 0.610026 0.378262
v 0.297199 0.512999 0.444789
v 0.297199 0.610026 0.444789
v 0.204714 0.512999 0.494223
v 0.204714 0.610026 0.494223
v 0.104362 0.512999 0.524665
v 0.104362 0.610026 0.524665
v 0.000000 0.512999 0.534944
v 0.000000 0.610026 0.534944
v -0.104362 0.512999 0.524665
v -0.104362 0.610026 0.524665
v -0.204714 0.512999 0.494223
v -0.204714 0.610026 0.494223
v -0.297199 0.512999 0.444789
v -0.297199 0.610026 0.444789
v -0.378262 0.512999 0.378262
v -0.378262 0.610026 0.378262
v -0.444789 0.512999 0.297199
v -0.444789 0.610026 0.297199
v -0.494223 0.512999 0.204714
v -0.494223 0.610026 0.204714
v -0.524665 0.512999 0.104362
v -0.524665 0.610026 0.104362
v -0.534944 0.512999 0.000000
v -0.534944 0.610026 0.000000
v -0.524665 0.512999 -0.104362
v -0.524665 0.610026 -0.104362
v -0.494223 0.512999 -0.204714
v -0.494223 0.610026 -0.204714
v -0.444789 0.512999 -0.297199
v -0.444789 0.610026 -0.297199
v -0.378262 0.512999 -0.378262
v -0.378262 0.610026 -0.378262
v -0.297199 0.512999 -0.444789
v -0.297199 0.610026 -0.444789
v -0.204714 0.512999 -0.494223
v -0.204714 0.610026 -0.494223
v -0.104362 0.512999 -0.524665
v -0.104362 0.610026 -0.524665
v -0.224176 0.610026 -0.335503
v -0.078720 0.610026 -0.395753
v -0.154415 0.610026 -0.372791
v -0.395753 0.610026 0.078720
v -0.335503 0.610026 0.224176
v -0.372791 0.610026 0.154415
v 0.078720 0.610026 0.395753
v 0.224176 0.610026 0.335503
v 0.154415 0.610026 0.372791
v 0.335503 0.610026 -0.224176
v 0.395753 0.610026 -0.078720
v 0.372791 0.610026 -0.154415
v -0.403506 0.610026 0.000000
v -0.395753 0.610026 -0.078720
v -0.335503 0.610026 -0.224176
v -0.372791 0.610026 -0.154415
v -0.285322 0.610026 -0.285322
v -0.224176 0.610026 0.335503
v 0.154415 0.610026 -0.372791
v 0.078720 0.610026 -0.395753
v 0.000000 0.610026 -0.403506
v -0.285322 0.610026 0.285322
v -0.154415 0.610026 0.372791
v -0.078720 0.610026 0.395753
v 0.224176 0.610026 -0.335503
v 0.000000 0.610026 0.403506
v 0.335503 0.610026 0.224176
v 0.285322 0.610026 0.285322
v 0.403506 0.610026 0.000000
v 0.372791 0.610026 0.154415
v 0.395753 0.610026 0.078720
v 0.285322 0.610026 -0.285322
v 0.154415 0.512999 -0.372791
v 0.285322 0.512999 -0.285322
v 0.224176 0.512999 -0.335503
v 0.285322 0.512999 0.285322
v 0.372791 0.512999 0.154415
v 0.335503 0.512999 0.224176
v -0.285322 0.512999 0.285322
v -0.154415 0.512999 0.372791
v -0.224176 0.512999 0.335503
v -0.372791 0.512999 -0.154415
v -0.285322 0.512999 -0.285322
v -0.335503 0.512999 -0.224176
v -0.078720 0.512999 -0.395753
v 0.000000 0.512999 -0.403506
v 0.154415 0.512999 0.372791
v 0.078720 0.512999 -0.395753
v 0.372791 0.512999 -0.154415
v 0.335503 0.512999 -0.224176
v 0.403506 0.512999 0.000000
v 0.395753 0.512999 0.078720
v 0.395753 0.512999 -0.078720
v 0.224176 0.512999 0.335503
v -0.403506 0.512999 0.000000
v -0.395753 0.512999 0.078720
v -0.395753 0.512999 -0.078720
v -0.335503 0.512999 0.224176
v -0.372791 0.512999 0.154415
v -0.154415 0.512999 -0.372791
v -0.224176 0.512999 -0.335503
v 0.078720 0.512999 0.395753
v -0.078720 0.512999 0.395753
v 0.000000 0.512999 0.403506
v 0.050799 0.610026 0.031216
v 0.024896 0.610026 -0.054178
v 0.050799 0.512999 0.031216
v 0.024896 0.512999 -0.054178
v -0.024896 0.610026 0.054178
v -0.050799 0.610026 -0.031216
v -0.024896 0.512999 0.054178
v -0.050799 0.512999 -0.031216
vn -0.3827 -0.0000 0.9239
vn -0.9239 -0.0000 0.3827
vn -0.3827 -0.0000 -0.9239
vn -0.9239 -0.0000 -0.3827
vn 0.9239 -0.0000 -0.3827
vn 0.3827 -0.0000 -0.9239
vn 0.3827 -0.0000 0.9239
vn 0.9239 -0.0000 0.3827
vn -0.0000 -1.0000 -0.0000
vn -1.0000 -0.0000 -0.0000
vn -0.0000 -0.0000 1.0000
vn -0.0000 1.0000 -0.0000
vn -0.0000 -0.0000 -1.0000
vn 1.0000 -0.0000 -0.0000
vn 0.0980 -0.0000 -0.9952
vn 0.2903 -0.0000 -0.9569
vn 0.4714 -0.0000 -0.8819
vn 0.6344 -0.0000 -0.7730
vn 0.7730 -0.0000 -0.6344
vn 0.8819 -0.0000 -0.4714
vn 0.9569 -0.0000 -0.2903
vn 0.9952 -0.0000 -0.0980
vn 0.9952 -0.0000 0.0980
vn 0.9569 -0.0000 0.2903
vn 0.8819 -0.0000 0.4714
vn 0.7730 -0.0000 0.6344
vn 0.6344 -0.0000 0.7730
vn 0.4714 -0.0000 0.8819
vn 0.2903 -0.0000 0.9569
vn 0.0980 -0.0000 0.9952
vn -0.0980 -0.0000 0.9952
vn -0.2903 -0.0000 0.9569
vn -0.4714 -0.0000 0.8819
vn -0.6344 -0.0000 0.7730
vn -0.7730 -0.0000 0.6344
vn -0.8819 -0.0000 0.4714
vn -0.9569 -0.0000 0.2903
vn -0.9952 -0.0000 0.0980
vn -0.9952 -0.0000 -0.0980
vn -0.9569 -0.0000 -0.2903
vn -0.8819 -0.0000 -0.4714
vn -0.7730 -0.0000 -0.6344
vn -0.6344 -0.0000 -0.7730
vn -0.4714 -0.0000 -0.8819
vn -0.2903 -0.0000 -0.9569
vn -0.0980 -0.0000 -0.9952
vn 0.2543 -0.0000 0.9671
vn 0.9671 -0.0000 0.2543
vn -0.9454 -0.0000 -0.3258
vn -0.6051 -0.0000 0.7962
vn 0.6628 -0.0000 -0.7488
vn -0.3258 -0.0000 -0.9454
vn -0.3037 -0.0000 -0.9528
vn -0.2769 -0.0000 -0.9609
vn 0.3037 -0.0000 0.9528
vn 0.2769 -0.0000 0.9609
vt 0.201994 0.846177
vt 0.201994 0.580694
vt 0.241601 0.580694
vt 0.241601 0.846177
vt 0.295320 0.275428
vt 0.295320 0.009946
vt 0.336053 0.009946
vt 0.336053 0.275428
vt 0.336150 0.295320
vt 0.336150 0.560803
vt 0.295320 0.560803
vt 0.295320 0.295320
vt 0.527235 0.009946
vt 0.527235 0.275428
vt 0.486999 0.275428
vt 0.486999 0.009946
vt 0.586978 0.295320
vt 0.586978 0.560803
vt 0.547102 0.560803
vt 0.547102 0.295320
vt 0.527210 0.295320
vt 0.527210 0.560803
vt 0.487080 0.560803
vt 0.487080 0.295320
vt 0.051217 0.580694
vt 0.051217 0.846177
vt 0.009946 0.846177
vt 0.009946 0.580694
vt 0.778900 0.295320
vt 0.778900 0.560803
vt 0.737849 0.560803
vt 0.737849 0.295320
vt 0.218169 0.009946
vt 0.258657 0.026717
vt 0.275428 0.067206
vt 0.275428 0.218169
vt 0.258657 0.258657
vt 0.218169 0.275428
vt 0.067206 0.275428
vt 0.026717 0.258657
vt 0.009946 0.218169
vt 0.009946 0.067206
vt 0.026717 0.026717
vt 0.067206 0.009946
vt 0.218169 0.295320
vt 0.258657 0.312091
vt 0.275428 0.352580
vt 0.275428 0.503543
vt 0.258657 0.544032
vt 0.218169 0.560803
vt 0.067206 0.560803
vt 0.026717 0.544032
vt 0.009946 0.503543
vt 0.009946 0.352580
vt 0.026717 0.312091
vt 0.067206 0.295320
vt 0.775517 0.646793
vt 0.703454 0.646793
vt 0.703454 0.628435
vt 0.775517 0.628435
vt 0.703455 0.610859
vt 0.775517 0.610859
vt 0.703455 0.594739
vt 0.775517 0.594739
vt 0.703455 0.580695
vt 0.775517 0.580695
vt 0.775517 0.867229
vt 0.703454 0.867229
vt 0.703454 0.853357
vt 0.775517 0.853357
vt 0.703454 0.837367
vt 0.775517 0.837367
vt 0.703455 0.819874
vt 0.775517 0.819874
vt 0.703455 0.801549
vt 0.775517 0.801549
vt 0.703455 0.783098
vt 0.775517 0.783098
vt 0.703455 0.765228
vt 0.775517 0.765228
vt 0.703455 0.748628
vt 0.775517 0.748628
vt 0.703455 0.733934
vt 0.775517 0.733934
vt 0.629276 0.867161
vt 0.557214 0.867161
vt 0.557214 0.852305
vt 0.629276 0.852305
vt 0.557214 0.835587
vt 0.629276 0.835587
vt 0.557214 0.817651
vt 0.629276 0.817651
vt 0.557214 0.799184
vt 0.629276 0.799184
vt 0.557214 0.780897
vt 0.629276 0.780897
vt 0.557214 0.763493
vt 0.629276 0.763493
vt 0.557214 0.747640
vt 0.629276 0.747640
vt 0.557214 0.733948
vt 0.629276 0.733948
vt 0.629276 0.714056
vt 0.557214 0.714056
vt 0.557214 0.699593
vt 0.629276 0.699593
vt 0.557214 0.683161
vt 0.629276 0.683161
vt 0.557214 0.665391
vt 0.629276 0.665391
vt 0.557214 0.646967
vt 0.629276 0.646967
vt 0.557214 0.628596
vt 0.629276 0.628596
vt 0.557214 0.610986
vt 0.629276 0.610986
vt 0.557214 0.594811
vt 0.629276 0.594811
vt 0.557214 0.580694
vt 0.629276 0.580694
vt 0.775517 0.714042
vt 0.703454 0.714042
vt 0.703454 0.699509
vt 0.775517 0.699509
vt 0.703454 0.683026
vt 0.775517 0.683026
vt 0.502927 0.628596
vt 0.502927 0.610986
vt 0.703454 0.665226
vt 0.775517 0.665226
vt 0.547127 0.113047
vt 0.547127 0.094559
vt 0.550734 0.076426
vt 0.557809 0.059345
vt 0.568081 0.043973
vt 0.581154 0.030899
vt 0.596526 0.020628
vt 0.613607 0.013553
vt 0.631740 0.009946
vt 0.650229 0.009946
vt 0.668362 0.013553
vt 0.685443 0.020628
vt 0.700815 0.030899
vt 0.713888 0.043973
vt 0.724160 0.059345
vt 0.731235 0.076426
vt 0.734842 0.094559
vt 0.734842 0.113047
vt 0.731235 0.131180
vt 0.724160 0.148261
vt 0.713888 0.163634
vt 0.700815 0.176707
vt 0.685443 0.186979
vt 0.668362 0.194054
vt 0.650229 0.197661
vt 0.631740 0.197661
vt 0.613607 0.194054
vt 0.596526 0.186979
vt 0.581154 0.176707
vt 0.568081 0.163634
vt 0.557809 0.148261
vt 0.550734 0.131180
vt 0.138412 0.866069
vt 0.138412 0.881638
vt 0.084125 0.881638
vt 0.084125 0.866069
vt 0.502927 0.799184
vt 0.502927 0.780897
vt 0.941631 0.967449
vt 0.938313 0.967449
vt 0.938313 0.913162
vt 0.941631 0.913162
vt 0.649168 0.819874
vt 0.649168 0.801549
vt 0.935392 0.967449
vt 0.935392 0.913162
vt 0.701863 0.271839
vt 0.687977 0.271839
vt 0.687977 0.217552
vt 0.701863 0.217552
vt 0.929329 0.051785
vt 0.929329 0.067391
vt 0.875042 0.067391
vt 0.875042 0.051785
vt 0.982212 0.064233
vt 0.979447 0.064233
vt 0.979447 0.009946
vt 0.982212 0.009946
vt 0.502927 0.646967
vt 0.714086 0.271839
vt 0.714086 0.217552
vt 0.929329 0.036628
vt 0.875042 0.036628
vt 0.502927 0.817651
vt 0.929329 0.110949
vt 0.929329 0.122520
vt 0.875042 0.122520
vt 0.875042 0.110949
vt 0.929329 0.022500
vt 0.875042 0.022500
vt 0.649168 0.837367
vt 0.929329 0.097552
vt 0.875042 0.097552
vt 0.929329 0.009946
vt 0.875042 0.009946
vt 0.502927 0.665391
vt 0.929329 0.082844
vt 0.875042 0.082844
vt 0.502927 0.835587
vt 0.479932 0.953410
vt 0.476203 0.953410
vt 0.476203 0.899123
vt 0.479932 0.899123
vt 0.929329 0.228609
vt 0.929329 0.242638
vt 0.875042 0.242638
vt 0.875042 0.228609
vt 0.649168 0.853357
vt 0.472581 0.953410
vt 0.472581 0.899123
vt 0.649168 0.665226
vt 0.649168 0.646793
vt 0.929329 0.213508
vt 0.875042 0.213508
vt 0.469205 0.953410
vt 0.469205 0.899123
vt 0.502927 0.683161
vt 0.502927 0.946876
vt 0.502927 0.887052
vt 0.557214 0.887052
vt 0.557214 0.946876
vt 0.856957 0.621818
vt 0.858513 0.625211
vt 0.806125 0.655783
vt 0.799611 0.641581
vt 0.860702 0.628235
vt 0.815284 0.668440
vt 0.863438 0.630775
vt 0.826737 0.679067
vt 0.866618 0.632731
vt 0.840043 0.687256
vt 0.870118 0.634030
vt 0.854691 0.692692
vt 0.870118 0.695165
vt 0.929329 0.197915
vt 0.875042 0.197915
vt 0.795409 0.768393
vt 0.810835 0.827055
vt 0.795409 0.829528
vt 0.798909 0.767094
vt 0.825483 0.821619
vt 0.802088 0.765137
vt 0.838789 0.813430
vt 0.804825 0.762598
vt 0.850242 0.802803
vt 0.807013 0.759574
vt 0.859402 0.790145
vt 0.808570 0.756180
vt 0.865916 0.775944
vt 0.809434 0.752549
vt 0.869534 0.760745
vt 0.809574 0.748818
vt 0.870118 0.745132
vt 0.808983 0.745132
vt 0.867644 0.729705
vt 0.862209 0.715057
vt 0.502927 0.852305
vt 0.859336 0.314433
vt 0.798792 0.310747
vt 0.801265 0.295320
vt 0.859475 0.318164
vt 0.799376 0.326360
vt 0.860340 0.321796
vt 0.802994 0.341559
vt 0.861897 0.325189
vt 0.809508 0.355760
vt 0.864085 0.328213
vt 0.818668 0.368418
vt 0.866822 0.330753
vt 0.830120 0.379045
vt 0.870001 0.332709
vt 0.843426 0.387234
vt 0.873501 0.334008
vt 0.858074 0.392670
vt 0.873501 0.395143
vt 0.466206 0.953410
vt 0.466206 0.899123
vt 0.856544 0.610769
vt 0.797882 0.595342
vt 0.803318 0.580694
vt 0.855953 0.614455
vt 0.795409 0.610769
vt 0.856092 0.618186
vt 0.795992 0.626382
vt 0.274099 0.692240
vt 0.272709 0.692240
vt 0.272709 0.580694
vt 0.274099 0.580694
vt 0.309861 0.682364
vt 0.312909 0.697688
vt 0.298927 0.701929
vt 0.295320 0.683796
vt 0.318888 0.712122
vt 0.306002 0.719010
vt 0.327569 0.725113
vt 0.316274 0.734382
vt 0.338616 0.736161
vt 0.329347 0.747456
vt 0.351607 0.744841
vt 0.344719 0.757727
vt 0.366042 0.750820
vt 0.361800 0.764802
vt 0.381366 0.753868
vt 0.379933 0.768409
vt 0.396989 0.753868
vt 0.398422 0.768409
vt 0.412313 0.750820
vt 0.416555 0.764802
vt 0.426748 0.744841
vt 0.433636 0.757727
vt 0.439739 0.736161
vt 0.449008 0.747456
vt 0.450786 0.725113
vt 0.462081 0.734382
vt 0.459467 0.712122
vt 0.472353 0.719010
vt 0.465446 0.697688
vt 0.479428 0.701929
vt 0.468494 0.682364
vt 0.483035 0.683796
vt 0.468494 0.666740
vt 0.483035 0.665308
vt 0.465446 0.651416
vt 0.479428 0.647175
vt 0.459467 0.636982
vt 0.472353 0.630094
vt 0.450786 0.623991
vt 0.462081 0.614721
vt 0.439739 0.612943
vt 0.449008 0.601648
vt 0.426748 0.604263
vt 0.433636 0.591377
vt 0.412313 0.598284
vt 0.416555 0.584301
vt 0.396989 0.595236
vt 0.398422 0.580695
vt 0.381366 0.595236
vt 0.379933 0.580695
vt 0.366042 0.598284
vt 0.361800 0.584301
vt 0.351607 0.604263
vt 0.344719 0.591377
vt 0.338616 0.612943
vt 0.329347 0.601648
vt 0.327569 0.623991
vt 0.316274 0.614721
vt 0.318888 0.636982
vt 0.306002 0.630094
vt 0.312909 0.651416
vt 0.298927 0.647175
vt 0.309861 0.666740
vt 0.295320 0.665308
vt 0.380200 0.691347
vt 0.391044 0.693504
vt 0.408130 0.672685
vt 0.403898 0.662471
vt 0.380200 0.657757
vt 0.372382 0.665575
vt 0.945219 0.967449
vt 0.945219 0.913162
vt 0.138412 0.897163
vt 0.084125 0.897163
vt 0.703455 0.887120
vt 0.703455 0.946754
vt 0.649168 0.946754
vt 0.649168 0.887120
vt 0.948939 0.967449
vt 0.948939 0.913162
vt 0.649168 0.783098
vt 0.138412 0.912045
vt 0.084125 0.912045
vt 0.547127 0.275050
vt 0.547127 0.217552
vt 0.601414 0.217552
vt 0.601414 0.275050
vt 0.952648 0.967449
vt 0.952648 0.913162
vt 0.502927 0.763493
vt 0.649168 0.628435
vt 0.138412 0.925714
vt 0.084125 0.925714
vt 0.502927 0.594811
vt 0.956204 0.967449
vt 0.956204 0.913162
vt 0.138412 0.937643
vt 0.084125 0.937643
vt 0.158303 0.925342
vt 0.158303 0.921635
vt 0.212590 0.921635
vt 0.212590 0.925342
vt 0.649168 0.765228
vt 0.064233 0.866069
vt 0.064233 0.878350
vt 0.009946 0.878350
vt 0.009946 0.866069
vt 0.502927 0.747640
vt 0.158303 0.928891
vt 0.212590 0.928891
vt 0.064233 0.892280
vt 0.009946 0.892280
vt 0.502927 0.580694
vt 0.158303 0.932146
vt 0.212590 0.932146
vt 0.649168 0.610859
vt 0.064233 0.907322
vt 0.009946 0.907322
vt 0.158303 0.914319
vt 0.158303 0.910990
vt 0.212590 0.910990
vt 0.212590 0.914319
vt 0.158303 0.934982
vt 0.212590 0.934982
vt 0.649168 0.748628
vt 0.064233 0.922900
vt 0.009946 0.922900
vt 0.158303 0.917913
vt 0.212590 0.917913
vt 0.502927 0.733948
vt 0.480543 0.842588
vt 0.477742 0.842588
vt 0.477742 0.788301
vt 0.480543 0.788301
vt 0.064233 0.938413
vt 0.009946 0.938413
vt 0.649168 0.714042
vt 0.649168 0.699509
vt 0.649168 0.594739
vt 0.649168 0.733934
vt 0.915500 0.967449
vt 0.901878 0.967449
vt 0.901878 0.913162
vt 0.915500 0.913162
vt 0.668085 0.271839
vt 0.621306 0.271839
vt 0.621306 0.217552
vt 0.668085 0.217552
vt 0.502927 0.714056
vt 0.502927 0.699593
vt 0.890010 0.967449
vt 0.890010 0.913162
vt 0.158303 0.866069
vt 0.212590 0.866069
vt 0.649168 0.683026
vt 0.979822 0.967449
vt 0.976096 0.967449
vt 0.976096 0.913162
vt 0.979822 0.913162
vt 0.649168 0.580695
vt 0.929329 0.142412
vt 0.929329 0.154134
vt 0.875042 0.154134
vt 0.875042 0.142412
vt 0.983430 0.967449
vt 0.983430 0.913162
vt 0.502927 0.867161
vt 0.929329 0.167647
vt 0.875042 0.167647
vt 0.986782 0.967449
vt 0.986782 0.913162
vt 0.929329 0.182430
vt 0.875042 0.182430
vt 0.989749 0.967449
vt 0.989749 0.913162
vt 0.649168 0.867229
vt 0.349607 0.899123
vt 0.349607 0.957325
vt 0.295320 0.957325
vt 0.295320 0.899123
vt 0.398054 0.674689
vt 0.395357 0.668178
vt 0.380301 0.675426
vt 0.380642 0.677141
vt 0.370954 0.680080
vt 0.370225 0.676418
vt 0.381311 0.678756
vt 0.372382 0.683529
vt 0.382283 0.680210
vt 0.374457 0.686633
vt 0.383519 0.681447
vt 0.377096 0.689273
vt 0.384132 0.681856
vt 0.391767 0.683087
vt 0.393382 0.682418
vt 0.398155 0.691347
vt 0.394706 0.692776
vt 0.394836 0.681447
vt 0.401259 0.689273
vt 0.396072 0.680210
vt 0.403898 0.686633
vt 0.397044 0.678756
vt 0.405973 0.683529
vt 0.397713 0.677141
vt 0.407401 0.680080
vt 0.398054 0.675426
vt 0.408130 0.676418
vt 0.394836 0.667657
vt 0.393382 0.666686
vt 0.398155 0.657757
vt 0.401259 0.659831
vt 0.391767 0.666017
vt 0.394706 0.656328
vt 0.390052 0.665675
vt 0.391044 0.655600
vt 0.388303 0.665675
vt 0.387311 0.655600
vt 0.386588 0.666017
vt 0.383649 0.656328
vt 0.385908 0.666299
vt 0.380642 0.671963
vt 0.380301 0.673678
vt 0.370225 0.672685
vt 0.370954 0.669024
vt 0.380924 0.671282
vt 0.391044 0.683231
vt 0.751002 0.263837
vt 0.750661 0.265552
vt 0.749992 0.267167
vt 0.749021 0.268621
vt 0.748500 0.269142
vt 0.741988 0.271839
vt 0.741252 0.271839
vt 0.739537 0.271498
vt 0.737921 0.270829
vt 0.736467 0.269858
vt 0.735231 0.268621
vt 0.734260 0.267167
vt 0.733978 0.266487
vt 0.733978 0.259439
vt 0.734260 0.258758
vt 0.735231 0.257304
vt 0.736467 0.256068
vt 0.737921 0.255097
vt 0.739537 0.254428
vt 0.741252 0.254086
vt 0.743000 0.254086
vt 0.743723 0.254230
vt 0.749583 0.258146
vt 0.749992 0.258758
vt 0.750661 0.260374
vt 0.751002 0.262089
vt 0.269449 0.692240
vt 0.268714 0.692240
vt 0.268714 0.580694
vt 0.269449 0.580694
vt 0.955041 0.121492
vt 0.953304 0.121492
vt 0.953304 0.009946
vt 0.955041 0.009946
vt 0.952869 0.386251
vt 0.951126 0.386251
vt 0.951126 0.274705
vt 0.952869 0.274705
vt 0.262898 0.823678
vt 0.261493 0.823678
vt 0.261493 0.712132
vt 0.262898 0.712132
vt 0.949878 0.121492
vt 0.949221 0.121492
vt 0.949221 0.009946
vt 0.949878 0.009946
vt 0.956703 0.121492
vt 0.956703 0.009946
vt 0.954606 0.386251
vt 0.954606 0.274705
vt 0.264479 0.823678
vt 0.264479 0.712132
vt 0.262045 0.692240
vt 0.262045 0.580694
vt 0.958227 0.121492
vt 0.958227 0.009946
vt 0.955308 0.386251
vt 0.955308 0.274705
vt 0.266175 0.823678
vt 0.266175 0.712132
vt 0.959556 0.121492
vt 0.959556 0.009946
vt 0.274091 0.823678
vt 0.273545 0.823678
vt 0.273545 0.712132
vt 0.274091 0.712132
vt 0.266911 0.823678
vt 0.266911 0.712132
vt 0.261493 0.692240
vt 0.261493 0.580694
vt 0.951561 0.121492
vt 0.951561 0.009946
vt 0.947892 0.386251
vt 0.946524 0.386251
vt 0.946524 0.274705
vt 0.947892 0.274705
vt 0.271139 0.692240
vt 0.271139 0.580694
vt 0.949446 0.386251
vt 0.949446 0.274705
vt 0.960689 0.386251
vt 0.960689 0.274705
vt 0.331295 0.879232
vt 0.331295 0.788301
vt 0.341115 0.788301
vt 0.341115 0.879232
vt 0.350518 0.788301
vt 0.350518 0.879232
vt 0.359141 0.788301
vt 0.359141 0.879232
vt 0.366654 0.788301
vt 0.366654 0.879232
vt 0.386545 0.879232
vt 0.386545 0.788301
vt 0.393966 0.788301
vt 0.393966 0.879232
vt 0.402520 0.788301
vt 0.402520 0.879232
vt 0.411878 0.788301
vt 0.411878 0.879232
vt 0.421680 0.788301
vt 0.421680 0.879232
vt 0.431551 0.788301
vt 0.431551 0.879232
vt 0.441110 0.788301
vt 0.441110 0.879232
vt 0.449990 0.788301
vt 0.449990 0.879232
vt 0.457851 0.788301
vt 0.457851 0.879232
vt 0.795409 0.940351
vt 0.795409 0.849420
vt 0.803356 0.849420
vt 0.803356 0.940351
vt 0.812298 0.849420
vt 0.812298 0.940351
vt 0.821894 0.849420
vt 0.821894 0.940351
vt 0.831772 0.849420
vt 0.831772 0.940351
vt 0.841554 0.849420
vt 0.841554 0.940351
vt 0.850865 0.849420
vt 0.850865 0.940351
vt 0.859345 0.849420
vt 0.859345 0.940351
vt 0.866670 0.849420
vt 0.866670 0.940351
vt 0.798792 0.505966
vt 0.798792 0.415035
vt 0.806529 0.415035
vt 0.806529 0.505966
vt 0.815319 0.415035
vt 0.815319 0.505966
vt 0.824825 0.415035
vt 0.824825 0.505966
vt 0.834681 0.415035
vt 0.834681 0.505966
vt 0.844508 0.415035
vt 0.844508 0.505966
vt 0.853929 0.415035
vt 0.853929 0.505966
vt 0.862581 0.415035
vt 0.862581 0.505966
vt 0.870133 0.415035
vt 0.870133 0.505966
vt 0.295320 0.879232
vt 0.295320 0.788301
vt 0.303095 0.788301
vt 0.303095 0.879232
vt 0.311912 0.788301
vt 0.311912 0.879232
vt 0.321434 0.788301
vt 0.321434 0.879232
vt 0.819587 0.108433
vt 0.809887 0.110363
vt 0.808672 0.098026
vt 0.815989 0.096571
vt 0.799997 0.110363
vt 0.801212 0.098026
vt 0.908969 0.505966
vt 0.908969 0.415035
vt 0.916348 0.415035
vt 0.916348 0.505966
vt 0.901946 0.505966
vt 0.901946 0.415035
vt 0.895550 0.505966
vt 0.895550 0.415035
vt 0.890025 0.505966
vt 0.890025 0.415035
vt 0.408537 0.899123
vt 0.414373 0.899123
vt 0.414373 0.990054
vt 0.408537 0.990054
vt 0.401906 0.899123
vt 0.401906 0.990054
vt 0.916751 0.691517
vt 0.924185 0.691517
vt 0.924185 0.782448
vt 0.916751 0.782448
vt 0.909338 0.691517
vt 0.909338 0.782448
vt 0.902232 0.691517
vt 0.902232 0.782448
vt 0.895706 0.691517
vt 0.895706 0.782448
vt 0.890009 0.691517
vt 0.890009 0.782448
vt 0.376150 0.899123
vt 0.382014 0.899123
vt 0.382014 0.990054
vt 0.376150 0.990054
vt 0.369499 0.899123
vt 0.369499 0.990054
vt 0.916680 0.802339
vt 0.924118 0.802339
vt 0.924118 0.893270
vt 0.916680 0.893270
vt 0.909273 0.802339
vt 0.909273 0.893270
vt 0.902181 0.802339
vt 0.902181 0.893270
vt 0.895676 0.802339
vt 0.895676 0.893270
vt 0.890009 0.802339
vt 0.890009 0.893270
vt 0.440716 0.990054
vt 0.440716 0.899123
vt 0.446314 0.899123
vt 0.446314 0.990054
vt 0.434264 0.990054
vt 0.434264 0.899123
vt 0.917293 0.671625
vt 0.917293 0.580695
vt 0.924687 0.580695
vt 0.924687 0.671625
vt 0.909847 0.671625
vt 0.909847 0.580695
vt 0.902637 0.671625
vt 0.902637 0.580695
vt 0.895939 0.671625
vt 0.895939 0.580695
vt 0.890009 0.671625
vt 0.890009 0.580695
vt 0.955966 0.233342
vt 0.955966 0.142412
vt 0.961961 0.142412
vt 0.961961 0.233342
vt 0.949221 0.233342
vt 0.949221 0.142412
vt 0.923799 0.415035
vt 0.923799 0.505966
vt 0.841358 0.169416
vt 0.810257 0.182299
vt 0.807402 0.175406
vt 0.838504 0.162524
vt 0.802482 0.185519
vt 0.799627 0.178627
vt 0.771380 0.198402
vt 0.768525 0.191510
vt 0.944010 0.893270
vt 0.944010 0.802339
vt 0.976752 0.802339
vt 0.976752 0.893270
vt 0.976691 0.415035
vt 0.976691 0.505966
vt 0.943691 0.505966
vt 0.943691 0.415035
vt 0.232482 0.866069
vt 0.265490 0.866069
vt 0.265490 0.956999
vt 0.232482 0.956999
vt 0.944077 0.782448
vt 0.944077 0.691517
vt 0.976432 0.691517
vt 0.976432 0.782448
vt 0.808672 0.022282
vt 0.815989 0.023738
vt 0.809797 0.057317
vt 0.801543 0.055675
vt 0.944578 0.671625
vt 0.944578 0.580695
vt 0.976934 0.580695
vt 0.976934 0.671625
vt 0.926632 0.386251
vt 0.893393 0.386251
vt 0.893393 0.295320
vt 0.926632 0.295320
vt 0.815989 0.216879
vt 0.822881 0.214025
vt 0.787003 0.146901
vt 0.793895 0.144046
vt 0.842814 0.063884
vt 0.841359 0.071201
vt 0.808341 0.064634
vt 0.800087 0.062992
vt 0.767070 0.056424
vt 0.768525 0.049107
vt 0.608958 0.977983
vt 0.577105 0.977983
vt 0.577105 0.887052
vt 0.608958 0.887052
vt 0.793895 0.096571
vt 0.755199 0.978051
vt 0.723346 0.978051
vt 0.723346 0.887120
vt 0.755199 0.887120
vt 0.822881 0.093716
vt 0.828725 0.104648
vt 0.829084 0.089571
vt 0.836948 0.099154
vt 0.843941 0.092160
vt 0.834359 0.084296
vt 0.838504 0.078093
vt 0.849436 0.083937
vt 0.853221 0.074800
vt 0.855150 0.065099
vt 0.855150 0.055209
vt 0.842814 0.056424
vt 0.841359 0.049107
vt 0.853221 0.045509
vt 0.838504 0.042215
vt 0.849436 0.036372
vt 0.834359 0.036012
vt 0.843941 0.028148
vt 0.836948 0.021155
vt 0.829084 0.030737
vt 0.822881 0.026593
vt 0.828725 0.015660
vt 0.819587 0.011875
vt 0.809887 0.009946
vt 0.790297 0.011875
vt 0.799997 0.009946
vt 0.801212 0.022282
vt 0.793895 0.023738
vt 0.781159 0.015660
vt 0.787003 0.026593
vt 0.780800 0.030737
vt 0.772936 0.021155
vt 0.765943 0.028148
vt 0.775525 0.036012
vt 0.771380 0.042215
vt 0.760448 0.036372
vt 0.756663 0.045509
vt 0.754734 0.055209
vt 0.754734 0.065099
vt 0.767070 0.063884
vt 0.768525 0.071201
vt 0.756663 0.074800
vt 0.771380 0.078093
vt 0.760448 0.083937
vt 0.765943 0.092160
vt 0.775525 0.084296
vt 0.772936 0.099154
vt 0.780800 0.089571
vt 0.787003 0.093716
vt 0.781159 0.104648
vt 0.790297 0.108433
s 0
usemtl Material.001
f 1/1/1 5/2/1 6/3/1 3/4/1
f 3/5/2 6/6/2 4/7/2 2/8/2
f 10/9/3 8/10/3 9/11/3 12/12/3
f 12/13/4 9/14/4 7/15/4 11/16/4
f 22/17/5 20/18/5 21/19/5 24/20/5
f 24/21/6 21/22/6 19/23/6 23/24/6
f 16/25/7 14/26/7 15/27/7 18/28/7
f 18/29/8 15/30/8 13/31/8 17/32/8
f 7/33/9 9/34/9 8/35/9 19/36/9 21/37/9 20/38/9 13/39/9 15/40/9 14/41/9 1/42/9 3/43/9 2/44/9
f 2/8/10 4/7/10 11/16/10 7/15/10
f 14/26/11 16/25/11 5/2/11 1/1/11
f 22/45/12 24/46/12 23/47/12 10/48/12 12/49/12 11/50/12 4/51/12 6/52/12 5/53/12 16/54/12 18/55/12 17/56/12
f 8/10/13 10/9/13 23/24/13 19/23/13
f 20/18/14 22/17/14 17/32/14 13/31/14
usemtl Material.002
f 25/57/15 84/58/15 83/59/15 27/60/15
f 27/60/16 83/59/16 85/61/16 29/62/16
f 29/62/17 85/61/17 86/63/17 31/64/17
f 31/64/18 86/63/18 87/65/18 33/66/18
f 33/67/19 87/68/19 88/69/19 35/70/19
f 35/70/20 88/69/20 89/71/20 37/72/20
f 37/72/21 89/71/21 90/73/21 38/74/21
f 38/74/22 90/73/22 91/75/22 40/76/22
f 40/76/23 91/75/23 92/77/23 41/78/23
f 41/78/24 92/77/24 93/79/24 43/80/24
f 43/80/25 93/79/25 94/81/25 45/82/25
f 45/82/26 94/81/26 95/83/26 47/84/26
f 47/85/27 95/86/27 96/87/27 49/88/27
f 49/88/28 96/87/28 97/89/28 51/90/28
f 51/90/29 97/89/29 98/91/29 53/92/29
f 53/92/30 98/91/30 99/93/30 55/94/30
f 55/94/31 99/93/31 100/95/31 57/96/31
f 57/96/32 100/95/32 101/97/32 58/98/32
f 58/98/33 101/97/33 102/99/33 60/100/33
f 60/100/34 102/99/34 103/101/34 61/102/34
f 61/103/35 103/104/35 104/105/35 63/106/35
f 63/106/36 104/105/36 105/107/36 65/108/36
f 65/108/37 105/107/37 106/109/37 67/110/37
f 67/110/38 106/109/38 107/111/38 69/112/38
f 69/112/39 107/111/39 108/113/39 71/114/39
f 71/114/40 108/113/40 109/115/40 73/116/40
f 73/116/41 109/115/41 110/117/41 75/118/41
f 75/118/42 110/117/42 111/119/42 76/120/42
f 76/121/43 111/122/43 112/123/43 78/124/43
f 78/124/44 112/123/44 113/125/44 79/126/44
f 109/115/40 108/113/40 172/127/40 173/128/40
f 79/126/45 113/125/45 114/129/45 81/130/45
f 81/130/46 114/129/46 84/58/46 25/57/46
f 25/131/9 27/132/9 29/133/9 31/134/9 33/135/9 35/136/9 37/137/9 38/138/9 40/139/9 41/140/9 43/141/9 45/142/9 47/143/9 49/144/9 51/145/9 53/146/9 55/147/9 57/148/9 58/149/9 60/150/9 61/151/9 63/152/9 65/153/9 67/154/9 69/155/9 71/156/9 73/157/9 75/158/9 76/159/9 78/160/9 79/161/9 81/162/9
f 122/163/38 123/164/38 187/165/38 186/166/38
f 100/95/31 99/93/31 163/167/31 164/168/31
f 66/169/36 64/170/36 252/171/36 254/172/36
f 91/75/22 90/73/22 154/173/22 155/174/22
f 64/170/35 62/175/35 253/176/35 252/171/35
f 120/177/36 121/178/36 185/179/36 184/180/36
f 146/181/30 116/182/30 180/183/30 210/184/30
f 62/185/34 59/186/34 237/187/34 253/188/34
f 108/113/39 107/111/39 171/189/39 172/127/39
f 119/190/35 120/177/35 184/180/35 183/191/35
f 145/192/29 146/181/29 210/184/29 209/193/29
f 99/93/30 98/91/30 162/194/30 163/167/30
f 118/195/34 119/196/34 183/197/34 182/198/34
f 144/199/28 145/192/28 209/193/28 208/200/28
f 90/73/21 89/71/21 153/201/21 154/173/21
f 117/202/33 118/195/33 182/198/33 181/203/33
f 143/204/27 144/199/27 208/200/27 207/205/27
f 107/111/38 106/109/38 170/206/38 171/189/38
f 115/207/32 117/202/32 181/203/32 179/208/32
f 98/91/29 97/89/29 161/209/29 162/194/29
f 56/210/30 54/211/30 251/212/30 238/213/30
f 116/182/31 115/207/31 179/208/31 180/183/31
f 141/214/25 142/215/25 206/216/25 205/217/25
f 89/71/20 88/69/20 152/218/20 153/201/20
f 54/211/29 52/219/29 250/220/29 251/212/29
f 84/58/46 114/129/46 178/221/46 148/222/46
f 140/223/24 141/214/24 205/217/24 204/224/24
f 52/219/28 50/225/28 249/226/28 250/220/28
f 106/109/37 105/107/37 169/227/37 170/206/37
f 39/228/47 122/229/47 186/230/47 262/231/47
f 26/232/12 28/233/12 115/234/12 116/235/12
f 28/233/12 30/236/12 117/237/12 115/234/12
f 30/236/12 32/238/12 118/239/12 117/237/12
f 32/238/12 34/240/12 119/241/12 118/239/12
f 34/240/12 36/242/12 120/243/12 119/241/12
f 36/242/12 121/244/12 120/243/12
f 139/245/23 140/223/23 204/224/23 203/246/23
f 39/247/12 123/248/12 122/249/12
f 39/247/12 42/250/12 124/251/12 123/248/12
f 42/250/12 44/252/12 125/253/12 124/251/12
f 44/252/12 46/254/12 126/255/12 125/253/12
f 46/254/12 48/256/12 127/257/12 126/255/12
f 48/256/12 50/258/12 128/259/12 127/257/12
f 50/258/12 52/260/12 129/261/12 128/259/12
f 52/260/12 54/262/12 130/263/12 129/261/12
f 54/262/12 56/264/12 131/265/12 130/263/12
f 56/264/12 132/266/12 131/265/12
f 97/89/28 96/87/28 160/267/28 161/209/28
f 59/268/12 134/269/12 133/270/12
f 59/268/12 62/271/12 135/272/12 134/269/12
f 62/271/12 64/273/12 136/274/12 135/272/12
f 64/273/12 66/275/12 137/276/12 136/274/12
f 66/275/12 68/277/12 138/278/12 137/276/12
f 68/277/12 70/279/12 139/280/12 138/278/12
f 70/279/12 72/281/12 140/282/12 139/280/12
f 72/281/12 74/283/12 141/284/12 140/282/12
f 74/283/12 142/285/12 141/284/12
f 50/225/27 48/286/27 248/287/27 249/226/27
f 77/288/12 144/289/12 143/290/12
f 77/288/12 80/291/12 145/292/12 144/289/12
f 80/291/12 82/293/12 146/294/12 145/292/12
f 82/293/12 26/232/12 116/235/12 146/294/12
f 221/295/26 220/296/26 273/297/26 274/298/26
f 180/299/12 179/300/12 147/301/12 148/302/12
f 179/300/12 181/303/12 149/304/12 147/301/12
f 181/303/12 182/305/12 150/306/12 149/304/12
f 182/305/12 183/307/12 151/308/12 150/306/12
f 183/307/12 184/309/12 152/310/12 151/308/12
f 184/309/12 185/311/12 153/312/12 152/310/12
f 185/311/12 186/313/12 154/314/12 153/312/12
f 186/313/12 187/315/12 155/316/12 154/314/12
f 187/315/12 188/317/12 156/318/12 155/316/12
f 188/317/12 189/319/12 157/320/12 156/318/12
f 189/319/12 190/321/12 158/322/12 157/320/12
f 190/321/12 191/323/12 159/324/12 158/322/12
f 191/323/12 192/325/12 160/326/12 159/324/12
f 192/325/12 193/327/12 161/328/12 160/326/12
f 193/327/12 194/329/12 162/330/12 161/328/12
f 194/329/12 195/331/12 163/332/12 162/330/12
f 195/331/12 196/333/12 164/334/12 163/332/12
f 196/333/12 197/335/12 165/336/12 164/334/12
f 197/335/12 198/337/12 166/338/12 165/336/12
f 198/337/12 199/339/12 167/340/12 166/338/12
f 199/339/12 200/341/12 168/342/12 167/340/12
f 200/341/12 201/343/12 169/344/12 168/342/12
f 201/343/12 202/345/12 170/346/12 169/344/12
f 202/345/12 203/347/12 171/348/12 170/346/12
f 203/347/12 204/349/12 172/350/12 171/348/12
f 204/349/12 205/351/12 173/352/12 172/350/12
f 205/351/12 206/353/12 174/354/12 173/352/12
f 206/353/12 207/355/12 175/356/12 174/354/12
f 207/355/12 208/357/12 176/358/12 175/356/12
f 208/357/12 209/359/12 177/360/12 176/358/12
f 209/359/12 210/361/12 178/362/12 177/360/12
f 210/361/12 180/299/12 148/302/12 178/362/12
f 244/363/12 262/364/12 186/313/12 185/311/12
f 238/365/12 237/366/12 197/335/12 196/333/12
f 258/367/12 261/368/12 207/355/12 206/353/12
f 68/369/37 66/169/37 254/172/37 255/370/37
f 123/164/39 124/371/39 188/372/39 187/165/39
f 132/373/48 56/374/48 238/375/48 196/376/48
f 70/377/38 68/369/38 255/370/38 256/378/38
f 92/77/23 91/75/23 155/174/23 156/379/23
f 124/371/40 125/380/40 189/381/40 188/372/40
f 59/382/49 133/383/49 197/384/49 237/385/49
f 72/386/39 70/377/39 256/378/39 257/387/39
f 101/97/32 100/95/32 164/168/32 165/388/32
f 83/59/15 84/58/15 148/222/15 147/389/15
f 125/380/41 126/390/41 190/391/41 189/381/41
f 110/117/41 109/115/41 173/128/41 174/392/41
f 74/393/40 72/386/40 257/387/40 258/394/40
f 126/390/42 127/395/42 191/396/42 190/391/42
f 28/397/15 26/398/15 240/399/15 239/400/15
f 93/79/24 92/77/24 156/379/24 157/401/24
f 127/402/43 128/403/43 192/404/43 191/405/43
f 102/99/33 101/97/33 165/388/33 166/406/33
f 30/407/16 28/397/16 239/400/16 241/408/16
f 128/403/44 129/409/44 193/410/44 192/404/44
f 111/119/42 110/117/42 174/392/42 175/411/42
f 32/412/17 30/407/17 241/408/17 242/413/17
f 85/61/16 83/59/16 147/389/16 149/414/16
f 129/409/45 130/415/45 194/416/45 193/410/45
f 80/417/44 77/418/44 261/419/44 260/420/44
f 34/421/18 32/412/18 242/413/18 243/422/18
f 94/81/25 93/79/25 157/401/25 158/423/25
f 130/415/46 131/424/46 195/425/46 194/416/46
f 82/426/45 80/417/45 260/420/45 259/427/45
f 103/101/34 102/99/34 166/406/34 167/428/34
f 36/429/19 34/430/19 243/431/19 244/432/19
f 131/424/15 132/433/15 196/434/15 195/425/15
f 112/123/43 111/122/43 175/435/43 176/436/43
f 26/398/46 82/426/46 259/427/46 240/399/46
f 86/63/17 85/61/17 149/414/17 150/437/17
f 95/83/26 94/81/26 158/423/26 159/438/26
f 133/439/17 134/440/17 198/441/17 197/442/17
f 142/443/50 74/444/50 258/445/50 206/446/50
f 104/105/35 103/104/35 167/447/35 168/448/35
f 134/440/18 135/449/18 199/450/18 198/441/18
f 77/418/51 143/451/51 207/452/51 261/419/51
f 113/125/44 112/123/44 176/436/44 177/453/44
f 42/454/23 39/455/23 262/456/23 246/457/23
f 87/65/18 86/63/18 150/437/18 151/458/18
f 135/459/19 136/460/19 200/461/19 199/462/19
f 44/463/24 42/454/24 246/457/24 245/464/24
f 96/87/27 95/86/27 159/465/27 160/267/27
f 136/460/20 137/466/20 201/467/20 200/461/20
f 105/107/36 104/105/36 168/448/36 169/227/36
f 46/468/25 44/463/25 245/464/25 247/469/25
f 137/466/21 138/470/21 202/471/21 201/467/21
f 114/129/45 113/125/45 177/453/45 178/221/45
f 48/472/26 46/468/26 247/469/26 248/473/26
f 88/69/19 87/68/19 151/474/19 152/218/19
f 138/470/22 139/245/22 203/246/22 202/471/22
f 121/475/52 36/476/52 244/477/52 185/478/52
f 225/479/12 226/480/12 237/366/12 238/365/12
f 212/481/12 211/482/12 239/483/12 240/484/12
f 211/482/12 213/485/12 241/486/12 239/483/12
f 213/485/12 214/487/12 242/488/12 241/486/12
f 214/487/12 215/489/12 243/490/12 242/488/12
f 215/489/12 216/491/12 244/363/12 243/490/12
f 218/492/12 219/493/12 245/494/12 246/495/12
f 219/493/12 220/496/12 247/497/12 245/494/12
f 220/496/12 221/498/12 248/499/12 247/497/12
f 221/498/12 222/500/12 249/501/12 248/499/12
f 222/500/12 223/502/12 250/503/12 249/501/12
f 223/502/12 224/504/12 251/505/12 250/503/12
f 224/504/12 225/479/12 238/365/12 251/505/12
f 227/506/12 228/507/12 252/508/12 253/509/12
f 228/507/12 229/510/12 254/511/12 252/508/12
f 229/510/12 230/512/12 255/513/12 254/511/12
f 230/512/12 231/514/12 256/515/12 255/513/12
f 231/514/12 232/516/12 257/517/12 256/515/12
f 232/516/12 233/518/12 258/367/12 257/517/12
f 226/480/12 227/506/12 253/509/12 237/366/12
f 235/519/12 236/520/12 259/521/12 260/522/12
f 236/520/12 212/481/12 240/484/12 259/521/12
f 233/518/12 234/523/12 261/368/12 258/367/12
f 217/524/12 218/492/12 246/495/12 262/364/12
f 234/523/12 235/519/12 260/522/12 261/368/12
f 216/491/12 217/524/12 262/364/12 244/363/12
f 265/525/12 266/526/12 285/527/12 286/528/12 287/529/12 284/530/12 283/531/12 282/532/12 281/533/12 280/534/12 278/535/12 279/536/12 263/537/12 264/538/12 277/539/12 276/540/12 275/541/12 274/542/12 273/543/12 271/544/12 272/545/12 288/546/12 270/547/12 269/548/12 268/549/12 267/550/12
f 218/551/23 217/552/23 288/553/23 272/554/23
f 211/555/15 212/556/15 266/557/15 265/558/15
f 231/559/38 230/560/38 281/561/38 282/562/38
f 222/563/27 221/564/27 274/565/27 275/566/27
f 235/567/44 234/568/44 287/569/44 286/570/44
f 213/571/16 211/555/16 265/558/16 267/572/16
f 232/573/39 231/559/39 282/562/39 283/574/39
f 223/575/28 222/563/28 275/566/28 276/576/28
f 217/552/21 216/577/21 270/578/21 288/553/21
f 214/579/17 213/571/17 267/572/17 268/580/17
f 233/581/40 232/573/40 283/574/40 284/582/40
f 224/583/29 223/575/29 276/576/29 277/584/29
f 215/585/18 214/579/18 268/580/18 269/586/18
f 227/587/34 226/588/34 263/589/34 279/590/34
f 225/591/30 224/583/30 277/584/30 264/592/30
f 216/577/19 215/593/19 269/594/19 270/578/19
f 236/595/45 235/567/45 286/570/45 285/596/45
f 228/597/35 227/598/35 279/599/35 278/600/35
f 219/601/24 218/551/24 272/554/24 271/602/24
f 212/556/46 236/595/46 285/596/46 266/557/46
f 229/603/36 228/597/36 278/600/36 280/604/36
f 220/296/25 219/601/25 271/602/25 273/297/25
f 234/605/42 233/581/42 284/582/42 287/606/42
f 226/588/32 225/591/32 264/592/32 263/589/32
f 230/560/37 229/603/37 280/604/37 281/561/37
usemtl Material.003
f 289/607/15 290/608/15 292/609/15 291/610/15
f 291/610/16 292/609/16 294/611/16 293/612/16
f 293/612/17 294/611/17 296/613/17 295/614/17
f 295/614/18 296/613/18 298/615/18 297/616/18
f 297/617/19 298/618/19 300/619/19 299/620/19
f 299/620/20 300/619/20 302/621/20 301/622/20
f 301/622/21 302/621/21 304/623/21 303/624/21
f 303/624/22 304/623/22 306/625/22 305/626/22
f 305/626/23 306/625/23 308/627/23 307/628/23
f 307/628/24 308/627/24 310/629/24 309/630/24
f 309/630/25 310/629/25 312/631/25 311/632/25
f 311/632/26 312/631/26 314/633/26 313/634/26
f 313/635/27 314/636/27 316/637/27 315/638/27
f 315/638/28 316/637/28 318/639/28 317/640/28
f 317/640/29 318/639/29 320/641/29 319/642/29
f 319/642/30 320/641/30 322/643/30 321/644/30
f 321/644/31 322/643/31 324/645/31 323/646/31
f 323/646/32 324/645/32 326/647/32 325/648/32
f 325/648/33 326/647/33 328/649/33 327/650/33
f 327/650/34 328/649/34 330/651/34 329/652/34
f 329/653/35 330/654/35 332/655/35 331/656/35
f 331/656/36 332/655/36 334/657/36 333/658/36
f 333/658/37 334/657/37 336/659/37 335/660/37
f 335/660/38 336/659/38 338/661/38 337/662/38
f 337/662/39 338/661/39 340/663/39 339/664/39
f 339/664/40 340/663/40 342/665/40 341/666/40
f 341/666/41 342/665/41 344/667/41 343/668/41
f 343/668/42 344/667/42 346/669/42 345/670/42
f 345/671/43 346/672/43 348/673/43 347/674/43
f 347/674/44 348/673/44 350/675/44 349/676/44
f 349/676/45 350/675/45 352/677/45 351/678/45
f 351/678/46 352/677/46 290/608/46 289/607/46
f 308/679/12 306/680/12 381/681/12 383/682/12
f 306/680/12 304/683/12 363/684/12 381/681/12
f 400/685/31 372/686/31 373/687/31 398/688/31
f 385/689/32 371/690/32 372/686/32 400/685/32
f 387/691/33 377/692/33 371/690/33 385/689/33
f 386/693/34 384/694/34 377/692/34 387/691/34
f 362/695/35 384/696/35 386/697/35 402/698/35
f 364/699/36 362/695/36 402/698/36 401/700/36
f 381/701/38 363/702/38 405/703/38 403/704/38
f 383/705/39 381/701/39 403/704/39 404/706/39
f 382/707/40 383/705/40 404/706/40 389/708/40
f 379/709/41 382/707/41 389/708/41 390/710/41
f 380/711/42 379/709/42 390/710/42 388/712/42
f 360/713/43 380/714/43 388/715/43 406/716/43
f 361/717/44 360/713/44 406/716/44 399/718/44
f 378/719/46 359/720/46 414/721/46 416/722/46
f 376/723/15 378/719/15 416/722/15 415/724/15
f 375/725/16 376/723/16 415/724/16 392/726/16
f 370/727/17 375/725/17 392/726/17 393/728/17
f 374/729/18 370/727/18 393/728/18 391/730/18
f 410/731/19 357/732/19 374/733/19 391/734/19
f 411/735/20 358/736/20 357/732/20 410/731/20
f 407/737/22 365/738/22 356/739/22 408/740/22
f 409/741/23 366/742/23 365/738/23 407/737/23
f 394/743/24 368/744/24 366/742/24 409/741/24
f 396/745/25 367/746/25 368/744/25 394/743/25
f 395/747/26 369/748/26 367/746/26 396/745/26
f 413/749/27 353/750/27 369/751/27 395/752/27
f 412/753/28 355/754/28 353/750/28 413/749/28
f 398/688/30 373/687/30 354/755/30 397/756/30
f 423/758/9 424/761/9 420/762/9 419/759/9
f 308/679/12 383/682/12 382/812/12 310/813/12
f 310/813/12 382/812/12 379/814/12 312/815/12
f 314/816/12 312/815/12 379/814/12 380/817/12
f 314/816/12 380/817/12 360/818/12 316/819/12
f 318/820/12 316/819/12 360/818/12 361/798/12
f 318/820/12 361/798/12 359/797/12 320/821/12
f 322/822/12 320/821/12 359/797/12 378/823/12
f 322/822/12 378/823/12 376/824/12 324/825/12
f 324/825/12 376/824/12 375/826/12 326/827/12
f 326/827/12 375/826/12 370/828/12 328/829/12
f 330/830/12 328/829/12 370/828/12 374/831/12
f 330/830/12 374/831/12 357/832/12 332/833/12
f 334/834/12 332/833/12 357/832/12 358/782/12
f 334/834/12 358/782/12 356/781/12 336/835/12
f 340/836/12 338/837/12 365/838/12 366/839/12
f 338/837/12 336/835/12 356/781/12 365/838/12
f 342/840/12 340/836/12 366/839/12 368/841/12
f 342/840/12 368/841/12 367/842/12 344/843/12
f 346/844/12 344/843/12 367/842/12 369/845/12
f 346/844/12 369/845/12 353/846/12 348/847/12
f 350/848/12 348/847/12 353/846/12 355/802/12
f 350/848/12 355/802/12 354/801/12 352/849/12
f 290/850/12 352/849/12 354/801/12 373/851/12
f 290/850/12 373/851/12 372/852/12 292/853/12
f 292/853/12 372/852/12 371/854/12 294/855/12
f 296/856/12 294/855/12 371/854/12 377/857/12
f 298/858/12 296/856/12 377/857/12 384/859/12
f 298/858/12 384/859/12 362/860/12 300/861/12
f 302/862/12 300/861/12 362/860/12 364/807/12
f 302/862/12 364/807/12 363/684/12 304/683/12
usemtl Material.004
f 414/757/9 423/758/9 419/759/9 399/760/9
f 424/761/9 412/763/9 397/764/9 420/762/9
f 408/765/53 356/766/53 422/767/53 424/768/53
f 364/769/54 401/770/54 420/771/54 418/772/54
f 363/773/55 417/774/55 419/775/55 405/776/55
f 414/777/37 359/778/37 421/779/37 423/780/37
f 356/781/12 358/782/12 421/783/12 422/784/12
f 424/785/37 422/786/37 355/787/37 412/788/37
f 411/789/56 423/790/56 421/791/56 358/792/56
f 408/793/9 424/761/9 423/758/9 411/794/9
f 401/795/9 405/796/9 419/759/9 420/762/9
f 359/797/12 361/798/12 417/799/12 421/783/12
f 421/783/12 417/799/12 418/800/12 422/784/12
f 422/784/12 418/800/12 354/801/12 355/802/12
f 399/803/21 419/804/21 417/805/21 361/806/21
f 364/807/12 418/800/12 417/799/12 363/684/12
f 420/808/21 397/809/21 354/810/21 418/811/21
