# Blender 4.5.1 LTS
# www.blender.org
mtllib computer.mtl
o Cube.002
v -0.400618 -0.419660 0.312233
v -0.399156 0.165966 0.375066
v -0.400618 -0.419660 -0.312233
v -0.286233 0.089497 -0.375066
v 0.400618 -0.419660 0.312233
v 0.399156 0.165966 0.375066
v 0.400618 -0.419660 -0.312233
v 0.286233 0.089497 -0.375066
v -0.286233 -0.266580 -0.375066
v -0.399156 -0.343050 0.375066
v 0.286233 -0.266580 -0.375066
v 0.399156 -0.343050 0.375066
v -0.400618 -0.523686 0.312233
v -0.400618 -0.523686 -0.312233
v 0.400618 -0.523686 0.312233
v 0.400618 -0.523686 -0.312233
v -0.400618 -1.097556 0.312233
v -0.400618 -1.097556 -0.312233
v 0.400618 -1.097556 0.312233
v 0.400618 -1.097556 -0.312233
v -0.399326 -0.790721 0.862953
v 0.397999 -0.792152 0.862953
v -0.399326 -1.098718 0.858662
v 0.397999 -1.100148 0.858662
v -0.400618 -0.570123 0.385851
v 0.400618 -0.570123 0.385851
v -0.400618 -1.099366 0.385851
v 0.400618 -1.099366 0.385851
v -0.399335 -0.795697 1.003413
v 0.397990 -0.797127 1.003413
v -0.399335 -1.096827 0.999122
v 0.397990 -1.098258 0.999122
v -0.555037 -0.523687 -0.312067
v -0.555037 -0.523687 0.312399
v -0.555037 -1.097556 -0.312067
v -0.555037 -1.097556 0.312399
v -0.555037 -1.099367 0.386017
v -0.555037 -0.570124 0.386017
v -0.553935 -1.098718 0.858828
v -0.553935 -0.790722 0.863119
v -0.553942 -1.096828 0.999288
v -0.553942 -0.795698 1.003579
v 0.554959 -0.523688 0.312581
v 0.554959 -0.523688 -0.311885
v 0.554959 -1.097558 0.312581
v 0.554959 -1.097558 -0.311885
v 0.554959 -1.099368 0.386199
v 0.554959 -0.570125 0.386199
v 0.552724 -1.100150 0.859010
v 0.552724 -0.792153 0.863301
v 0.552716 -1.098259 0.999470
v 0.552716 -0.797129 1.003762
v -0.130122 -0.007605 -0.667932
v -0.130122 -0.169478 -0.667932
v 0.130122 -0.169478 -0.667932
v 0.130122 -0.007605 -0.667932
v -0.399156 -0.343050 0.348546
v -0.399156 0.165966 0.348546
v 0.399156 0.165966 0.348546
v 0.399156 -0.343050 0.348546
v -0.400680 -0.639248 0.353786
v 0.400556 -0.639248 0.353786
v -0.399388 -0.859845 0.830888
v 0.397937 -0.861276 0.830888
v -0.327840 -0.639248 0.353786
v -0.255001 -0.639248 0.353786
v -0.182161 -0.639248 0.353786
v -0.109321 -0.639248 0.353786
v -0.036482 -0.639248 0.353786
v 0.036358 -0.639248 0.353786
v 0.109198 -0.639248 0.353786
v 0.182037 -0.639248 0.353786
v 0.254877 -0.639248 0.353786
v 0.327717 -0.639248 0.353786
v -0.326903 -0.859975 0.830888
v -0.254419 -0.860105 0.830888
v -0.181935 -0.860235 0.830888
v -0.109451 -0.860365 0.830888
v -0.036967 -0.860495 0.830888
v 0.035517 -0.860625 0.830888
v 0.108001 -0.860755 0.830888
v 0.180485 -0.860886 0.830888
v 0.252969 -0.861015 0.830888
v 0.325453 -0.861145 0.830888
v -0.400563 -0.659302 0.397159
v -0.400445 -0.679356 0.440532
v -0.400328 -0.699410 0.483905
v -0.400210 -0.719465 0.527278
v -0.400093 -0.739519 0.570651
v -0.399975 -0.759574 0.614023
v -0.399858 -0.779628 0.657396
v -0.399740 -0.799682 0.700769
v -0.399623 -0.819737 0.744142
v -0.399505 -0.839791 0.787515
v 0.398175 -0.841091 0.787515
v 0.398413 -0.820907 0.744142
v 0.398651 -0.800722 0.700769
v 0.398889 -0.780538 0.657396
v 0.399128 -0.760354 0.614024
v 0.399366 -0.740169 0.570651
v 0.399604 -0.719985 0.527278
v 0.399842 -0.699801 0.483905
v 0.400080 -0.679616 0.440532
v 0.400318 -0.659432 0.397159
v -0.354688 -0.839909 0.803946
v -0.354773 -0.819843 0.744142
v -0.354859 -0.799777 0.717201
v -0.354944 -0.779711 0.657396
v -0.355029 -0.759644 0.630455
v -0.355114 -0.739578 0.570651
v -0.355199 -0.719512 0.543709
v -0.355284 -0.699446 0.483905
v -0.355370 -0.679380 0.456963
v -0.355455 -0.659314 0.397159
v -0.253789 -0.840027 0.803946
v -0.253842 -0.819949 0.744142
v -0.253895 -0.799871 0.717201
v -0.253948 -0.779793 0.657396
v -0.254000 -0.759715 0.630455
v -0.254053 -0.739637 0.570651
v -0.254106 -0.719559 0.543709
v -0.254159 -0.699481 0.483905
v -0.254212 -0.679403 0.456963
v -0.254265 -0.659325 0.397159
v -0.209656 -0.840146 0.803946
v -0.209676 -0.820056 0.744142
v -0.209697 -0.799966 0.717201
v -0.209717 -0.779876 0.657396
v -0.209738 -0.759786 0.630455
v -0.209758 -0.739697 0.570651
v -0.209779 -0.719607 0.543709
v -0.209799 -0.699517 0.483905
v -0.209820 -0.679427 0.456963
v -0.209840 -0.659337 0.397159
v -0.108756 -0.840264 0.803946
v -0.108744 -0.820162 0.744142
v -0.108733 -0.800061 0.717201
v -0.108721 -0.779959 0.657396
v -0.108709 -0.759857 0.630455
v -0.108697 -0.739756 0.570651
v -0.108685 -0.719654 0.543709
v -0.108674 -0.699552 0.483905
v -0.108662 -0.679451 0.456963
v -0.108650 -0.659349 0.397159
v -0.064623 -0.840382 0.803946
v -0.064579 -0.820269 0.744142
v -0.064534 -0.800155 0.717201
v -0.064490 -0.780042 0.657396
v -0.064446 -0.759928 0.630455
v -0.064402 -0.739815 0.570651
v -0.064358 -0.719701 0.543709
v -0.064314 -0.699588 0.483905
v -0.064270 -0.679474 0.456963
v -0.064225 -0.659361 0.397159
v 0.036277 -0.840500 0.803946
v 0.036353 -0.820375 0.744142
v 0.036429 -0.800250 0.717201
v 0.036506 -0.780124 0.657396
v 0.036582 -0.759999 0.630455
v 0.036659 -0.739874 0.570651
v 0.036735 -0.719749 0.543709
v 0.036812 -0.699623 0.483905
v 0.036888 -0.679498 0.456963
v 0.036965 -0.659373 0.397159
v 0.080410 -0.840618 0.803946
v 0.080519 -0.820481 0.744142
v 0.080628 -0.800344 0.717201
v 0.080736 -0.780207 0.657396
v 0.080845 -0.760070 0.630455
v 0.080954 -0.739933 0.570651
v 0.081063 -0.719796 0.543709
v 0.081172 -0.699659 0.483905
v 0.081280 -0.679522 0.456963
v 0.081389 -0.659385 0.397159
v 0.181309 -0.840737 0.803946
v 0.181450 -0.820588 0.744142
v 0.181592 -0.800439 0.717201
v 0.181733 -0.780290 0.657396
v 0.181874 -0.760141 0.630455
v 0.182015 -0.739992 0.570651
v 0.182156 -0.719843 0.543709
v 0.182297 -0.699694 0.483905
v 0.182438 -0.679545 0.456963
v 0.182580 -0.659396 0.397159
v 0.225443 -0.840855 0.803946
v 0.225616 -0.820694 0.744142
v 0.225790 -0.800533 0.717201
v 0.225963 -0.780373 0.657396
v 0.226137 -0.760212 0.630455
v 0.226310 -0.740051 0.570651
v 0.226484 -0.719890 0.543709
v 0.226657 -0.699730 0.483905
v 0.226831 -0.679569 0.456963
v 0.227004 -0.659408 0.397159
v 0.326342 -0.840973 0.803946
v 0.326548 -0.820800 0.744142
v 0.326754 -0.800628 0.717201
v 0.326959 -0.780455 0.657396
v 0.327165 -0.760283 0.630455
v 0.327371 -0.740110 0.570651
v 0.327577 -0.719938 0.543709
v 0.327783 -0.699765 0.483905
v 0.327988 -0.679593 0.456963
v 0.328194 -0.659420 0.397159
v -0.354646 -0.792223 0.826067
v -0.354731 -0.772156 0.766263
v -0.354816 -0.752090 0.739321
v -0.354901 -0.732024 0.679517
v -0.354986 -0.711958 0.652575
v -0.355071 -0.691892 0.592771
v -0.355157 -0.671826 0.565829
v -0.355242 -0.651760 0.506025
v -0.355327 -0.631693 0.479083
v -0.355412 -0.611627 0.419279
v -0.253746 -0.792341 0.826067
v -0.253799 -0.772263 0.766263
v -0.253852 -0.752185 0.739321
v -0.253905 -0.732107 0.679517
v -0.253958 -0.712029 0.652575
v -0.254010 -0.691951 0.592771
v -0.254063 -0.671873 0.565829
v -0.254116 -0.651795 0.506025
v -0.254169 -0.631717 0.479083
v -0.254222 -0.611639 0.419279
v -0.209613 -0.792459 0.826067
v -0.209633 -0.772369 0.766263
v -0.209654 -0.752280 0.739321
v -0.209674 -0.732190 0.679517
v -0.209695 -0.712100 0.652575
v -0.209715 -0.692010 0.592771
v -0.209736 -0.671920 0.565829
v -0.209756 -0.651830 0.506025
v -0.209777 -0.631741 0.479083
v -0.209797 -0.611651 0.419279
v -0.108714 -0.792577 0.826067
v -0.108702 -0.772476 0.766263
v -0.108690 -0.752374 0.739321
v -0.108678 -0.732272 0.679517
v -0.108666 -0.712171 0.652575
v -0.108654 -0.692069 0.592771
v -0.108643 -0.671968 0.565829
v -0.108631 -0.651866 0.506025
v -0.108619 -0.631764 0.479083
v -0.108607 -0.611663 0.419279
v -0.064580 -0.792696 0.826067
v -0.064536 -0.772582 0.766263
v -0.064492 -0.752469 0.739321
v -0.064448 -0.732355 0.679517
v -0.064403 -0.712242 0.652575
v -0.064359 -0.692128 0.592771
v -0.064315 -0.672015 0.565829
v -0.064271 -0.651901 0.506025
v -0.064227 -0.631788 0.479083
v -0.064183 -0.611674 0.419279
v 0.036319 -0.792814 0.826067
v 0.036396 -0.772688 0.766263
v 0.036472 -0.752563 0.739321
v 0.036549 -0.732438 0.679517
v 0.036625 -0.712313 0.652575
v 0.036702 -0.692187 0.592771
v 0.036778 -0.672062 0.565829
v 0.036855 -0.651937 0.506025
v 0.036931 -0.631812 0.479083
v 0.037008 -0.611686 0.419279
v 0.080453 -0.792932 0.826067
v 0.080561 -0.772795 0.766263
v 0.080670 -0.752658 0.739321
v 0.080779 -0.732521 0.679517
v 0.080888 -0.712384 0.652575
v 0.080997 -0.692246 0.592771
v 0.081106 -0.672109 0.565829
v 0.081214 -0.651972 0.506025
v 0.081323 -0.631835 0.479083
v 0.081432 -0.611698 0.419279
v 0.181352 -0.793050 0.826067
v 0.181493 -0.772901 0.766263
v 0.181634 -0.752752 0.739321
v 0.181775 -0.732603 0.679517
v 0.181917 -0.712454 0.652575
v 0.182058 -0.692306 0.592771
v 0.182199 -0.672157 0.565829
v 0.182340 -0.652008 0.506025
v 0.182481 -0.631859 0.479083
v 0.182622 -0.611710 0.419279
v 0.225485 -0.793168 0.826067
v 0.225659 -0.773008 0.766263
v 0.225832 -0.752847 0.739321
v 0.226006 -0.732686 0.679517
v 0.226179 -0.712525 0.652575
v 0.226353 -0.692365 0.592771
v 0.226526 -0.672204 0.565829
v 0.226700 -0.652043 0.506025
v 0.226873 -0.631882 0.479083
v 0.227047 -0.611722 0.419279
v 0.326385 -0.793286 0.826067
v 0.326590 -0.773114 0.766263
v 0.326796 -0.752941 0.739321
v 0.327002 -0.732769 0.679517
v 0.327208 -0.712596 0.652575
v 0.327414 -0.692424 0.592771
v 0.327619 -0.672251 0.565829
v 0.327825 -0.652079 0.506025
v 0.328031 -0.631906 0.479083
v 0.328237 -0.611734 0.419279
v -0.447678 0.242577 -0.335460
v -0.447186 0.205574 -0.375066
v -0.498495 0.203386 -0.335460
v -0.498495 -0.380469 -0.335460
v -0.447273 -0.419660 -0.375066
v 0.498495 -0.380469 -0.335460
v 0.447273 -0.419660 -0.375066
v 0.447678 0.242577 -0.335460
v 0.498495 0.203386 -0.335460
v 0.447186 0.205574 -0.375066
v -0.447327 -0.419660 0.375066
v -0.498495 -0.380469 0.335460
v -0.447353 0.203136 0.375066
v -0.447678 0.242577 0.335460
v -0.498495 0.203386 0.335460
v 0.447678 0.242577 0.335460
v 0.447353 0.203136 0.375066
v 0.498495 0.203386 0.335460
v 0.498495 -0.380469 0.335460
v 0.447327 -0.419660 0.375066
vn 0.8825 -0.0000 -0.4704
vn -0.0000 -1.0000 -0.0000
vn -0.0000 -0.0000 1.0000
vn -0.0000 -0.0000 -1.0000
vn 0.0008 -0.0000 -1.0000
vn -0.0004 -0.0000 -1.0000
vn 1.0000 -0.0000 -0.0000
vn -1.0000 -0.0000 -0.0000
vn 0.0011 -0.0000 -1.0000
vn -0.0005 -0.0000 -1.0000
vn -0.0009 -0.9999 0.0135
vn -0.0000 -0.9999 0.0135
vn 0.0004 0.9077 0.4197
vn 0.0003 0.8458 0.5335
vn 0.0006 0.8458 0.5335
vn -0.0000 -0.9997 -0.0246
vn 0.0023 -0.0000 -1.0000
vn -0.0006 0.8458 0.5335
vn -1.0000 0.0028 -0.0042
vn -0.0005 -1.0000 -0.0009
vn -0.0007 -1.0000 0.0070
vn -0.0004 -1.0000 0.0006
vn -0.0000 -1.0000 0.0074
vn -0.0000 -1.0000 0.0014
vn -0.0011 -0.0142 0.9999
vn -0.0023 -0.0142 0.9999
vn 0.0005 -0.0142 0.9999
vn 0.0009 0.9994 0.0354
vn -0.0001 0.9994 0.0354
vn -1.0000 -0.0000 0.0002
vn -1.0000 -0.0000 0.0011
vn -1.0000 -0.0000 -0.0001
vn -1.0000 -0.0000 0.0012
vn -1.0000 -0.0000 0.0020
vn -0.0011 -0.0000 -1.0000
vn -0.0000 0.9994 0.0354
vn -0.0000 1.0000 -0.0000
vn 0.0011 -0.0142 0.9999
vn 1.0000 -0.0000 0.0040
vn 1.0000 -0.0000 0.0024
vn 1.0000 -0.0000 0.0004
vn 1.0000 -0.0000 0.0001
vn -0.0009 0.9066 0.4219
vn -0.0012 0.8458 0.5335
vn -0.0000 -1.0000 -0.0017
vn -0.0000 -0.9492 -0.3147
vn -0.0000 0.9492 -0.3147
vn -0.8825 -0.0000 -0.4704
vn 0.0001 0.9067 0.4217
vn 0.0001 0.9067 0.4218
vn -0.0000 -0.4208 0.9072
vn 1.0000 0.0003 -0.0026
vn 0.0008 0.4208 -0.9072
vn 0.0001 0.9076 0.4198
vn 0.0001 0.9076 0.4199
vn 0.0001 0.9075 0.4201
vn 0.0001 0.9074 0.4203
vn 0.0001 0.9073 0.4205
vn 0.0001 0.9072 0.4207
vn 0.0001 0.9071 0.4209
vn 0.0001 0.9070 0.4211
vn 0.0001 0.9070 0.4212
vn 0.0001 0.9069 0.4213
vn 0.0001 0.9068 0.4215
vn 0.0001 0.9068 0.4216
vn -0.0704 0.8541 0.5153
vn -0.0640 0.9301 0.3618
vn -0.0885 0.8650 0.4938
vn -0.0644 0.9300 0.3618
vn -0.0888 0.8650 0.4938
vn -0.0648 0.9300 0.3618
vn -0.0891 0.8650 0.4938
vn -0.0651 0.9300 0.3618
vn -0.0895 0.8650 0.4938
vn -0.0655 0.9300 0.3617
vn 0.0011 0.8022 0.5971
vn 0.0014 0.8022 0.5971
vn -0.0000 0.4208 -0.9072
vn 0.0008 0.8019 0.5974
vn 0.0013 0.8018 0.5976
vn -1.0000 0.0011 -0.0004
vn 0.0006 0.8019 0.5974
vn 0.0010 0.8018 0.5976
vn -0.0001 -0.4208 0.9072
vn 0.0004 0.8019 0.5974
vn 0.0007 0.8018 0.5976
vn 1.0000 -0.0022 0.0027
vn 0.0002 0.8019 0.5974
vn 0.0004 0.8018 0.5976
vn -1.0000 0.0002 0.0015
vn 0.0016 0.8021 0.5972
vn 0.0013 0.8019 0.5974
vn 0.0024 0.9480 0.3184
vn 0.0013 0.8017 0.5978
vn 0.0019 0.9480 0.3184
vn 0.0010 0.8017 0.5978
vn 0.0014 0.9480 0.3184
vn 0.0007 0.8017 0.5978
vn 0.0009 0.9480 0.3184
vn 0.0004 0.8017 0.5978
vn 0.0004 0.9480 0.3184
vn 0.0014 0.8018 0.5975
vn 0.0001 0.4208 -0.9072
vn 0.0013 0.8015 0.5980
vn 0.0010 0.8015 0.5980
vn -0.0002 -0.4208 0.9072
vn 0.0007 0.8015 0.5980
vn 0.0004 0.8015 0.5980
vn 0.0002 0.4208 -0.9072
vn 0.0013 0.8016 0.5978
vn 0.0015 0.8017 0.5977
vn 0.0024 0.9479 0.3187
vn 0.0013 0.8013 0.5982
vn 0.0019 0.9479 0.3187
vn 0.0010 0.8013 0.5982
vn 0.0014 0.9479 0.3187
vn 0.0007 0.8013 0.5982
vn 0.0009 0.9479 0.3187
vn 0.0004 0.8013 0.5982
vn 0.0004 0.9479 0.3187
vn 0.0014 0.8015 0.5980
vn 0.0013 0.8012 0.5985
vn -0.0003 -0.4208 0.9072
vn 0.0010 0.8012 0.5985
vn 0.0007 0.8012 0.5985
vn 0.0003 0.4208 -0.9072
vn 0.0004 0.8012 0.5985
vn 0.0016 0.8014 0.5981
vn 0.0012 0.8012 0.5984
vn 0.0024 0.9477 0.3190
vn 0.0013 0.8010 0.5987
vn 0.0019 0.9477 0.3190
vn 0.0010 0.8010 0.5987
vn 0.0014 0.9477 0.3190
vn 0.0007 0.8010 0.5987
vn 0.0009 0.9477 0.3190
vn 0.0004 0.8010 0.5987
vn 0.0004 0.9477 0.3190
vn 0.0014 0.8012 0.5985
vn -0.0004 -0.4208 0.9072
vn 0.0013 0.8008 0.5989
vn 0.0004 0.4208 -0.9072
vn 0.0010 0.8008 0.5989
vn -1.0000 0.0019 -0.0022
vn 0.0007 0.8008 0.5989
vn 0.0004 0.8008 0.5989
vn 0.0016 0.8011 0.5985
vn 0.0012 0.8009 0.5988
vn 0.0024 0.9476 0.3194
vn 0.0013 0.8006 0.5991
vn 0.0019 0.9476 0.3194
vn 0.0010 0.8006 0.5991
vn 0.0014 0.9476 0.3194
vn 0.0007 0.8006 0.5991
vn 0.0009 0.9476 0.3194
vn 0.0004 0.8006 0.5991
vn 0.0004 0.9476 0.3194
vn 0.0011 0.8008 0.5989
vn -0.0005 -0.4208 0.9072
vn 0.0008 0.8006 0.5992
vn 0.0006 0.8006 0.5992
vn 0.0004 0.8006 0.5992
vn 0.0002 0.8006 0.5992
vn 0.0581 0.8654 0.4976
vn 0.0431 0.9304 0.3641
vn 0.0580 0.8657 0.4972
vn 0.0427 0.9304 0.3641
vn 0.0577 0.8657 0.4972
vn 0.0424 0.9304 0.3641
vn 0.0574 0.8657 0.4972
vn 0.0421 0.9304 0.3641
vn 0.0570 0.8657 0.4972
vn 0.0417 0.9304 0.3641
vn 0.0011 0.9480 0.3182
vn 0.0008 0.9480 0.3182
vn 0.0006 0.9480 0.3182
vn 0.0004 0.9480 0.3182
vn 0.0002 0.9480 0.3182
vn 0.0011 0.9479 0.3185
vn 0.0008 0.9479 0.3185
vn 0.0006 0.9479 0.3185
vn 0.0004 0.9479 0.3185
vn 0.0002 0.9479 0.3185
vn 0.0011 0.9478 0.3189
vn 0.0008 0.9478 0.3189
vn 0.0006 0.9478 0.3189
vn 0.0004 0.9478 0.3189
vn 0.0002 0.9478 0.3189
vn 0.0011 0.9477 0.3192
vn 0.0008 0.9477 0.3192
vn 0.0006 0.9477 0.3192
vn 0.0004 0.9477 0.3192
vn 0.0002 0.9477 0.3192
vn 0.0011 0.9476 0.3195
vn 0.0008 0.9476 0.3195
vn 0.0006 0.9476 0.3195
vn 0.0004 0.9476 0.3195
vn 0.0002 0.9476 0.3195
vn 1.0000 -0.0013 0.0008
vn 1.0000 -0.0004 -0.0010
vn -1.0000 0.0015 -0.0013
vn -1.0000 0.0006 0.0006
vn 1.0000 -0.0017 0.0018
vn 1.0000 -0.0009 -0.0001
vn -0.4892 0.6343 -0.5987
vn 0.4892 0.6343 -0.5987
vn -0.4784 0.6203 0.6216
vn 0.4784 0.6203 0.6216
vn -0.6079 -0.7941 -0.0000
vn -0.6122 -0.0000 0.7907
vn -0.6107 0.7919 -0.0000
vn -0.6114 -0.0000 -0.7914
vn -0.0000 0.7307 -0.6827
vn 0.6114 -0.0000 -0.7914
vn 0.6079 -0.7941 -0.0000
vn 0.6107 0.7919 -0.0000
vn 0.6122 -0.0000 0.7907
vn -0.0000 0.7086 0.7056
vt 0.720981 0.198064
vt 0.720981 0.268243
vt 0.663613 0.249122
vt 0.663613 0.217218
vt 0.786169 0.138599
vt 0.786169 0.017260
vt 0.791340 0.017260
vt 0.791340 0.138600
vt 0.368498 0.741920
vt 0.368498 0.620136
vt 0.387946 0.620138
vt 0.387946 0.741922
vt 0.243989 0.017260
vt 0.243989 0.139021
vt 0.220518 0.139054
vt 0.220518 0.017293
vt 0.550538 0.331899
vt 0.550538 0.453684
vt 0.531082 0.453686
vt 0.531082 0.331901
vt 0.389001 0.307543
vt 0.389001 0.429321
vt 0.368498 0.429321
vt 0.368498 0.307543
vt 0.389001 0.463840
vt 0.389001 0.585616
vt 0.368498 0.585616
vt 0.368498 0.463840
vt 0.365774 0.017260
vt 0.365774 0.139021
vt 0.423752 0.453697
vt 0.423752 0.331912
vt 0.365374 0.272956
vt 0.365375 0.245576
vt 0.388893 0.245644
vt 0.388892 0.273024
vt 0.162447 0.250638
vt 0.162528 0.148338
vt 0.185999 0.148348
vt 0.185947 0.250648
vt 0.162502 0.131718
vt 0.185973 0.131728
vt 0.365774 0.153382
vt 0.243989 0.153382
vt 0.531103 0.477145
vt 0.423773 0.477156
vt 0.040719 0.131823
vt 0.040744 0.148443
vt 0.146942 0.786458
vt 0.146942 0.683638
vt 0.161932 0.683778
vt 0.161932 0.693125
vt 0.161932 0.702472
vt 0.161932 0.711820
vt 0.161932 0.721167
vt 0.161932 0.730514
vt 0.161932 0.739861
vt 0.161932 0.749209
vt 0.161932 0.758556
vt 0.161932 0.767903
vt 0.161932 0.777251
vt 0.161932 0.786598
vt 0.244186 0.245571
vt 0.220686 0.245603
vt 0.220518 0.153415
vt 0.736073 0.453120
vt 0.792636 0.453222
vt 0.792574 0.476740
vt 0.736012 0.476638
vt 0.736012 0.331930
vt 0.792574 0.332032
vt 0.041259 0.250840
vt 0.162446 0.276718
vt 0.041258 0.276919
vt 0.017740 0.277004
vt 0.017742 0.250924
vt 0.244184 0.272951
vt 0.333979 0.442328
vt 0.333978 0.564104
vt 0.220874 0.564104
vt 0.220875 0.442328
vt 0.281350 0.334934
vt 0.220647 0.335771
vt 0.221020 0.308380
vt 0.280369 0.307543
vt 0.220518 0.427971
vt 0.324827 0.427971
vt 0.423762 0.308441
vt 0.531092 0.308430
vt 0.220685 0.272983
vt 0.185946 0.276728
vt 0.162528 0.017260
vt 0.185999 0.017270
vt 0.736041 0.308430
vt 0.792604 0.308532
vt 0.536985 0.017260
vt 0.537189 0.139037
vt 0.424085 0.139227
vt 0.423881 0.017450
vt 0.528060 0.153408
vt 0.423752 0.153584
vt 0.484456 0.246518
vt 0.423752 0.245784
vt 0.483522 0.273911
vt 0.424170 0.273174
vt 0.389233 0.139089
vt 0.389233 0.153450
vt 0.017285 0.148528
vt 0.040744 0.017365
vt 0.017260 0.131908
vt 0.017285 0.017450
vt 0.389233 0.017328
vt 0.463443 0.697736
vt 0.493718 0.697732
vt 0.493718 0.737288
vt 0.463443 0.737291
vt 0.584565 0.779490
vt 0.584565 0.692478
vt 0.642044 0.716202
vt 0.642044 0.755758
vt 0.676564 0.779490
vt 0.676564 0.692478
vt 0.723705 0.716318
vt 0.723705 0.755874
vt 0.571708 0.268243
vt 0.571708 0.198064
vt 0.629094 0.217186
vt 0.629094 0.249090
vt 0.112423 0.804988
vt 0.017260 0.804978
vt 0.017260 0.683638
vt 0.112423 0.683648
vt 0.423752 0.798054
vt 0.423752 0.697732
vt 0.428924 0.697733
vt 0.428924 0.798054
vt 0.799024 0.633014
vt 0.799024 0.511675
vt 0.803885 0.511680
vt 0.803885 0.633020
vt 0.791341 0.173573
vt 0.791341 0.273895
vt 0.786169 0.273895
vt 0.786169 0.173573
vt 0.313607 0.609624
vt 0.313606 0.598662
vt 0.322915 0.598623
vt 0.322915 0.609694
vt 0.736747 0.139054
vt 0.736747 0.017270
vt 0.751650 0.017260
vt 0.751650 0.028331
vt 0.751650 0.039402
vt 0.751650 0.050474
vt 0.751650 0.061545
vt 0.751650 0.072616
vt 0.751650 0.083688
vt 0.751650 0.094759
vt 0.751650 0.105830
vt 0.751650 0.116901
vt 0.751650 0.127973
vt 0.751650 0.139044
vt 0.773214 0.692478
vt 0.773214 0.795177
vt 0.758225 0.795280
vt 0.758225 0.785943
vt 0.758225 0.776607
vt 0.758225 0.767271
vt 0.758225 0.757934
vt 0.758225 0.748598
vt 0.758225 0.739262
vt 0.758225 0.729926
vt 0.758225 0.720589
vt 0.758225 0.711253
vt 0.758225 0.701917
vt 0.758225 0.692580
vt 0.764505 0.511675
vt 0.764505 0.632865
vt 0.749604 0.632888
vt 0.749604 0.621871
vt 0.749604 0.610853
vt 0.749604 0.599836
vt 0.749604 0.588819
vt 0.749604 0.577802
vt 0.749604 0.566784
vt 0.749604 0.555767
vt 0.749604 0.544750
vt 0.749604 0.533733
vt 0.749604 0.522715
vt 0.749604 0.511698
vt 0.313615 0.720392
vt 0.313614 0.713535
vt 0.322915 0.709336
vt 0.322915 0.720407
vt 0.313613 0.698155
vt 0.322915 0.698265
vt 0.313612 0.691403
vt 0.322915 0.687193
vt 0.313611 0.676022
vt 0.322915 0.676122
vt 0.313611 0.669270
vt 0.322915 0.665051
vt 0.313610 0.653890
vt 0.322915 0.653979
vt 0.313609 0.647138
vt 0.322915 0.642908
vt 0.313608 0.631757
vt 0.322915 0.631837
vt 0.313607 0.625005
vt 0.322915 0.620766
vt 0.220614 0.720238
vt 0.220606 0.709221
vt 0.226895 0.713438
vt 0.229914 0.720253
vt 0.239207 0.713452
vt 0.239214 0.720269
vt 0.245496 0.713459
vt 0.248515 0.720284
vt 0.257809 0.713473
vt 0.257815 0.720299
vt 0.264098 0.713480
vt 0.267115 0.720315
vt 0.276411 0.713494
vt 0.276415 0.720330
vt 0.282700 0.713501
vt 0.285715 0.720345
vt 0.295012 0.713515
vt 0.295015 0.720361
vt 0.301301 0.713522
vt 0.304315 0.720376
vt 0.220597 0.698204
vt 0.226887 0.698102
vt 0.368498 0.841727
vt 0.368498 0.826346
vt 0.378778 0.826351
vt 0.378778 0.841732
vt 0.239200 0.698111
vt 0.245490 0.698113
vt 0.768511 0.929575
vt 0.768511 0.941892
vt 0.758225 0.942952
vt 0.758225 0.930634
vt 0.257803 0.698122
vt 0.264093 0.698124
vt 0.027540 0.839507
vt 0.027540 0.854883
vt 0.017260 0.854887
vt 0.017260 0.839511
vt 0.276407 0.698133
vt 0.282697 0.698135
vt 0.631404 0.973992
vt 0.631404 0.961671
vt 0.641692 0.962721
vt 0.641692 0.975043
vt 0.295010 0.698144
vt 0.301300 0.698146
vt 0.927039 0.408172
vt 0.927039 0.420486
vt 0.916753 0.421553
vt 0.916753 0.409238
vt 0.220588 0.687186
vt 0.226879 0.691394
vt 0.239193 0.691398
vt 0.245484 0.691395
vt 0.257798 0.691399
vt 0.264089 0.691396
vt 0.276403 0.691400
vt 0.282693 0.691398
vt 0.295007 0.691402
vt 0.301298 0.691399
vt 0.220579 0.676169
vt 0.226871 0.676058
vt 0.854567 0.707848
vt 0.854567 0.692478
vt 0.864846 0.692480
vt 0.864846 0.707851
vt 0.239186 0.676057
vt 0.245477 0.676049
vt 0.428924 0.932343
vt 0.428924 0.944661
vt 0.418637 0.945720
vt 0.418637 0.933402
vt 0.257792 0.676048
vt 0.264084 0.676041
vt 0.864854 0.742378
vt 0.864854 0.757744
vt 0.854573 0.757745
vt 0.854573 0.742379
vt 0.276399 0.676040
vt 0.282690 0.676032
vt 0.146942 0.981092
vt 0.146942 0.968771
vt 0.157230 0.969821
vt 0.157230 0.982143
vt 0.295005 0.676031
vt 0.301297 0.676023
vt 0.584565 0.879250
vt 0.584565 0.863890
vt 0.594844 0.863889
vt 0.594844 0.879250
vt 0.220571 0.665152
vt 0.226863 0.669350
vt 0.239179 0.669344
vt 0.245471 0.669331
vt 0.257787 0.669325
vt 0.264079 0.669313
vt 0.276395 0.669307
vt 0.282687 0.669295
vt 0.295003 0.669289
vt 0.301295 0.669276
vt 0.220562 0.654135
vt 0.226855 0.654014
vt 0.378785 0.926125
vt 0.378785 0.938443
vt 0.368498 0.939502
vt 0.368498 0.927185
vt 0.239172 0.654003
vt 0.245465 0.653986
vt 0.882234 0.458103
vt 0.882234 0.473459
vt 0.871954 0.473457
vt 0.871954 0.458101
vt 0.257781 0.653975
vt 0.264074 0.653957
vt 0.463443 0.981690
vt 0.463443 0.969369
vt 0.473731 0.970419
vt 0.473731 0.982740
vt 0.276391 0.653946
vt 0.282684 0.653929
vt 0.883205 0.527030
vt 0.883205 0.511679
vt 0.893484 0.511675
vt 0.893484 0.527026
vt 0.295000 0.653918
vt 0.301293 0.653901
vt 0.952419 0.892053
vt 0.952419 0.904371
vt 0.942132 0.905431
vt 0.942132 0.893113
vt 0.220553 0.643118
vt 0.226847 0.647306
vt 0.239164 0.647290
vt 0.245458 0.647268
vt 0.257776 0.647252
vt 0.264069 0.647229
vt 0.276387 0.647214
vt 0.282681 0.647191
vt 0.294998 0.647176
vt 0.301292 0.647153
vt 0.220544 0.632101
vt 0.226839 0.631970
vt 0.428924 0.882478
vt 0.428924 0.897824
vt 0.418643 0.897819
vt 0.418643 0.882473
vt 0.239157 0.631949
vt 0.245452 0.631922
vt 0.897331 0.857509
vt 0.897331 0.842168
vt 0.907611 0.842161
vt 0.907611 0.857502
vt 0.257770 0.631901
vt 0.264065 0.631874
vt 0.972589 0.173567
vt 0.972589 0.185888
vt 0.962302 0.186940
vt 0.962302 0.174619
vt 0.276383 0.631853
vt 0.282677 0.631826
vt 0.827155 0.373671
vt 0.827155 0.358291
vt 0.837434 0.358296
vt 0.837434 0.373677
vt 0.294996 0.631805
vt 0.301290 0.631778
vt 0.952417 0.842161
vt 0.952417 0.854479
vt 0.942130 0.855538
vt 0.942130 0.843221
vt 0.220536 0.621084
vt 0.226831 0.625262
vt 0.239150 0.625236
vt 0.245446 0.625204
vt 0.257764 0.625178
vt 0.264060 0.625146
vt 0.276379 0.625120
vt 0.282674 0.625088
vt 0.294993 0.625063
vt 0.301289 0.625030
vt 0.220527 0.610067
vt 0.226823 0.609926
vt 0.538518 0.897370
vt 0.538518 0.912706
vt 0.528237 0.912698
vt 0.528237 0.897362
vt 0.239143 0.609895
vt 0.245439 0.609858
vt 0.848685 0.511675
vt 0.848685 0.527051
vt 0.838404 0.527054
vt 0.838404 0.511679
vt 0.257759 0.609827
vt 0.264055 0.609790
vt 0.972587 0.017260
vt 0.972587 0.029581
vt 0.962300 0.030633
vt 0.962300 0.018312
vt 0.276375 0.609760
vt 0.282671 0.609723
vt 0.062060 0.854878
vt 0.062060 0.839507
vt 0.072339 0.839510
vt 0.072339 0.854880
vt 0.294991 0.609692
vt 0.301287 0.609655
vt 0.324469 0.854721
vt 0.324469 0.870087
vt 0.314188 0.870088
vt 0.314188 0.854722
vt 0.220518 0.599049
vt 0.229827 0.599011
vt 0.239136 0.598972
vt 0.248444 0.598933
vt 0.257753 0.598894
vt 0.267062 0.598856
vt 0.276371 0.598817
vt 0.285680 0.598778
vt 0.294988 0.598739
vt 0.304297 0.598701
vt 0.825860 0.082469
vt 0.825860 0.067133
vt 0.838173 0.067148
vt 0.838173 0.082489
vt 0.463444 0.837060
vt 0.463443 0.821714
vt 0.475756 0.821727
vt 0.475756 0.837078
vt 0.267356 0.820191
vt 0.267356 0.804835
vt 0.279669 0.804848
vt 0.279669 0.820208
vt 0.807735 0.707843
vt 0.807734 0.692478
vt 0.820047 0.692488
vt 0.820047 0.707859
vt 0.267356 0.770302
vt 0.267356 0.754926
vt 0.279669 0.754936
vt 0.279669 0.770316
vt 0.825861 0.238781
vt 0.825860 0.223444
vt 0.838175 0.223449
vt 0.838175 0.238790
vt 0.825860 0.032606
vt 0.825860 0.017260
vt 0.838175 0.017263
vt 0.838175 0.032614
vt 0.146943 0.836473
vt 0.146942 0.821117
vt 0.159257 0.821119
vt 0.159257 0.836480
vt 0.220519 0.820206
vt 0.220518 0.804841
vt 0.232833 0.804841
vt 0.232833 0.820212
vt 0.528238 0.812945
vt 0.528237 0.797570
vt 0.540552 0.797569
vt 0.540552 0.812950
vt 0.827155 0.323771
vt 0.827155 0.308435
vt 0.839471 0.308430
vt 0.839471 0.323771
vt 0.825860 0.188925
vt 0.825860 0.173579
vt 0.838177 0.173573
vt 0.838176 0.188924
vt 0.678241 0.829372
vt 0.678241 0.814016
vt 0.690558 0.814009
vt 0.690557 0.829370
vt 0.314188 0.820202
vt 0.314188 0.804837
vt 0.326505 0.804828
vt 0.326504 0.820199
vt 0.368498 0.791827
vt 0.368498 0.776451
vt 0.380815 0.776442
vt 0.380814 0.791822
vt 0.825860 0.132359
vt 0.825860 0.117023
vt 0.838178 0.117008
vt 0.838177 0.132349
vt 0.631404 0.829371
vt 0.631404 0.814025
vt 0.643722 0.814010
vt 0.643721 0.829360
vt 0.807734 0.807642
vt 0.807734 0.792286
vt 0.820052 0.792269
vt 0.820051 0.807630
vt 0.463443 0.787194
vt 0.463443 0.771829
vt 0.475761 0.771811
vt 0.475760 0.787181
vt 0.220518 0.770321
vt 0.220518 0.754946
vt 0.232836 0.754926
vt 0.232835 0.770307
vt 0.584565 0.829370
vt 0.584565 0.814034
vt 0.596884 0.814009
vt 0.596884 0.829351
vt 0.807734 0.757750
vt 0.807734 0.742404
vt 0.820054 0.742378
vt 0.820053 0.757729
vt 0.314188 0.770309
vt 0.314188 0.754953
vt 0.326508 0.754926
vt 0.326507 0.770287
vt 0.528237 0.763050
vt 0.528237 0.747684
vt 0.540557 0.747657
vt 0.540556 0.763027
vt 0.528237 0.713137
vt 0.528237 0.697762
vt 0.540557 0.697732
vt 0.540556 0.713113
vt 0.324474 0.904608
vt 0.324474 0.916922
vt 0.314188 0.917989
vt 0.314188 0.905674
vt 0.584565 0.973991
vt 0.584565 0.961670
vt 0.594853 0.962720
vt 0.594853 0.975041
vt 0.062060 0.951585
vt 0.062060 0.939267
vt 0.072347 0.940324
vt 0.072347 0.952643
vt 0.909652 0.792277
vt 0.909652 0.807613
vt 0.899372 0.807605
vt 0.899372 0.792269
vt 0.927039 0.358291
vt 0.927039 0.370605
vt 0.916753 0.371672
vt 0.916753 0.359358
vt 0.678241 0.973994
vt 0.678241 0.961672
vt 0.688529 0.962723
vt 0.688529 0.975044
vt 0.852533 0.907401
vt 0.852533 0.892060
vt 0.862812 0.892053
vt 0.862812 0.907395
vt 0.944172 0.804587
vt 0.944172 0.792269
vt 0.954459 0.793327
vt 0.954459 0.805645
vt 0.882973 0.067143
vt 0.882973 0.082489
vt 0.872692 0.082484
vt 0.872692 0.067138
vt 0.277642 0.904614
vt 0.277642 0.916928
vt 0.267356 0.917995
vt 0.267356 0.905680
vt 0.873991 0.323771
vt 0.873991 0.308420
vt 0.884270 0.308417
vt 0.884270 0.323768
vt 0.944173 0.754697
vt 0.944173 0.742378
vt 0.954460 0.743436
vt 0.954460 0.755754
vt 0.882975 0.017262
vt 0.882975 0.032618
vt 0.872694 0.032616
vt 0.872694 0.017260
vt 0.230804 0.904617
vt 0.230804 0.916932
vt 0.220518 0.917999
vt 0.220518 0.905684
vt 0.631404 0.879252
vt 0.631404 0.863891
vt 0.641683 0.863890
vt 0.641683 0.879251
vt 0.942132 0.952268
vt 0.942132 0.939950
vt 0.952419 0.941008
vt 0.952419 0.953326
vt 0.277636 0.854728
vt 0.277636 0.870093
vt 0.267356 0.870094
vt 0.267356 0.854728
vt 0.528237 0.862840
vt 0.528237 0.847469
vt 0.538517 0.847472
vt 0.538517 0.862842
vt 0.917492 0.079453
vt 0.917492 0.067138
vt 0.927779 0.068203
vt 0.927779 0.080519
vt 0.944166 0.704796
vt 0.944166 0.692478
vt 0.954453 0.693535
vt 0.954453 0.705854
vt 0.848685 0.611473
vt 0.848685 0.626848
vt 0.838404 0.626852
vt 0.838404 0.611476
vt 0.758225 0.845180
vt 0.758225 0.829799
vt 0.768504 0.829804
vt 0.768504 0.845185
vt 0.678241 0.926088
vt 0.678241 0.913772
vt 0.688528 0.914837
vt 0.688528 0.927153
vt 0.862827 0.941920
vt 0.862827 0.954240
vt 0.852540 0.955296
vt 0.852540 0.942976
vt 0.584565 0.926085
vt 0.584565 0.913770
vt 0.594851 0.914835
vt 0.594851 0.927151
vt 0.909654 0.742386
vt 0.909654 0.757723
vt 0.899373 0.757715
vt 0.899373 0.742378
vt 0.807734 0.907401
vt 0.807734 0.892060
vt 0.818013 0.892053
vt 0.818013 0.907395
vt 0.818021 0.941920
vt 0.818021 0.954240
vt 0.807734 0.955296
vt 0.807734 0.942976
vt 0.916754 0.470417
vt 0.916754 0.458101
vt 0.927040 0.459166
vt 0.927040 0.471482
vt 0.768505 0.879709
vt 0.768505 0.895055
vt 0.758225 0.895050
vt 0.758225 0.879704
vt 0.146942 0.886354
vt 0.146942 0.871003
vt 0.157222 0.871000
vt 0.157222 0.886350
vt 0.538524 0.947225
vt 0.538524 0.959545
vt 0.528237 0.960600
vt 0.528237 0.948281
vt 0.631404 0.926087
vt 0.631404 0.913771
vt 0.641690 0.914836
vt 0.641690 0.927152
vt 0.882975 0.223446
vt 0.882975 0.238802
vt 0.872695 0.238800
vt 0.872695 0.223444
vt 0.678241 0.879253
vt 0.678241 0.863892
vt 0.688521 0.863892
vt 0.688521 0.879252
vt 0.324475 0.952508
vt 0.324475 0.964827
vt 0.314188 0.965883
vt 0.314188 0.953564
vt 0.230799 0.854731
vt 0.230799 0.870097
vt 0.220518 0.870098
vt 0.220518 0.854732
vt 0.927784 0.117008
vt 0.927784 0.129324
vt 0.917497 0.130387
vt 0.917497 0.118071
vt 0.807734 0.857532
vt 0.807734 0.842161
vt 0.818013 0.842164
vt 0.818013 0.857534
vt 0.277643 0.952514
vt 0.277643 0.964833
vt 0.267356 0.965889
vt 0.267356 0.953570
vt 0.848685 0.561574
vt 0.848685 0.576949
vt 0.838404 0.576953
vt 0.838404 0.561578
vt 0.909646 0.692486
vt 0.909646 0.707822
vt 0.899365 0.707814
vt 0.899365 0.692478
vt 0.927780 0.017260
vt 0.927780 0.029576
vt 0.917494 0.030639
vt 0.917494 0.018323
vt 0.827155 0.423576
vt 0.827155 0.408196
vt 0.837434 0.408201
vt 0.837434 0.423582
vt 0.017260 0.904754
vt 0.017260 0.889413
vt 0.027539 0.889406
vt 0.027539 0.904747
vt 0.961559 0.470421
vt 0.961559 0.458101
vt 0.971847 0.459155
vt 0.971847 0.471475
vt 0.893485 0.611478
vt 0.893485 0.626824
vt 0.883205 0.626819
vt 0.883205 0.611473
vt 0.929076 0.308417
vt 0.929076 0.320733
vt 0.918789 0.321796
vt 0.918789 0.309480
vt 0.463443 0.886952
vt 0.463443 0.871601
vt 0.473722 0.871597
vt 0.473722 0.886948
vt 0.962298 0.079458
vt 0.962298 0.067138
vt 0.972585 0.068192
vt 0.972585 0.080512
vt 0.882977 0.173569
vt 0.882977 0.188925
vt 0.872696 0.188923
vt 0.872696 0.173567
vt 0.927781 0.223444
vt 0.927781 0.235760
vt 0.917495 0.236824
vt 0.917495 0.224508
vt 0.871954 0.423557
vt 0.871954 0.408197
vt 0.882233 0.408196
vt 0.882233 0.423557
vt 0.961558 0.370611
vt 0.961558 0.358291
vt 0.971845 0.359345
vt 0.971845 0.371665
vt 0.864852 0.792269
vt 0.864852 0.807635
vt 0.854571 0.807636
vt 0.854571 0.792270
vt 0.927783 0.173567
vt 0.927783 0.185883
vt 0.917496 0.186946
vt 0.917496 0.174630
vt 0.852533 0.857532
vt 0.852533 0.842161
vt 0.862812 0.842164
vt 0.862812 0.857534
vt 0.961558 0.418511
vt 0.961558 0.406191
vt 0.971845 0.407245
vt 0.971845 0.419565
vt 0.428924 0.832574
vt 0.428924 0.847949
vt 0.418643 0.847953
vt 0.418643 0.832577
vt 0.827155 0.473482
vt 0.827155 0.458101
vt 0.837434 0.458107
vt 0.837434 0.473487
vt 0.928003 0.523992
vt 0.928003 0.511675
vt 0.938290 0.512736
vt 0.938290 0.525053
vt 0.220518 0.964838
vt 0.220518 0.952518
vt 0.230806 0.953572
vt 0.230806 0.965892
vt 0.928005 0.623790
vt 0.928005 0.611473
vt 0.938291 0.612534
vt 0.938291 0.624851
vt 0.907612 0.892061
vt 0.907612 0.907398
vt 0.897332 0.907390
vt 0.897332 0.892053
vt 0.062060 0.904747
vt 0.062060 0.889406
vt 0.072339 0.889400
vt 0.072339 0.904741
vt 0.973883 0.308417
vt 0.973883 0.320738
vt 0.963595 0.321790
vt 0.963595 0.309469
vt 0.928005 0.573891
vt 0.928005 0.561574
vt 0.938291 0.562635
vt 0.938291 0.574952
vt 0.893485 0.561579
vt 0.893485 0.576925
vt 0.883205 0.576920
vt 0.883205 0.561574
vt 0.368498 0.891606
vt 0.368498 0.876255
vt 0.378778 0.876251
vt 0.378778 0.891602
vt 0.972588 0.223444
vt 0.972588 0.235765
vt 0.962300 0.236817
vt 0.962300 0.224497
vt 0.146942 0.933190
vt 0.146942 0.920873
vt 0.157229 0.921935
vt 0.157229 0.934252
vt 0.882978 0.117010
vt 0.882978 0.132366
vt 0.872697 0.132364
vt 0.872697 0.117008
vt 0.871954 0.373652
vt 0.871954 0.358291
vt 0.882233 0.358291
vt 0.882233 0.373652
vt 0.972591 0.117008
vt 0.972591 0.129329
vt 0.962303 0.130381
vt 0.962303 0.118060
vt 0.463443 0.933788
vt 0.463443 0.921471
vt 0.473730 0.922532
vt 0.473730 0.934850
vt 0.550045 0.519398
vt 0.540688 0.519472
vt 0.542716 0.511675
vt 0.550045 0.655488
vt 0.542716 0.663213
vt 0.540688 0.655412
vt 0.017260 0.641337
vt 0.027175 0.641373
vt 0.024536 0.649119
vt 0.027175 0.505283
vt 0.017260 0.505347
vt 0.024536 0.497581
vt 0.163524 0.319311
vt 0.017260 0.319302
vt 0.025134 0.311523
vt 0.155952 0.311524
vt 0.584565 0.511676
vt 0.707311 0.511675
vt 0.707356 0.519309
vt 0.592284 0.519309
vt 0.715085 0.519398
vt 0.715085 0.650233
vt 0.707356 0.650144
vt 0.707792 0.657957
vt 0.584565 0.657958
vt 0.592284 0.650145
vt 0.694510 0.025067
vt 0.579438 0.025068
vt 0.571708 0.017261
vt 0.694935 0.017260
vt 0.017260 0.455285
vt 0.163524 0.455278
vt 0.155952 0.463062
vt 0.025134 0.463061
vt 0.702228 0.024984
vt 0.702228 0.155820
vt 0.694510 0.155904
vt 0.694455 0.163544
vt 0.571708 0.163544
vt 0.579438 0.155905
vt 0.150147 0.505417
vt 0.150147 0.641507
vt 0.518979 0.630950
vt 0.518979 0.543938
vt 0.452382 0.543945
vt 0.423752 0.519470
vt 0.151272 0.326402
vt 0.029511 0.326402
vt 0.452382 0.630957
vt 0.423752 0.655437
vt 0.151272 0.448186
vt 0.029511 0.448186
vt 0.687169 0.437107
vt 0.687169 0.315767
vt 0.701492 0.308447
vt 0.701492 0.444430
vt 0.592006 0.315757
vt 0.585057 0.308430
vt 0.592006 0.437097
vt 0.585057 0.444422
s 1
usemtl Material.003
f 8/1/1 11/2/1 55/3/1 56/4/1
f 6/5/2 2/6/2 58/7/2 59/8/2
f 5/9/3 1/10/3 13/11/3 15/12/3
f 18/13/2 17/14/2 36/15/2 35/16/2
f 3/17/4 7/18/4 16/19/5 14/20/6
f 7/21/7 5/22/7 15/23/7 16/24/7
f 1/25/8 3/26/8 14/27/8 13/28/8
f 18/13/2 20/29/2 19/30/2 17/14/2
f 14/20/6 16/19/5 20/31/9 18/32/10
f 32/33/11 24/34/11 49/35/12 51/36/12
f 21/37/13 25/38/13 38/39/13 40/40/13
f 25/38/14 13/41/14 34/42/15 38/39/15
f 17/14/16 19/30/16 28/43/16 27/44/16
f 20/31/9 16/19/5 44/45/17 46/46/17
f 15/47/18 13/41/14 25/38/14 26/48/18
f 22/49/19 26/50/19 62/51/19 104/52/19 103/53/19 102/54/19 101/55/19 100/56/19 99/57/19 98/58/19 97/59/19 96/60/19 95/61/19 64/62/19
f 24/34/20 23/63/21 27/44/22 28/43/20
f 27/44/22 23/63/21 39/64/23 37/65/24
f 30/66/25 32/67/25 51/68/26 52/69/26
f 30/66/25 29/70/27 31/71/27 32/67/25
f 22/72/28 21/37/28 29/73/28 30/74/28
f 22/72/28 30/74/28 52/75/29 50/76/29
f 23/63/21 24/34/11 32/33/11 31/77/11
f 34/78/8 33/79/8 35/80/8 36/81/8
f 40/82/30 39/83/31 41/84/32 42/85/32
f 34/78/8 36/81/8 37/86/33 38/87/34
f 39/83/31 40/82/30 38/87/34 37/86/33
f 14/20/6 18/32/10 35/88/35 33/89/35
f 23/63/21 31/77/11 41/90/12 39/64/23
f 29/73/28 21/37/28 40/40/36 42/91/36
f 17/14/16 27/44/16 37/65/16 36/15/16
f 13/41/37 14/92/37 33/93/37 34/42/37
f 31/71/27 29/70/27 42/94/38 41/95/38
f 44/96/7 43/97/7 45/98/7 46/99/7
f 45/98/7 43/97/7 48/100/39 47/101/40
f 50/102/41 49/103/40 47/101/40 48/100/39
f 49/103/40 50/102/41 52/104/42 51/105/42
f 28/43/16 19/30/16 45/106/16 47/107/16
f 26/48/43 22/72/43 50/76/43 48/108/43
f 16/109/37 15/47/37 43/110/37 44/111/37
f 15/47/18 26/48/18 48/108/44 43/110/44
f 24/34/20 28/43/20 47/107/45 49/35/45
f 19/30/2 20/29/2 46/112/2 45/106/2
f 54/113/4 53/114/4 56/115/4 55/116/4
f 11/117/46 9/118/46 54/119/46 55/120/46
f 4/121/47 8/122/47 56/123/47 53/124/47
f 9/125/48 4/126/48 53/127/48 54/128/48
f 60/129/3 59/130/3 58/131/3 57/132/3
f 12/133/8 6/134/8 59/135/8 60/136/8
f 10/137/37 12/138/37 60/139/37 57/140/37
f 2/141/7 10/142/7 57/143/7 58/144/7
f 204/145/49 104/146/50 62/147/50 74/148/49
f 26/149/51 25/150/51 61/151/51 65/152/51 66/153/51 67/154/51 68/155/51 69/156/51 70/157/51 71/158/51 72/159/51 73/160/51 74/161/51 62/162/51
f 25/163/52 21/164/52 63/165/52 94/166/52 93/167/52 92/168/52 91/169/52 90/170/52 89/171/52 88/172/52 87/173/52 86/174/52 85/175/52 61/176/52
f 21/177/53 22/178/53 64/179/53 84/180/53 83/181/53 82/182/53 81/183/53 80/184/53 79/185/53 78/186/53 77/187/53 76/188/53 75/189/53 63/190/53
f 85/191/54 114/192/55 65/193/55 61/194/54
f 114/192/55 124/195/56 66/196/56 65/193/55
f 124/195/56 134/197/57 67/198/57 66/196/56
f 134/197/57 144/199/58 68/200/58 67/198/57
f 144/199/58 154/201/59 69/202/59 68/200/58
f 154/201/59 164/203/60 70/204/60 69/202/59
f 164/203/60 174/205/61 71/206/62 70/204/60
f 174/205/61 184/207/63 72/208/63 71/206/62
f 184/207/63 194/209/64 73/210/65 72/208/63
f 194/209/64 204/145/49 74/148/49 73/210/65
f 63/211/66 75/212/66 105/213/66 94/214/66
f 94/214/67 105/213/67 106/215/67 93/216/67
f 93/216/68 106/215/68 107/217/68 92/218/68
f 92/218/69 107/217/69 108/219/69 91/220/69
f 91/220/70 108/219/70 109/221/70 90/222/70
f 90/222/71 109/221/71 110/223/71 89/224/71
f 89/224/72 110/223/72 111/225/72 88/226/72
f 88/226/73 111/225/73 112/227/73 87/228/73
f 87/228/74 112/227/74 113/229/74 86/230/74
f 86/230/75 113/229/75 114/192/75 85/191/75
f 75/212/76 76/231/77 115/232/77 105/213/76
f 204/233/78 194/234/78 294/235/78 304/236/78
f 106/215/79 116/237/80 117/238/80 107/217/79
f 154/239/81 153/240/81 253/241/81 254/242/81
f 108/219/82 118/243/83 119/244/83 109/221/82
f 193/245/84 203/246/84 303/247/84 293/248/84
f 110/223/85 120/249/86 121/250/86 111/225/85
f 199/251/87 200/252/87 300/253/87 299/254/87
f 112/227/88 122/255/89 123/256/89 113/229/88
f 106/257/90 105/258/90 205/259/90 206/260/90
f 76/231/77 77/261/91 125/262/92 115/232/77
f 115/232/93 125/262/93 126/263/93 116/237/93
f 116/237/80 126/263/94 127/264/94 117/238/80
f 117/238/95 127/264/95 128/265/95 118/243/95
f 118/243/83 128/265/96 129/266/96 119/244/83
f 119/244/97 129/266/97 130/267/97 120/249/97
f 120/249/86 130/267/98 131/268/98 121/250/86
f 121/250/99 131/268/99 132/269/99 122/255/99
f 122/255/89 132/269/100 133/270/100 123/256/89
f 123/256/101 133/270/101 134/197/101 124/195/101
f 77/261/91 78/271/102 135/272/102 125/262/92
f 202/273/103 192/274/103 292/275/103 302/276/103
f 126/263/94 136/277/104 137/278/104 127/264/94
f 152/279/81 151/280/81 251/281/81 252/282/81
f 128/265/96 138/283/105 139/284/105 129/266/96
f 191/285/106 201/286/106 301/287/106 291/288/106
f 130/267/98 140/289/107 141/290/107 131/268/98
f 197/291/87 198/292/87 298/293/87 297/294/87
f 132/269/100 142/295/108 143/296/108 133/270/100
f 200/297/109 190/298/109 290/299/109 300/300/109
f 78/271/102 79/301/110 145/302/111 135/272/102
f 135/272/112 145/302/112 146/303/112 136/277/112
f 136/277/104 146/303/113 147/304/113 137/278/104
f 137/278/114 147/304/114 148/305/114 138/283/114
f 138/283/105 148/305/115 149/306/115 139/284/105
f 139/284/116 149/306/116 150/307/116 140/289/116
f 140/289/107 150/307/117 151/308/117 141/290/107
f 141/290/118 151/308/118 152/309/118 142/295/118
f 142/295/108 152/309/119 153/310/119 143/296/108
f 143/296/120 153/310/120 154/201/120 144/199/120
f 79/301/110 80/311/121 155/312/121 145/302/111
f 150/313/81 149/314/81 249/315/81 250/316/81
f 146/303/113 156/317/122 157/318/122 147/304/113
f 189/319/123 199/320/123 299/321/123 289/322/123
f 148/305/115 158/323/124 159/324/124 149/306/115
f 195/325/87 196/326/87 296/327/87 295/328/87
f 150/307/117 160/329/125 161/330/125 151/308/117
f 198/331/126 188/332/126 288/333/126 298/334/126
f 152/309/119 162/335/127 163/336/127 153/310/119
f 148/337/81 147/338/81 247/339/81 248/340/81
f 80/311/121 81/341/128 165/342/129 155/312/121
f 155/312/130 165/342/130 166/343/130 156/317/130
f 156/317/122 166/343/131 167/344/131 157/318/122
f 157/318/132 167/344/132 168/345/132 158/323/132
f 158/323/124 168/345/133 169/346/133 159/324/124
f 159/324/134 169/346/134 170/347/134 160/329/134
f 160/329/125 170/347/135 171/348/135 161/330/125
f 161/330/136 171/348/136 172/349/136 162/335/136
f 162/335/127 172/349/137 173/350/137 163/336/127
f 163/336/138 173/350/138 174/205/138 164/203/138
f 81/341/128 82/351/139 175/352/139 165/342/129
f 187/353/140 197/354/140 297/355/140 287/356/140
f 166/343/131 176/357/141 177/358/141 167/344/131
f 196/359/142 186/360/142 286/361/142 296/362/142
f 168/345/133 178/363/143 179/364/143 169/346/133
f 194/365/144 193/366/144 293/367/144 294/368/144
f 170/347/135 180/369/145 181/370/145 171/348/135
f 144/371/78 134/372/78 234/373/78 244/374/78
f 172/349/137 182/375/146 183/376/146 173/350/137
f 146/377/81 145/378/81 245/379/81 246/380/81
f 82/351/139 83/381/147 185/382/148 175/352/139
f 175/352/149 185/382/149 186/383/149 176/357/149
f 176/357/141 186/383/150 187/384/150 177/358/141
f 177/358/151 187/384/151 188/385/151 178/363/151
f 178/363/143 188/385/152 189/386/152 179/364/143
f 179/364/153 189/386/153 190/387/153 180/369/153
f 180/369/145 190/387/154 191/388/154 181/370/145
f 181/370/155 191/388/155 192/389/155 182/375/155
f 182/375/146 192/389/156 193/390/156 183/376/146
f 183/376/157 193/390/157 194/209/157 184/207/157
f 83/381/147 84/391/158 195/392/158 185/382/148
f 185/393/159 195/394/159 295/395/159 285/396/159
f 186/383/150 196/397/160 197/398/160 187/384/150
f 133/399/84 143/400/84 243/401/84 233/402/84
f 188/385/152 198/403/161 199/404/161 189/386/152
f 192/405/144 191/406/144 291/407/144 292/408/144
f 190/387/154 200/409/162 201/410/162 191/388/154
f 142/411/103 132/412/103 232/413/103 242/414/103
f 192/389/156 202/415/163 203/416/163 193/390/156
f 131/417/106 141/418/106 241/419/106 231/420/106
f 84/391/164 64/421/164 95/422/164 195/392/164
f 195/392/165 95/422/165 96/423/165 196/397/165
f 196/397/166 96/423/166 97/424/166 197/398/166
f 197/398/167 97/424/167 98/425/167 198/403/167
f 198/403/168 98/425/168 99/426/168 199/404/168
f 199/404/169 99/426/169 100/427/169 200/409/169
f 200/409/170 100/427/170 101/428/170 201/410/170
f 201/410/171 101/428/171 102/429/171 202/415/171
f 202/415/172 102/429/172 103/430/172 203/416/172
f 203/416/173 103/430/173 104/146/173 204/145/173
f 205/431/174 215/432/174 216/433/174 206/434/174
f 207/435/175 217/436/175 218/437/175 208/438/175
f 209/439/176 219/440/176 220/441/176 210/442/176
f 211/443/177 221/444/177 222/445/177 212/446/177
f 213/447/178 223/448/178 224/449/178 214/450/178
f 225/451/179 235/452/179 236/453/179 226/454/179
f 227/455/180 237/456/180 238/457/180 228/458/180
f 229/459/181 239/460/181 240/461/181 230/462/181
f 231/463/182 241/464/182 242/465/182 232/466/182
f 233/467/183 243/468/183 244/469/183 234/470/183
f 245/471/184 255/472/184 256/473/184 246/474/184
f 247/475/185 257/476/185 258/477/185 248/478/185
f 249/479/186 259/480/186 260/481/186 250/482/186
f 251/483/187 261/484/187 262/485/187 252/486/187
f 253/487/188 263/488/188 264/489/188 254/490/188
f 265/491/189 275/492/189 276/493/189 266/494/189
f 267/495/190 277/496/190 278/497/190 268/498/190
f 269/499/191 279/500/191 280/501/191 270/502/191
f 271/503/192 281/504/192 282/505/192 272/506/192
f 273/507/193 283/508/193 284/509/193 274/510/193
f 285/511/194 295/512/194 296/513/194 286/514/194
f 287/515/195 297/516/195 298/517/195 288/518/195
f 289/519/196 299/520/196 300/521/196 290/522/196
f 291/523/197 301/524/197 302/525/197 292/526/197
f 293/527/198 303/528/198 304/529/198 294/530/198
f 108/531/90 107/532/90 207/533/90 208/534/90
f 201/535/87 202/536/87 302/537/87 301/538/87
f 155/539/199 156/540/199 256/541/199 255/542/199
f 145/543/159 155/544/159 255/545/159 245/546/159
f 110/547/90 109/548/90 209/549/90 210/550/90
f 203/551/87 204/552/87 304/553/87 303/554/87
f 156/555/142 146/556/142 246/557/142 256/558/142
f 157/559/199 158/560/199 258/561/199 257/562/199
f 147/563/140 157/564/140 257/565/140 247/566/140
f 112/567/90 111/568/90 211/569/90 212/570/90
f 158/571/126 148/572/126 248/573/126 258/574/126
f 159/575/199 160/576/199 260/577/199 259/578/199
f 149/579/123 159/580/123 259/581/123 249/582/123
f 114/583/90 113/584/90 213/585/90 214/586/90
f 160/587/109 150/588/109 250/589/109 260/590/109
f 161/591/199 162/592/199 262/593/199 261/594/199
f 151/595/106 161/596/106 261/597/106 251/598/106
f 162/599/103 152/600/103 252/601/103 262/602/103
f 115/603/200 116/604/200 216/605/200 215/606/200
f 163/607/199 164/608/199 264/609/199 263/610/199
f 153/611/84 163/612/84 263/613/84 253/614/84
f 164/615/78 154/616/78 254/617/78 264/618/78
f 117/619/200 118/620/200 218/621/200 217/622/200
f 166/623/201 165/624/201 265/625/201 266/626/201
f 119/627/200 120/628/200 220/629/200 219/630/200
f 105/631/159 115/632/159 215/633/159 205/634/159
f 116/635/142 106/636/142 206/637/142 216/638/142
f 168/639/201 167/640/201 267/641/201 268/642/201
f 121/643/200 122/644/200 222/645/200 221/646/200
f 107/647/140 117/648/140 217/649/140 207/650/140
f 118/651/126 108/652/126 208/653/126 218/654/126
f 170/655/201 169/656/201 269/657/201 270/658/201
f 123/659/200 124/660/200 224/661/200 223/662/200
f 109/663/123 119/664/123 219/665/123 209/666/123
f 120/667/109 110/668/109 210/669/109 220/670/109
f 172/671/201 171/672/201 271/673/201 272/674/201
f 111/675/106 121/676/106 221/677/106 211/678/106
f 126/679/202 125/680/202 225/681/202 226/682/202
f 122/683/103 112/684/103 212/685/103 222/686/103
f 174/687/201 173/688/201 273/689/201 274/690/201
f 113/691/84 123/692/84 223/693/84 213/694/84
f 165/695/159 175/696/159 275/697/159 265/698/159
f 128/699/202 127/700/202 227/701/202 228/702/202
f 124/703/78 114/704/78 214/705/78 224/706/78
f 176/707/142 166/708/142 266/709/142 276/710/142
f 175/711/203 176/712/203 276/713/203 275/714/203
f 167/715/140 177/716/140 277/717/140 267/718/140
f 130/719/202 129/720/202 229/721/202 230/722/202
f 178/723/126 168/724/126 268/725/126 278/726/126
f 177/727/203 178/728/203 278/729/203 277/730/203
f 169/731/123 179/732/123 279/733/123 269/734/123
f 132/735/202 131/736/202 231/737/202 232/738/202
f 180/739/109 170/740/109 270/741/109 280/742/109
f 179/743/203 180/744/203 280/745/203 279/746/203
f 171/747/106 181/748/106 281/749/106 271/750/106
f 134/751/202 133/752/202 233/753/202 234/754/202
f 182/755/103 172/756/103 272/757/103 282/758/103
f 181/759/203 182/760/203 282/761/203 281/762/203
f 173/763/84 183/764/84 283/765/84 273/766/84
f 184/767/78 174/768/78 274/769/78 284/770/78
f 135/771/204 136/772/204 236/773/204 235/774/204
f 183/775/203 184/776/203 284/777/203 283/778/203
f 137/779/204 138/780/204 238/781/204 237/782/204
f 125/783/159 135/784/159 235/785/159 225/786/159
f 136/787/142 126/788/142 226/789/142 236/790/142
f 186/791/144 185/792/144 285/793/144 286/794/144
f 139/795/204 140/796/204 240/797/204 239/798/204
f 127/799/140 137/800/140 237/801/140 227/802/140
f 138/803/126 128/804/126 228/805/126 238/806/126
f 188/807/144 187/808/144 287/809/144 288/810/144
f 141/811/204 142/812/204 242/813/204 241/814/204
f 129/815/123 139/816/123 239/817/123 229/818/123
f 140/819/109 130/820/109 230/821/109 240/822/109
f 190/823/144 189/824/144 289/825/144 290/826/144
f 143/827/204 144/828/204 244/829/204 243/830/204
f 305/831/205 306/832/205 307/833/205
f 312/834/206 313/835/206 314/836/206
f 317/837/207 318/838/207 319/839/207
f 320/840/208 321/841/208 322/842/208
f 309/843/209 315/844/209 316/845/209 308/846/209
f 315/847/210 317/848/210 319/849/210 316/850/210
f 318/851/211 305/852/211 307/853/211 319/849/211
f 306/854/212 309/855/212 308/856/212 307/853/212
f 305/831/213 312/834/213 314/836/213 306/832/213
f 313/857/214 310/858/214 311/859/214 314/860/214
f 324/861/215 311/862/215 310/863/215 323/864/215
f 312/865/216 320/866/216 322/867/216 313/857/216
f 321/868/217 324/869/217 323/870/217 322/867/217
f 320/840/218 318/838/218 317/837/218 321/841/218
f 312/871/37 305/872/37 318/838/37 320/840/37
f 316/850/8 319/849/8 307/853/8 308/856/8
f 8/873/4 4/874/4 306/832/4 314/836/4
f 4/874/4 9/875/4 309/876/4 306/832/4
f 3/877/2 1/878/2 315/844/2 309/843/2
f 9/875/4 11/879/4 311/880/4 309/876/4
f 7/881/2 3/877/2 309/843/2 311/862/2
f 310/858/7 313/857/7 322/867/7 323/870/7
f 5/882/2 7/881/2 311/862/2 324/861/2
f 11/879/4 8/873/4 314/836/4 311/880/4
f 12/883/3 10/884/3 315/885/3 324/886/3
f 1/878/2 5/882/2 324/861/2 315/844/2
f 10/884/3 2/887/3 317/888/3 315/885/3
f 2/887/3 6/889/3 321/890/3 317/888/3
f 6/889/3 12/883/3 324/886/3 321/890/3
