# Blender 4.5.1 LTS
# www.blender.org
mtllib crate.mtl
o Cube.002
v 0.432096 0.267419 0.338590
v 0.432096 -0.267382 0.338590
v 0.432096 -0.267382 -0.338843
v 0.432096 0.267419 -0.338843
v 0.449652 -0.274741 0.335782
v 0.449652 -0.274741 -0.336035
v -0.449679 -0.274741 0.335782
v -0.449679 -0.274741 -0.336035
v 0.455006 0.270556 -0.344607
v 0.455006 -0.270519 -0.344607
v -0.455033 -0.270519 -0.344607
v -0.455033 0.270556 -0.344607
v 0.455006 -0.270519 0.352799
v 0.455006 0.270556 0.352799
v -0.455033 0.270556 0.352799
v -0.455033 -0.270519 0.352799
v -0.432875 0.267419 -0.338843
v -0.432875 0.267419 0.338590
v -0.432875 -0.267382 0.338590
v -0.432875 -0.267382 -0.338843
v 0.449652 0.281727 0.335782
v 0.449652 0.281727 -0.336035
v -0.449679 0.281727 -0.336035
v -0.449679 0.281727 0.335782
v 0.540709 0.356260 0.451124
v 0.540709 -0.356222 0.451124
v 0.540709 0.356260 -0.451377
v 0.540709 -0.356222 -0.451377
v -0.540737 0.356260 -0.451377
v -0.540737 0.356260 0.451124
v -0.540737 -0.356222 0.451124
v -0.540737 -0.356222 -0.451377
v 0.449652 -0.356222 0.335782
v 0.449652 0.356260 0.335782
v 0.449652 0.356260 -0.336035
v 0.449652 -0.356222 -0.336035
v -0.449679 -0.356222 -0.336035
v -0.449679 0.356260 -0.336035
v -0.449679 0.356260 0.335782
v -0.449679 -0.356222 0.335782
v 0.455006 0.270556 0.451124
v 0.455006 -0.270519 0.451124
v 0.455006 -0.270519 -0.451377
v 0.455006 0.270556 -0.451377
v -0.455033 0.270556 -0.451377
v -0.455033 0.270556 0.451124
v -0.455033 -0.270519 0.451124
v -0.455033 -0.270519 -0.451377
v 0.540709 0.267419 -0.338843
v 0.540709 -0.267382 -0.338843
v 0.540709 0.267419 0.338590
v 0.540709 -0.267382 0.338590
v -0.540737 0.267419 -0.338843
v -0.540737 -0.267382 -0.338843
v -0.540737 0.267419 0.338590
v -0.540737 -0.267382 0.338590
vn -0.0000 1.0000 -0.0000
vn -0.0000 -0.0000 -1.0000
vn -0.0000 -0.0000 1.0000
vn 1.0000 -0.0000 -0.0000
vn -1.0000 -0.0000 -0.0000
vn -0.0000 -1.0000 -0.0000
vt 0.901457 0.318186
vt 0.901457 0.509193
vt 0.870833 0.509193
vt 0.870833 0.318186
vt 0.930893 0.783471
vt 0.930893 0.934263
vt 0.900269 0.934263
vt 0.900269 0.783471
vt 0.949555 0.468977
vt 0.949555 0.318186
vt 0.980180 0.318186
vt 0.980180 0.468977
vt 0.316615 0.822958
vt 0.165824 0.822958
vt 0.165824 0.631951
vt 0.316615 0.631951
vt 0.962710 0.583621
vt 0.962710 0.773045
vt 0.939736 0.773045
vt 0.939736 0.583621
vt 0.384999 0.631951
vt 0.384999 0.885524
vt 0.362024 0.885524
vt 0.362025 0.631951
vt 0.962710 0.781888
vt 0.962710 0.971312
vt 0.939736 0.971312
vt 0.939736 0.781888
vt 0.823043 0.318186
vt 0.823043 0.571760
vt 0.633619 0.571760
vt 0.633619 0.318186
vt 0.615394 0.581496
vt 0.615394 0.838088
vt 0.585289 0.838088
vt 0.585289 0.581496
vt 0.195929 0.831801
vt 0.195929 0.984361
vt 0.165824 0.984361
vt 0.165824 0.831801
vt 0.204772 0.984361
vt 0.204772 0.831801
vt 0.234876 0.831801
vt 0.234876 0.984361
vt 0.576446 0.838088
vt 0.423886 0.838088
vt 0.423886 0.581496
vt 0.576446 0.581496
vt 0.633619 0.995579
vt 0.633619 0.843019
vt 0.661342 0.843019
vt 0.661342 0.995579
vt 0.831885 0.840214
vt 0.831885 0.583621
vt 0.859609 0.583621
vt 0.859609 0.840214
vt 0.697909 0.843019
vt 0.697909 0.995579
vt 0.670185 0.995579
vt 0.670185 0.843019
vt 0.156981 0.888543
vt 0.004421 0.888543
vt 0.004421 0.631951
vt 0.156981 0.631951
vt 0.243719 0.982592
vt 0.243719 0.831801
vt 0.274132 0.831801
vt 0.274132 0.982592
vt 0.313387 0.831801
vt 0.313387 0.982592
vt 0.282974 0.982592
vt 0.282974 0.831801
vt 0.900408 0.195429
vt 0.900408 0.004421
vt 0.930820 0.004421
vt 0.930820 0.195429
vt 0.891565 0.195429
vt 0.740774 0.195429
vt 0.740774 0.004421
vt 0.891565 0.004421
vt 0.969521 0.193845
vt 0.969521 0.004421
vt 0.990536 0.004421
vt 0.990536 0.193845
vt 0.393842 0.885524
vt 0.393842 0.631951
vt 0.414857 0.631951
vt 0.414857 0.885524
vt 0.971553 0.773045
vt 0.971553 0.583621
vt 0.992568 0.583621
vt 0.992568 0.773045
vt 0.823043 0.580602
vt 0.823043 0.834176
vt 0.633619 0.834176
vt 0.633619 0.580602
vt 0.036943 0.030096
vt 0.036943 0.283669
vt 0.004421 0.309343
vt 0.004421 0.004421
vt 0.300253 0.030096
vt 0.300253 0.283669
vt 0.267731 0.309343
vt 0.267731 0.004421
vt 0.226367 0.030096
vt 0.258889 0.004421
vt 0.489677 0.283669
vt 0.522198 0.309343
vt 0.226367 0.283669
vt 0.258889 0.309343
vt 0.489677 0.030096
vt 0.522198 0.004421
vt 0.028586 0.342351
vt 0.028586 0.598943
vt 0.004421 0.623108
vt 0.004421 0.318186
vt 0.181146 0.598943
vt 0.181146 0.342351
vt 0.205311 0.318186
vt 0.205311 0.623108
vt 0.390879 0.342351
vt 0.238319 0.342351
vt 0.214154 0.318186
vt 0.415044 0.318186
vt 0.238319 0.598943
vt 0.214154 0.623108
vt 0.390879 0.598943
vt 0.415044 0.623108
vt 0.599727 0.349916
vt 0.448936 0.349916
vt 0.423886 0.318186
vt 0.624776 0.318186
vt 0.448936 0.540923
vt 0.423886 0.572653
vt 0.599727 0.540923
vt 0.624776 0.572653
vt 0.706882 0.036151
vt 0.556090 0.036151
vt 0.531041 0.004421
vt 0.731931 0.004421
vt 0.556090 0.227159
vt 0.531041 0.258889
vt 0.706882 0.227159
vt 0.731931 0.258889
vt 0.939663 0.257995
vt 0.939663 0.004421
vt 0.960678 0.004421
vt 0.960678 0.257995
vt 0.891426 0.583621
vt 0.891426 0.837195
vt 0.868452 0.837195
vt 0.868452 0.583621
vt 0.325458 0.888543
vt 0.325458 0.631951
vt 0.353182 0.631951
vt 0.353182 0.888543
vt 0.900269 0.774629
vt 0.900269 0.583621
vt 0.930893 0.583621
vt 0.930893 0.774629
vt 0.861990 0.318186
vt 0.861990 0.574778
vt 0.831885 0.574778
vt 0.831885 0.318186
vt 0.940713 0.318186
vt 0.940713 0.509193
vt 0.910300 0.509193
vt 0.910300 0.318186
s 0
usemtl Material.002
f 52/1/1 50/2/1 3/3/1 2/4/1
f 51/5/2 52/6/2 2/7/2 1/8/2
f 50/9/3 49/10/3 4/11/3 3/12/3
f 3/13/4 4/14/4 1/15/4 2/16/4
f 40/17/4 37/18/4 8/19/4 7/20/4
f 37/21/3 36/22/3 6/23/3 8/24/3
f 36/25/5 33/26/5 5/27/5 6/28/5
f 8/29/6 6/30/6 5/31/6 7/32/6
f 43/33/1 48/34/1 11/35/1 10/36/1
f 44/37/5 43/38/5 10/39/5 9/40/5
f 48/41/4 45/42/4 12/43/4 11/44/4
f 11/45/2 12/46/2 9/47/2 10/48/2
f 42/49/5 41/50/5 14/51/5 13/52/5
f 41/53/6 46/54/6 15/55/6 14/56/6
f 46/57/4 47/58/4 16/59/4 15/60/4
f 13/61/3 14/62/3 15/63/3 16/64/3
f 56/65/2 55/66/2 18/67/2 19/68/2
f 53/69/3 54/70/3 20/71/3 17/72/3
f 54/73/1 56/74/1 19/75/1 20/76/1
f 19/77/5 18/78/5 17/79/5 20/80/5
f 38/81/4 39/82/4 24/83/4 23/84/4
f 35/85/3 38/86/3 23/87/3 22/88/3
f 34/89/5 35/90/5 22/91/5 21/92/5
f 22/93/1 23/94/1 24/95/1 21/96/1
f 34/97/1 39/98/1 30/99/1 25/100/1
f 40/101/6 33/102/6 26/103/6 31/104/6
f 35/105/1 34/97/1 25/100/1 27/106/1
f 33/102/6 36/107/6 28/108/6 26/103/6
f 38/109/1 35/105/1 27/106/1 29/110/1
f 36/107/6 37/111/6 32/112/6 28/108/6
f 39/98/1 38/109/1 29/110/1 30/99/1
f 37/111/6 40/101/6 31/104/6 32/112/6
f 46/113/3 41/114/3 25/115/3 30/116/3
f 42/117/3 47/118/3 31/119/3 26/120/3
f 41/114/3 42/117/3 26/120/3 25/115/3
f 43/121/2 44/122/2 27/123/2 28/124/2
f 44/122/2 45/125/2 29/126/2 27/123/2
f 48/127/2 43/121/2 28/124/2 32/128/2
f 45/125/2 48/127/2 32/128/2 29/126/2
f 47/118/3 46/113/3 30/116/3 31/119/3
f 52/129/4 51/130/4 25/131/4 26/132/4
f 51/130/4 49/133/4 27/134/4 25/131/4
f 50/135/4 52/129/4 26/132/4 28/136/4
f 49/133/4 50/135/4 28/136/4 27/134/4
f 54/137/5 53/138/5 29/139/5 32/140/5
f 53/138/5 55/141/5 30/142/5 29/139/5
f 55/141/5 56/143/5 31/144/5 30/142/5
f 56/143/5 54/137/5 32/140/5 31/144/5
f 39/145/2 34/146/2 21/147/2 24/148/2
f 33/149/2 40/150/2 7/151/2 5/152/2
f 47/153/1 42/154/1 13/155/1 16/156/1
f 49/157/6 51/158/6 1/159/6 4/160/6
f 45/161/6 44/162/6 9/163/6 12/164/6
f 55/165/6 53/166/6 17/167/6 18/168/6
