# Blender 4.5.1 LTS
# www.blender.org
mtllib door_frame.mtl
o Plane.002
v -3.000000 0.000000 0.150000
v 3.000000 0.000000 0.150000
v -3.000000 4.500000 0.150000
v 3.000000 4.500000 0.150000
v -3.000000 0.000000 -0.150000
v 3.000000 0.000000 -0.150000
v -3.000000 4.500000 -0.150000
v 3.000000 4.500000 -0.150000
v -1.267772 3.191042 0.150000
v -0.506305 3.762142 0.150000
v -1.929901 4.044182 0.150000
v -1.165755 3.476592 0.150000
v -0.887038 3.685629 0.150000
v -0.506305 0.276321 0.150000
v -1.267772 0.847421 0.150000
v -2.012578 0.157511 0.150000
v -0.887038 0.352834 0.150000
v -1.165755 0.561871 0.150000
v 1.267772 0.847421 0.150000
v 0.506305 0.276321 0.150000
v 2.012578 0.157511 0.150000
v 1.165755 0.561871 0.150000
v 0.887038 0.352834 0.150000
v 0.506305 3.762142 0.150000
v 1.267772 3.191042 0.150000
v 1.929901 4.044182 0.150000
v 0.887038 3.685629 0.150000
v 1.165755 3.476592 0.150000
v -0.506305 3.762142 -0.150000
v -1.267772 3.191042 -0.150000
v -1.929901 4.044182 -0.150000
v -0.887038 3.685629 -0.150000
v -1.165755 3.476592 -0.150000
v -1.267772 0.847421 -0.150000
v -0.506305 0.276321 -0.150000
v -2.012578 0.157511 -0.150000
v -1.165755 0.561871 -0.150000
v -0.887038 0.352834 -0.150000
v 0.506305 0.276321 -0.150000
v 1.267772 0.847421 -0.150000
v 2.012578 0.157511 -0.150000
v 0.887038 0.352834 -0.150000
v 1.165755 0.561871 -0.150000
v 1.267772 3.191042 -0.150000
v 0.506305 3.762142 -0.150000
v 1.929901 4.044182 -0.150000
v 1.165755 3.476592 -0.150000
v 0.887038 3.685629 -0.150000
vn -1.0000 -0.0000 -0.0000
vn -0.0000 -1.0000 -0.0000
vn 1.0000 -0.0000 -0.0000
vn -0.0000 1.0000 -0.0000
vn -0.0000 -0.0000 1.0000
vn -0.0000 -0.0000 -1.0000
vn 0.9417 -0.3364 -0.0000
vn 0.6000 -0.8000 -0.0000
vn 0.1970 -0.9804 -0.0000
vn 0.1970 0.9804 -0.0000
vn 0.6000 0.8000 -0.0000
vn 0.9417 0.3364 -0.0000
vn -0.9417 0.3364 -0.0000
vn -0.6000 0.8000 -0.0000
vn -0.1970 0.9804 -0.0000
vn -0.1970 -0.9804 -0.0000
vn -0.6000 -0.8000 -0.0000
vn -0.9417 -0.3364 -0.0000
vt 0.506862 0.493138
vt 0.506862 0.006862
vt 0.531176 0.006862
vt 0.531176 0.493138
vt 0.506862 0.993138
vt 0.506862 0.506862
vt 0.531176 0.506862
vt 0.531176 0.993138
vt 0.544901 0.493138
vt 0.544901 0.006862
vt 0.569215 0.006862
vt 0.569215 0.493138
vt 0.544901 0.993138
vt 0.544901 0.506862
vt 0.569215 0.506862
vt 0.569215 0.993138
vt 0.351690 0.352748
vt 0.382547 0.344480
vt 0.443881 0.406411
vt 0.405136 0.321891
vt 0.413404 0.291034
vt 0.036722 0.291034
vt 0.044990 0.321891
vt 0.023883 0.413111
vt 0.067579 0.344480
vt 0.098436 0.352748
vt 0.098436 0.147252
vt 0.067579 0.155520
vt 0.023883 0.086889
vt 0.044990 0.178109
vt 0.036722 0.208966
vt 0.413404 0.208966
vt 0.405136 0.178109
vt 0.443881 0.093589
vt 0.382547 0.155520
vt 0.351690 0.147252
vt 0.413404 0.708966
vt 0.405136 0.678109
vt 0.443881 0.593590
vt 0.382547 0.655520
vt 0.351690 0.647252
vt 0.098436 0.647252
vt 0.067579 0.655520
vt 0.023883 0.586889
vt 0.044990 0.678109
vt 0.036722 0.708966
vt 0.036722 0.791034
vt 0.044990 0.821891
vt 0.023883 0.913111
vt 0.067579 0.844480
vt 0.098436 0.852748
vt 0.351690 0.852748
vt 0.382547 0.844480
vt 0.443881 0.906411
vt 0.405136 0.821891
vt 0.413404 0.791034
vt 0.582939 0.313562
vt 0.607253 0.313562
vt 0.607253 0.344419
vt 0.582939 0.344419
vt 0.582939 0.709426
vt 0.607253 0.709426
vt 0.607253 0.732014
vt 0.582939 0.732014
vt 0.607253 0.762871
vt 0.582939 0.762871
vt 0.620978 0.119787
vt 0.645292 0.119787
vt 0.645292 0.150644
vt 0.620978 0.150644
vt 0.582939 0.006862
vt 0.607253 0.006862
vt 0.607253 0.029451
vt 0.582939 0.029451
vt 0.607253 0.060308
vt 0.582939 0.060308
vt 0.582939 0.642255
vt 0.607253 0.642255
vt 0.607253 0.673112
vt 0.582939 0.673112
vt 0.607253 0.695701
vt 0.582939 0.695701
vt 0.620978 0.006862
vt 0.645292 0.006862
vt 0.645292 0.037719
vt 0.620978 0.037719
vt 0.582939 0.844939
vt 0.607253 0.844939
vt 0.607253 0.875796
vt 0.582939 0.875796
vt 0.607253 0.898385
vt 0.582939 0.898385
vt 0.582939 0.358144
vt 0.607253 0.358144
vt 0.607253 0.389001
vt 0.582939 0.389001
vt 0.493138 0.006862
vt 0.493138 0.493138
vt 0.006862 0.493138
vt 0.006862 0.006862
vt 0.006862 0.506862
vt 0.493138 0.506862
vt 0.493138 0.993138
vt 0.006862 0.993138
s 0
usemtl Material.001
f 1/1/1 3/2/1 7/3/1 5/4/1
f 2/5/2 1/6/2 5/7/2 6/8/2
f 4/9/3 2/10/3 6/11/3 8/12/3
f 3/13/4 4/14/4 8/15/4 7/16/4
f 9/17/5 12/18/5 11/19/5
f 12/18/5 13/20/5 11/19/5
f 13/20/5 10/21/5 11/19/5
f 14/22/5 17/23/5 16/24/5
f 17/23/5 18/25/5 16/24/5
f 18/25/5 15/26/5 16/24/5
f 19/27/5 22/28/5 21/29/5
f 22/28/5 23/30/5 21/29/5
f 23/30/5 20/31/5 21/29/5
f 24/32/5 27/33/5 26/34/5
f 27/33/5 28/35/5 26/34/5
f 28/35/5 25/36/5 26/34/5
f 29/37/6 32/38/6 31/39/6
f 32/38/6 33/40/6 31/39/6
f 33/40/6 30/41/6 31/39/6
f 34/42/6 37/43/6 36/44/6
f 37/43/6 38/45/6 36/44/6
f 38/45/6 35/46/6 36/44/6
f 39/47/6 42/48/6 41/49/6
f 42/48/6 43/50/6 41/49/6
f 43/50/6 40/51/6 41/49/6
f 44/52/6 47/53/6 46/54/6
f 47/53/6 48/55/6 46/54/6
f 48/55/6 45/56/6 46/54/6
f 9/57/7 30/58/7 33/59/7 12/60/7
f 12/61/8 33/62/8 32/63/8 13/64/8
f 13/64/9 32/63/9 29/65/9 10/66/9
f 14/67/10 35/68/10 38/69/10 17/70/10
f 17/71/11 38/72/11 37/73/11 18/74/11
f 18/74/12 37/73/12 34/75/12 15/76/12
f 19/77/13 40/78/13 43/79/13 22/80/13
f 22/80/14 43/79/14 42/81/14 23/82/14
f 23/83/15 42/84/15 39/85/15 20/86/15
f 24/87/16 45/88/16 48/89/16 27/90/16
f 27/90/17 48/89/17 47/91/17 28/92/17
f 28/93/18 47/94/18 44/95/18 25/96/18
f 9/57/3 15/76/3 34/75/3 30/58/3
f 11/19/5 10/21/5 24/32/5 26/34/5 4/97/5 3/98/5
f 16/24/5 15/26/5 9/17/5 11/19/5 3/98/5 1/99/5
f 24/87/2 10/66/2 29/65/2 45/88/2
f 14/67/4 20/86/4 39/85/4 35/68/4
f 21/29/5 20/31/5 14/22/5 16/24/5 1/99/5 2/100/5
f 19/77/1 25/96/1 44/95/1 40/78/1
f 26/34/5 25/36/5 19/27/5 21/29/5 2/100/5 4/97/5
f 34/42/6 36/44/6 5/101/6 7/102/6 31/39/6 30/41/6
f 29/37/6 31/39/6 7/102/6 8/103/6 46/54/6 45/56/6
f 39/47/6 41/49/6 6/104/6 5/101/6 36/44/6 35/46/6
f 44/52/6 46/54/6 8/103/6 6/104/6 41/49/6 40/51/6
