# Blender 4.5.1 LTS
# www.blender.org
mtllib door.mtl
o door
v 1.215358 1.700415 0.365033
v 1.774148 0.236503 1.070084
v 1.252256 1.262724 0.411590
v 1.338076 0.874949 0.519872
v 1.459060 0.557997 0.672523
v 1.607077 0.333169 0.859283
v 1.774148 3.848323 1.070084
v 1.215358 2.384411 0.365033
v 1.607077 3.751657 0.859283
v 1.459060 3.526828 0.672523
v 1.338076 3.209876 0.519872
v 1.252256 2.822101 0.411590
v 1.998188 0.236503 0.892521
v 1.439397 1.700415 0.187470
v 1.831117 0.333169 0.681720
v 1.683099 0.557997 0.494960
v 1.562115 0.874949 0.342309
v 1.476295 1.262724 0.234027
v 1.439397 2.384411 0.187470
v 1.998188 3.848323 0.892521
v 1.476295 2.822101 0.234027
v 1.562115 3.209876 0.342309
v 1.683099 3.526828 0.494960
v 1.831117 3.751657 0.681720
v 2.035237 0.236503 1.399512
v 2.594028 1.700415 2.104563
v 2.202308 0.333169 1.610312
v 2.350326 0.557997 1.797073
v 2.471310 0.874949 1.949724
v 2.557129 1.262724 2.058006
v 2.594028 2.384411 2.104563
v 2.035237 3.848323 1.399512
v 2.557129 2.822101 2.058006
v 2.471310 3.209876 1.949724
v 2.350326 3.526828 1.797073
v 2.202308 3.751657 1.610312
v 2.818067 1.700415 1.927000
v 2.259276 0.236503 1.221949
v 2.781169 1.262724 1.880443
v 2.695349 0.874949 1.772161
v 2.574365 0.557997 1.619510
v 2.426347 0.333169 1.432749
v 2.259276 3.848323 1.221949
v 2.818067 2.384411 1.927000
v 2.426347 3.751657 1.432749
v 2.574365 3.526828 1.619510
v 2.695349 3.209876 1.772161
v 2.781169 2.822101 1.880443
vn -0.2101 -0.9411 -0.2651
vn -0.4262 -0.7274 -0.5378
vn -0.5292 -0.5236 -0.6677
vn -0.5851 -0.3356 -0.7382
vn -0.6155 -0.1345 -0.7766
vn -0.2101 0.9411 -0.2651
vn -0.4262 0.7274 -0.5378
vn -0.5292 0.5236 -0.6677
vn -0.5851 0.3356 -0.7382
vn -0.6155 0.1345 -0.7766
vn 0.2101 -0.9411 0.2651
vn 0.4262 -0.7274 0.5378
vn 0.5292 -0.5236 0.6677
vn 0.5851 -0.3356 0.7382
vn 0.6155 -0.1345 0.7766
vn 0.2101 0.9411 0.2651
vn 0.4262 0.7274 0.5378
vn 0.5292 0.5236 0.6677
vn 0.5851 0.3356 0.7382
vn 0.6155 0.1345 0.7766
vn -0.0000 -1.0000 -0.0000
vn -0.6211 -0.0000 -0.7837
vn -0.7837 -0.0000 0.6211
vn -0.0000 1.0000 -0.0000
vn 0.7837 -0.0000 -0.6211
vn 0.6211 -0.0000 0.7837
vt 0.226328 0.500000
vt 0.226328 0.750000
vt 0.196032 0.750000
vt 0.196032 0.500000
vt 0.169191 0.750000
vt 0.169191 0.500000
vt 0.125000 0.750000
vt 0.125000 0.500000
vt 0.413430 0.269352
vt 0.375000 0.000000
vt 0.446032 0.000000
vt 0.446032 0.255147
vt 0.476328 0.000000
vt 0.476328 0.250000
vt 0.773672 0.750000
vt 0.773672 0.500000
vt 0.803968 0.500000
vt 0.803968 0.750000
vt 0.875000 0.500000
vt 0.875000 0.750000
vt 0.625000 0.000000
vt 0.605648 0.288430
vt 0.580809 0.267119
vt 0.580808 0.000000
vt 0.553968 0.255147
vt 0.553968 0.000000
vt 0.523672 0.250000
vt 0.523672 0.000000
vt 0.347166 0.823494
vt 0.347166 0.426506
vt 0.363761 0.445354
vt 0.363761 0.804646
vt 0.381925 0.466003
vt 0.381925 0.783997
vt 0.419192 0.482881
vt 0.419192 0.767119
vt 0.446032 0.494853
vt 0.446032 0.755147
vt 0.476328 0.500000
vt 0.476328 0.750000
vt 0.652834 0.426506
vt 0.652834 0.823494
vt 0.636239 0.804646
vt 0.636239 0.445354
vt 0.618075 0.783997
vt 0.618075 0.466003
vt 0.580809 0.767119
vt 0.580809 0.482881
vt 0.553968 0.755147
vt 0.553968 0.494853
vt 0.523672 0.750000
vt 0.523672 0.500000
vt 0.625000 0.898672
vt 0.618309 0.928968
vt 0.602747 0.955809
vt 0.580809 0.977747
vt 0.553968 0.993309
vt 0.523672 1.000000
vt 0.476328 1.000000
vt 0.446032 0.993309
vt 0.419191 0.977747
vt 0.397253 0.955809
vt 0.381691 0.928968
vt 0.375000 0.898672
vt 0.375000 0.351328
vt 0.381691 0.321032
vt 0.397253 0.294191
vt 0.618309 0.321032
vt 0.625000 0.351328
s 0
usemtl Material.002
f 13/1/1 2/2/1 6/3/1 15/4/1
f 15/4/2 6/3/2 5/5/2 16/6/2
f 16/6/3 5/5/3 4/7/3 17/8/3
f 17/9/4 4/10/4 3/11/4 18/12/4
f 18/12/5 3/11/5 1/13/5 14/14/5
f 7/15/6 20/16/6 24/17/6 9/18/6
f 9/18/7 24/17/7 23/19/7 10/20/7
f 10/21/8 23/22/8 22/23/8 11/24/8
f 11/24/9 22/23/9 21/25/9 12/26/9
f 12/26/10 21/25/10 19/27/10 8/28/10
f 25/29/11 38/30/11 42/31/11 27/32/11
f 27/32/12 42/31/12 41/33/12 28/34/12
f 28/34/13 41/33/13 40/35/13 29/36/13
f 29/36/14 40/35/14 39/37/14 30/38/14
f 30/38/15 39/37/15 37/39/15 26/40/15
f 43/41/16 32/42/16 36/43/16 45/44/16
f 45/44/17 36/43/17 35/45/17 46/46/17
f 46/46/18 35/45/18 34/47/18 47/48/18
f 47/48/19 34/47/19 33/49/19 48/50/19
f 48/50/20 33/49/20 31/51/20 44/52/20
f 13/1/21 38/30/21 25/29/21 2/2/21
f 1/13/22 8/28/22 19/27/22 14/14/22
f 25/29/23 27/32/23 28/34/23 29/36/23 30/38/23 26/40/23 31/51/23 33/49/23 34/47/23 35/45/23 36/43/23 32/42/23 7/53/23 9/54/23 10/55/23 11/56/23 12/57/23 8/58/23 1/59/23 3/60/23 4/61/23 5/62/23 6/63/23 2/64/23
f 43/41/24 20/16/24 7/15/24 32/42/24
f 13/65/25 15/66/25 16/67/25 17/9/25 18/12/25 14/14/25 19/27/25 21/25/25 22/23/25 23/22/25 24/68/25 20/69/25 43/41/25 45/44/25 46/46/25 47/48/25 48/50/25 44/52/25 37/39/25 39/37/25 40/35/25 41/33/25 42/31/25 38/30/25
f 37/39/26 44/52/26 31/51/26 26/40/26
