# Blender 4.5.1 LTS
# www.blender.org
mtllib shelf.mtl
o Cube.005
v 0.643433 0.004960 1.187060
v 0.643433 1.150778 1.187060
v 0.643433 0.004960 1.070048
v 0.643433 1.150778 1.070048
v 0.760445 0.004960 1.187060
v 0.760445 1.150778 1.187060
v 0.760445 0.004960 1.070048
v 0.760445 1.150778 1.070048
v -0.788181 -0.047445 -1.212944
v -0.788181 0.047482 -1.212944
v -0.788181 -0.047445 1.212946
v -0.788181 0.047482 1.212946
v 0.788154 -0.047445 -1.212944
v 0.788154 0.047482 -1.212944
v 0.788154 -0.047445 1.212946
v 0.788154 0.047482 1.212946
v 0.643433 0.004960 -1.073925
v 0.643433 1.150778 -1.073925
v 0.643433 0.004960 -1.190937
v 0.643433 1.150778 -1.190937
v 0.760445 0.004960 -1.073925
v 0.760445 1.150778 -1.073925
v 0.760445 0.004960 -1.190937
v 0.760445 1.150778 -1.190937
v -0.748837 0.004960 -1.073925
v -0.748837 1.150778 -1.073925
v -0.748837 0.004960 -1.190937
v -0.748837 1.150778 -1.190937
v -0.631825 0.004960 -1.073925
v -0.631825 1.150778 -1.073925
v -0.631825 0.004960 -1.190937
v -0.631825 1.150778 -1.190937
v -0.748837 0.004960 1.187060
v -0.748837 1.150778 1.187060
v -0.748837 0.004960 1.070048
v -0.748837 1.150778 1.070048
v -0.631825 0.004960 1.187060
v -0.631825 1.150778 1.187060
v -0.631825 0.004960 1.070048
v -0.631825 1.150778 1.070048
v -0.788181 2.337642 -1.212944
v -0.788181 2.432570 -1.212944
v -0.788181 2.337642 1.212946
v -0.788181 2.432570 1.212946
v 0.788154 2.337642 -1.212944
v 0.788154 2.432570 -1.212944
v 0.788154 2.337642 1.212946
v 0.788154 2.432570 1.212946
v -0.748837 1.203321 1.187060
v -0.748837 2.349139 1.187060
v -0.748837 1.203321 1.070048
v -0.748837 2.349139 1.070048
v -0.631825 1.203321 1.187060
v -0.631825 2.349139 1.187060
v -0.631825 1.203321 1.070048
v -0.631825 2.349139 1.070048
v -0.788181 1.139281 -1.212944
v -0.788181 1.234209 -1.212944
v -0.788181 1.139281 1.212946
v -0.788181 1.234209 1.212946
v 0.788154 1.139281 -1.212944
v 0.788154 1.234209 -1.212944
v 0.788154 1.139281 1.212946
v 0.788154 1.234209 1.212946
v 0.643433 1.203321 -1.073925
v 0.643433 2.349139 -1.073925
v 0.643433 1.203321 -1.190936
v 0.643433 2.349139 -1.190936
v 0.760445 1.203321 -1.073925
v 0.760445 2.349139 -1.073925
v 0.760445 1.203321 -1.190936
v 0.760445 2.349139 -1.190936
v 0.643433 1.203321 1.187060
v 0.643433 2.349139 1.187060
v 0.643433 1.203321 1.070048
v 0.643433 2.349139 1.070048
v 0.760445 1.203321 1.187060
v 0.760445 2.349139 1.187060
v 0.760445 1.203321 1.070048
v 0.760445 2.349139 1.070048
v -0.748837 1.203321 -1.073925
v -0.748837 2.349139 -1.073925
v -0.748837 1.203321 -1.190936
v -0.748837 2.349139 -1.190936
v -0.631825 1.203321 -1.073925
v -0.631825 2.349139 -1.073925
v -0.631825 1.203321 -1.190936
v -0.631825 2.349139 -1.190936
vn -1.0000 -0.0000 -0.0000
vn -0.0000 -0.0000 -1.0000
vn 1.0000 -0.0000 -0.0000
vn -0.0000 -0.0000 1.0000
vn -0.0000 -1.0000 -0.0000
vn -0.0000 1.0000 -0.0000
vt 0.144397 0.966993
vt 0.122052 0.966993
vt 0.122052 0.944649
vt 0.144397 0.944649
vt 0.174002 0.966993
vt 0.151658 0.966993
vt 0.151658 0.944649
vt 0.174002 0.944649
vt 0.203608 0.966994
vt 0.181263 0.966993
vt 0.181263 0.944649
vt 0.203608 0.944649
vt 0.233213 0.966994
vt 0.210868 0.966994
vt 0.210868 0.944649
vt 0.233213 0.944649
vt 0.262818 0.944649
vt 0.262818 0.966994
vt 0.240474 0.966994
vt 0.240474 0.944649
vt 0.292424 0.944649
vt 0.292424 0.966994
vt 0.270079 0.966994
vt 0.270079 0.944649
vt 0.930316 0.466879
vt 0.928465 0.466879
vt 0.928465 0.003630
vt 0.930316 0.003630
vt 0.957652 0.304648
vt 0.955801 0.304648
vt 0.955801 0.003630
vt 0.957652 0.003630
vt 0.939428 0.937388
vt 0.937577 0.937388
vt 0.937577 0.474140
vt 0.939428 0.474140
vt 0.957652 0.612926
vt 0.955801 0.612926
vt 0.955801 0.311908
vt 0.957652 0.311908
vt 0.003630 0.003630
vt 0.304648 0.003630
vt 0.304648 0.466879
vt 0.003630 0.466879
vt 0.311908 0.003630
vt 0.612926 0.003630
vt 0.612926 0.466879
vt 0.311908 0.466879
vt 0.410845 0.966994
vt 0.388501 0.966994
vt 0.388501 0.944649
vt 0.410845 0.944649
vt 0.440451 0.966994
vt 0.418106 0.966994
vt 0.418106 0.944649
vt 0.440451 0.944649
vt 0.470056 0.966993
vt 0.447712 0.966993
vt 0.447712 0.944649
vt 0.470056 0.944649
vt 0.499662 0.966994
vt 0.477317 0.966994
vt 0.477317 0.944649
vt 0.499662 0.944649
vt 0.529267 0.944649
vt 0.529267 0.966994
vt 0.506923 0.966994
vt 0.506923 0.944649
vt 0.558873 0.944649
vt 0.558873 0.966993
vt 0.536528 0.966993
vt 0.536528 0.944649
vt 0.588478 0.966993
vt 0.566133 0.966993
vt 0.566133 0.944649
vt 0.588478 0.944649
vt 0.618083 0.966993
vt 0.595739 0.966993
vt 0.595739 0.944649
vt 0.618083 0.944649
vt 0.647689 0.966993
vt 0.625344 0.966993
vt 0.625344 0.944649
vt 0.647689 0.944649
vt 0.677294 0.966993
vt 0.654950 0.966993
vt 0.654950 0.944649
vt 0.677294 0.944649
vt 0.025975 0.944649
vt 0.025975 0.966993
vt 0.003630 0.966993
vt 0.003630 0.944649
vt 0.055580 0.944649
vt 0.055580 0.966993
vt 0.033236 0.966993
vt 0.033236 0.944649
vt 0.706900 0.966993
vt 0.684555 0.966993
vt 0.684555 0.944649
vt 0.706900 0.944649
vt 0.736505 0.966993
vt 0.714161 0.966993
vt 0.714161 0.944649
vt 0.736505 0.944649
vt 0.766111 0.966993
vt 0.743766 0.966993
vt 0.743766 0.944649
vt 0.766111 0.944649
vt 0.795716 0.966993
vt 0.773371 0.966993
vt 0.773371 0.944649
vt 0.795716 0.944649
vt 0.825321 0.944649
vt 0.825321 0.966993
vt 0.802977 0.966993
vt 0.802977 0.944649
vt 0.854927 0.944649
vt 0.854927 0.966994
vt 0.832582 0.966994
vt 0.832582 0.944649
vt 0.930316 0.937388
vt 0.928464 0.937388
vt 0.928464 0.474140
vt 0.930316 0.474140
vt 0.957652 0.921204
vt 0.955801 0.921204
vt 0.955801 0.620186
vt 0.957652 0.620186
vt 0.939428 0.466879
vt 0.937577 0.466879
vt 0.937577 0.003630
vt 0.939428 0.003630
vt 0.966764 0.304648
vt 0.964913 0.304648
vt 0.964913 0.003630
vt 0.966764 0.003630
vt 0.620187 0.003630
vt 0.921204 0.003630
vt 0.921204 0.466879
vt 0.620187 0.466879
vt 0.003630 0.474140
vt 0.304648 0.474140
vt 0.304648 0.937388
vt 0.003630 0.937388
vt 0.884532 0.966993
vt 0.862188 0.966993
vt 0.862188 0.944649
vt 0.884532 0.944649
vt 0.891793 0.966993
vt 0.891793 0.944649
vt 0.914138 0.944649
vt 0.914138 0.966993
vt 0.943743 0.966993
vt 0.921399 0.966993
vt 0.921399 0.944649
vt 0.943743 0.944649
vt 0.322029 0.966994
vt 0.299685 0.966994
vt 0.299685 0.944649
vt 0.322029 0.944649
vt 0.973349 0.944649
vt 0.973349 0.966993
vt 0.951004 0.966993
vt 0.951004 0.944649
vt 0.996370 0.003630
vt 0.996370 0.025975
vt 0.974025 0.025975
vt 0.974025 0.003630
vt 0.948540 0.466879
vt 0.946689 0.466879
vt 0.946689 0.003630
vt 0.948540 0.003630
vt 0.966764 0.612926
vt 0.964913 0.612926
vt 0.964913 0.311908
vt 0.966764 0.311908
vt 0.948540 0.937388
vt 0.946689 0.937388
vt 0.946689 0.474140
vt 0.948540 0.474140
vt 0.966764 0.921204
vt 0.964913 0.921204
vt 0.964913 0.620186
vt 0.966764 0.620186
vt 0.311908 0.474140
vt 0.612926 0.474140
vt 0.612926 0.937388
vt 0.311908 0.937388
vt 0.620187 0.474140
vt 0.921204 0.474140
vt 0.921204 0.937388
vt 0.620187 0.937388
vt 0.996370 0.174002
vt 0.974025 0.174002
vt 0.974025 0.151658
vt 0.996370 0.151658
vt 0.996370 0.203608
vt 0.974025 0.203608
vt 0.974025 0.181263
vt 0.996370 0.181263
vt 0.996370 0.233213
vt 0.974025 0.233213
vt 0.974025 0.210868
vt 0.996370 0.210868
vt 0.996370 0.055580
vt 0.974025 0.055580
vt 0.974025 0.033236
vt 0.996370 0.033236
vt 0.996370 0.062841
vt 0.996370 0.085186
vt 0.974025 0.085186
vt 0.974025 0.062841
vt 0.996370 0.092447
vt 0.996370 0.114791
vt 0.974025 0.114791
vt 0.974025 0.092447
vt 0.996370 0.440451
vt 0.974025 0.440451
vt 0.974025 0.418106
vt 0.996370 0.418106
vt 0.996370 0.262818
vt 0.974025 0.262818
vt 0.974025 0.240474
vt 0.996370 0.240474
vt 0.996370 0.292424
vt 0.974025 0.292424
vt 0.974025 0.270079
vt 0.996370 0.270079
vt 0.996370 0.144397
vt 0.974025 0.144397
vt 0.974025 0.122052
vt 0.996370 0.122052
vt 0.351635 0.944649
vt 0.351635 0.966994
vt 0.329290 0.966994
vt 0.329290 0.944649
vt 0.381240 0.944649
vt 0.381240 0.966993
vt 0.358896 0.966993
vt 0.358896 0.944649
vt 0.996370 0.322029
vt 0.974025 0.322029
vt 0.974025 0.299685
vt 0.996370 0.299685
vt 0.996370 0.351635
vt 0.974025 0.351635
vt 0.974025 0.329290
vt 0.996370 0.329290
vt 0.996370 0.381240
vt 0.974025 0.381240
vt 0.974025 0.358895
vt 0.996370 0.358895
vt 0.996370 0.410846
vt 0.974025 0.410846
vt 0.974025 0.388501
vt 0.996370 0.388501
vt 0.085186 0.944649
vt 0.085186 0.966993
vt 0.062841 0.966993
vt 0.062841 0.944649
vt 0.114791 0.944649
vt 0.114791 0.966993
vt 0.092447 0.966993
vt 0.092447 0.944649
s 0
usemtl Material.001
f 1/1/1 2/2/1 4/3/1 3/4/1
f 3/5/2 4/6/2 8/7/2 7/8/2
f 7/9/3 8/10/3 6/11/3 5/12/3
f 5/13/4 6/14/4 2/15/4 1/16/4
f 3/17/5 7/18/5 5/19/5 1/20/5
f 8/21/6 4/22/6 2/23/6 6/24/6
f 9/25/3 10/26/3 12/27/3 11/28/3
f 11/29/2 12/30/2 16/31/2 15/32/2
f 15/33/1 16/34/1 14/35/1 13/36/1
f 13/37/4 14/38/4 10/39/4 9/40/4
f 11/41/6 15/42/6 13/43/6 9/44/6
f 16/45/5 12/46/5 10/47/5 14/48/5
f 17/49/1 18/50/1 20/51/1 19/52/1
f 19/53/2 20/54/2 24/55/2 23/56/2
f 23/57/3 24/58/3 22/59/3 21/60/3
f 21/61/4 22/62/4 18/63/4 17/64/4
f 19/65/5 23/66/5 21/67/5 17/68/5
f 24/69/6 20/70/6 18/71/6 22/72/6
f 25/73/1 26/74/1 28/75/1 27/76/1
f 27/77/2 28/78/2 32/79/2 31/80/2
f 31/81/3 32/82/3 30/83/3 29/84/3
f 29/85/4 30/86/4 26/87/4 25/88/4
f 27/89/5 31/90/5 29/91/5 25/92/5
f 32/93/6 28/94/6 26/95/6 30/96/6
f 33/97/1 34/98/1 36/99/1 35/100/1
f 35/101/2 36/102/2 40/103/2 39/104/2
f 39/105/3 40/106/3 38/107/3 37/108/3
f 37/109/4 38/110/4 34/111/4 33/112/4
f 35/113/5 39/114/5 37/115/5 33/116/5
f 40/117/6 36/118/6 34/119/6 38/120/6
f 41/121/3 42/122/3 44/123/3 43/124/3
f 43/125/2 44/126/2 48/127/2 47/128/2
f 47/129/1 48/130/1 46/131/1 45/132/1
f 45/133/4 46/134/4 42/135/4 41/136/4
f 43/137/6 47/138/6 45/139/6 41/140/6
f 48/141/5 44/142/5 42/143/5 46/144/5
f 49/145/1 50/146/1 52/147/1 51/148/1
f 51/149/2 52/150/2 56/151/2 55/152/2
f 55/153/3 56/154/3 54/155/3 53/156/3
f 53/157/4 54/158/4 50/159/4 49/160/4
f 51/161/5 55/162/5 53/163/5 49/164/5
f 56/165/6 52/166/6 50/167/6 54/168/6
f 57/169/3 58/170/3 60/171/3 59/172/3
f 59/173/2 60/174/2 64/175/2 63/176/2
f 63/177/1 64/178/1 62/179/1 61/180/1
f 61/181/4 62/182/4 58/183/4 57/184/4
f 59/185/6 63/186/6 61/187/6 57/188/6
f 64/189/5 60/190/5 58/191/5 62/192/5
f 65/193/1 66/194/1 68/195/1 67/196/1
f 67/197/2 68/198/2 72/199/2 71/200/2
f 71/201/3 72/202/3 70/203/3 69/204/3
f 69/205/4 70/206/4 66/207/4 65/208/4
f 67/209/5 71/210/5 69/211/5 65/212/5
f 72/213/6 68/214/6 66/215/6 70/216/6
f 73/217/1 74/218/1 76/219/1 75/220/1
f 75/221/2 76/222/2 80/223/2 79/224/2
f 79/225/3 80/226/3 78/227/3 77/228/3
f 77/229/4 78/230/4 74/231/4 73/232/4
f 75/233/5 79/234/5 77/235/5 73/236/5
f 80/237/6 76/238/6 74/239/6 78/240/6
f 81/241/1 82/242/1 84/243/1 83/244/1
f 83/245/2 84/246/2 88/247/2 87/248/2
f 87/249/3 88/250/3 86/251/3 85/252/3
f 85/253/4 86/254/4 82/255/4 81/256/4
f 83/257/5 87/258/5 85/259/5 81/260/5
f 88/261/6 84/262/6 82/263/6 86/264/6
