# Blender 4.5.1 LTS
# www.blender.org
mtllib stool.mtl
o Cylinder
v 0.000000 1.143394 -0.515367
v 0.000000 1.055019 -0.350015
v 0.100543 1.143394 -0.505464
v 0.068284 1.055019 -0.343289
v 0.197222 1.143394 -0.476137
v 0.133945 1.055019 -0.323371
v 0.286322 1.143394 -0.428512
v 0.194458 1.055019 -0.291027
v 0.364419 1.143394 -0.364419
v 0.247498 1.055019 -0.247498
v 0.428512 1.143394 -0.286322
v 0.291027 1.055019 -0.194458
v 0.476137 1.143394 -0.197222
v 0.323371 1.055019 -0.133945
v 0.505464 1.143394 -0.100543
v 0.343289 1.055019 -0.068284
v 0.515367 1.143394 0.000000
v 0.350015 1.055019 0.000000
v 0.505464 1.143394 0.100543
v 0.343289 1.055019 0.068284
v 0.476137 1.143394 0.197222
v 0.323371 1.055019 0.133945
v 0.428512 1.143394 0.286322
v 0.291027 1.055019 0.194458
v 0.364419 1.143394 0.364419
v 0.247498 1.055019 0.247498
v 0.286322 1.143394 0.428512
v 0.194458 1.055019 0.291027
v 0.197222 1.143394 0.476137
v 0.133945 1.055019 0.323371
v 0.100543 1.143394 0.505464
v 0.068284 1.055019 0.343289
v 0.000000 1.143394 0.515367
v 0.000000 1.055019 0.350015
v -0.100543 1.143394 0.505464
v -0.068284 1.055019 0.343289
v -0.197222 1.143394 0.476137
v -0.133945 1.055019 0.323371
v -0.286322 1.143394 0.428512
v -0.194458 1.055019 0.291027
v -0.364419 1.143394 0.364419
v -0.247498 1.055019 0.247498
v -0.428512 1.143394 0.286322
v -0.291027 1.055019 0.194458
v -0.476137 1.143394 0.197222
v -0.323371 1.055019 0.133945
v -0.505464 1.143394 0.100543
v -0.343289 1.055019 0.068284
v -0.515367 1.143394 0.000000
v -0.350015 1.055019 0.000000
v -0.505464 1.143394 -0.100543
v -0.343289 1.055019 -0.068284
v -0.476137 1.143394 -0.197222
v -0.323371 1.055019 -0.133945
v -0.428512 1.143394 -0.286322
v -0.291027 1.055019 -0.194458
v -0.364419 1.143394 -0.364419
v -0.247498 1.055019 -0.247498
v -0.286322 1.143394 -0.428512
v -0.194458 1.055019 -0.291027
v -0.197222 1.143394 -0.476137
v -0.133945 1.055019 -0.323371
v -0.100543 1.143394 -0.505464
v -0.068284 1.055019 -0.343289
v 0.100543 1.055019 -0.505464
v 0.000000 1.055019 -0.515367
v 0.197222 1.055019 -0.476137
v 0.286322 1.055019 -0.428512
v 0.364419 1.055019 -0.364419
v 0.428512 1.055019 -0.286322
v 0.476137 1.055019 -0.197222
v 0.505464 1.055019 -0.100543
v 0.515367 1.055019 0.000000
v 0.505464 1.055019 0.100543
v 0.476137 1.055019 0.197222
v 0.428512 1.055019 0.286322
v 0.364419 1.055019 0.364419
v 0.286322 1.055019 0.428512
v 0.197222 1.055019 0.476137
v 0.100543 1.055019 0.505464
v 0.000000 1.055019 0.515367
v -0.100543 1.055019 0.505464
v -0.197222 1.055019 0.476137
v -0.286322 1.055019 0.428512
v -0.364419 1.055019 0.364419
v -0.428512 1.055019 0.286322
v -0.476137 1.055019 0.197222
v -0.505464 1.055019 0.100543
v -0.515367 1.055019 0.000000
v -0.505464 1.055019 -0.100543
v -0.476137 1.055019 -0.197222
v -0.428512 1.055019 -0.286322
v -0.364419 1.055019 -0.364419
v -0.286322 1.055019 -0.428512
v -0.197222 1.055019 -0.476137
v -0.100543 1.055019 -0.505464
v 0.084724 1.055019 -0.425935
v 0.000000 1.055019 -0.434280
v 0.166192 1.055019 -0.401222
v 0.241273 1.055019 -0.361090
v 0.307082 1.055019 -0.307082
v 0.361090 1.055019 -0.241273
v 0.401222 1.055019 -0.166192
v 0.425935 1.055019 -0.084724
v 0.434280 1.055019 0.000000
v 0.425935 1.055019 0.084724
v 0.401222 1.055019 0.166192
v 0.361090 1.055019 0.241273
v 0.307082 1.055019 0.307082
v 0.241273 1.055019 0.361090
v 0.166192 1.055019 0.401222
v 0.084724 1.055019 0.425935
v 0.000000 1.055019 0.434280
v -0.084724 1.055019 0.425935
v -0.166192 1.055019 0.401222
v -0.241273 1.055019 0.361090
v -0.307082 1.055019 0.307082
v -0.361090 1.055019 0.241273
v -0.401222 1.055019 0.166192
v -0.425935 1.055019 0.084724
v -0.434280 1.055019 0.000000
v -0.425935 1.055019 -0.084724
v -0.401222 1.055019 -0.166192
v -0.361090 1.055019 -0.241273
v -0.307082 1.055019 -0.307082
v -0.241273 1.055019 -0.361090
v -0.166192 1.055019 -0.401222
v -0.084724 1.055019 -0.425935
v 0.452594 -0.001745 -0.452594
v 0.399111 -0.001745 -0.496486
v 0.496486 -0.001745 -0.399111
v 0.459365 -0.001745 0.459365
v 0.514225 -0.001745 0.392518
v 0.392518 -0.001745 0.514225
v -0.453759 -0.001745 0.453759
v -0.397977 -0.001745 0.499539
v -0.499539 -0.001745 0.397977
v -0.458153 -0.001745 -0.458153
v -0.511051 -0.001745 -0.393698
v -0.393698 -0.001745 -0.511051
v 0.404170 -0.001745 -0.404170
v 0.361065 -0.001745 -0.439546
v 0.439546 -0.001745 -0.361065
v 0.398841 -0.001745 0.398841
v 0.443056 -0.001745 0.344965
v 0.344965 -0.001745 0.443056
v -0.403253 -0.001745 0.403253
v -0.358294 -0.001745 0.440150
v -0.440150 -0.001745 0.358294
v -0.399795 -0.001745 -0.399795
v -0.442428 -0.001745 -0.347846
v -0.347846 -0.001745 -0.442428
v 0.406222 0.702764 -0.293886
v 0.451354 0.350509 -0.346498
v 0.390039 0.350509 -0.305529
v 0.340533 0.702764 -0.249993
v 0.299722 0.702764 -0.299722
v 0.351946 0.350509 -0.351946
v 0.305529 0.350509 -0.390039
v 0.249993 0.702764 -0.340533
v 0.346498 0.350509 -0.451354
v 0.293886 0.702764 -0.406222
v 0.404090 0.350509 -0.404090
v 0.355586 0.702764 -0.355586
v -0.461064 0.350509 -0.342890
v -0.411077 0.702764 -0.292081
v -0.341494 0.702764 -0.245587
v -0.391961 0.350509 -0.296717
v -0.407796 0.350509 -0.407796
v -0.357439 0.702764 -0.357439
v -0.342890 0.350509 -0.461064
v -0.292081 0.702764 -0.411077
v -0.296717 0.350509 -0.391961
v -0.245587 0.702764 -0.341494
v -0.298264 0.702764 -0.298264
v -0.349029 0.350509 -0.349029
v -0.355974 0.702764 0.355974
v -0.404867 0.350509 0.404867
v -0.453389 0.350509 0.345742
v -0.407240 0.702764 0.293507
v -0.390442 0.350509 0.303682
v -0.340734 0.702764 0.249070
v -0.299416 0.702764 0.299416
v -0.351335 0.350509 0.351335
v -0.303682 0.350509 0.390442
v -0.249070 0.702764 0.340734
v -0.345742 0.350509 0.453389
v -0.293507 0.702764 0.407240
v 0.342103 0.350509 0.463180
v 0.291688 0.702764 0.412135
v 0.357843 0.702764 0.357843
v 0.408604 0.350509 0.408604
v 0.294796 0.350509 0.392380
v 0.244627 0.702764 0.341703
v 0.297946 0.702764 0.297946
v 0.348394 0.350509 0.348394
v 0.392380 0.350509 0.294796
v 0.341703 0.702764 0.244627
v 0.463180 0.350509 0.342103
v 0.412135 0.702764 0.291688
v 0.421266 0.585346 -0.311423
v 0.436310 0.467928 -0.328961
v 0.373537 0.467928 -0.287017
v 0.357035 0.585346 -0.268505
v 0.317130 0.585346 -0.317130
v 0.334538 0.467928 -0.334538
v 0.287017 0.467928 -0.373537
v 0.268505 0.585346 -0.357035
v 0.328961 0.467928 -0.436310
v 0.311423 0.585346 -0.421266
v 0.387922 0.467928 -0.387922
v 0.371754 0.585346 -0.371754
v 0.325298 0.467928 0.446165
v 0.308493 0.585346 0.429150
v 0.374763 0.585346 0.374763
v 0.391684 0.467928 0.391684
v 0.278073 0.467928 0.375488
v 0.261350 0.585346 0.358595
v 0.314762 0.585346 0.314762
v 0.331578 0.467928 0.331578
v 0.375488 0.467928 0.278073
v 0.358595 0.585346 0.261350
v 0.446165 0.467928 0.325298
v 0.429150 0.585346 0.308493
v -0.372272 0.585346 0.372272
v -0.388569 0.467928 0.388569
v -0.438006 0.467928 0.328330
v -0.422623 0.585346 0.310919
v -0.373873 0.467928 0.285478
v -0.357304 0.585346 0.267274
v -0.316722 0.585346 0.316722
v -0.334028 0.467928 0.334028
v -0.285478 0.467928 0.373873
v -0.267274 0.585346 0.357304
v -0.328330 0.467928 0.438006
v -0.310919 0.585346 0.422623
v -0.444402 0.467928 -0.325953
v -0.427739 0.585346 -0.309017
v -0.358316 0.585346 -0.262630
v -0.375139 0.467928 -0.279674
v -0.391011 0.467928 -0.391011
v -0.374225 0.585346 -0.374225
v -0.325953 0.467928 -0.444402
v -0.309017 0.585346 -0.427739
v -0.279674 0.467928 -0.375139
v -0.262630 0.585346 -0.358316
v -0.315185 0.585346 -0.315185
v -0.332107 0.467928 -0.332107
vn 0.0980 -0.0000 -0.9952
vn 0.2903 -0.0000 -0.9569
vn 0.4714 -0.0000 -0.8819
vn 0.6344 -0.0000 -0.7730
vn 0.7730 -0.0000 -0.6344
vn 0.8819 -0.0000 -0.4714
vn 0.9569 -0.0000 -0.2903
vn 0.9952 -0.0000 -0.0980
vn 0.9952 -0.0000 0.0980
vn 0.9569 -0.0000 0.2903
vn 0.8819 -0.0000 0.4714
vn 0.7730 -0.0000 0.6344
vn 0.6344 -0.0000 0.7730
vn 0.4714 -0.0000 0.8819
vn 0.2903 -0.0000 0.9569
vn 0.0980 -0.0000 0.9952
vn -0.0980 -0.0000 0.9952
vn -0.2903 -0.0000 0.9569
vn -0.4714 -0.0000 0.8819
vn -0.6344 -0.0000 0.7730
vn -0.7730 -0.0000 0.6344
vn -0.8819 -0.0000 0.4714
vn -0.9569 -0.0000 0.2903
vn -0.9952 -0.0000 0.0980
vn -0.9952 -0.0000 -0.0980
vn -0.9569 -0.0000 -0.2903
vn -0.8819 -0.0000 -0.4714
vn -0.7730 -0.0000 -0.6344
vn -0.6344 -0.0000 -0.7730
vn -0.4714 -0.0000 -0.8819
vn -0.0000 -1.0000 -0.0000
vn -0.2903 -0.0000 -0.9569
vn -0.0980 -0.0000 -0.9952
vn -0.0000 1.0000 -0.0000
vn -0.5549 -0.0504 -0.8304
vn -0.6219 0.1972 -0.7578
vn -0.8309 -0.0385 0.5552
vn -0.7587 0.1917 0.6226
vn -0.7578 0.1972 -0.6219
vn 0.5548 -0.0529 0.8303
vn 0.6217 0.1988 0.7576
vn -0.5551 -0.0411 0.8308
vn 0.8308 -0.0411 -0.5551
vn -0.6210 -0.2043 0.7567
vn -0.7578 -0.1976 -0.6219
vn -0.7567 -0.2043 0.6210
vn 0.6212 -0.2031 -0.7569
vn -0.6219 -0.1976 -0.7578
vn 0.7576 -0.1988 0.6217
vn 0.7569 -0.2031 -0.6212
vn -0.8303 -0.0529 -0.5548
vn 0.6228 0.1903 -0.7589
vn 0.6217 -0.1988 0.7576
vn 0.5552 -0.0385 -0.8309
vn 0.7576 0.1988 0.6217
vn 0.8304 -0.0504 0.5549
vn 0.7589 0.1903 -0.6228
vn -0.6226 0.1917 0.7587
vn 0.0026 -0.1411 -0.9900
vn -0.9900 -0.1408 0.0032
vn 0.9900 -0.1408 -0.0021
vn -0.0026 -0.1405 0.9901
vn 0.0113 0.1338 -0.9909
vn 0.9907 0.1353 -0.0138
vn -0.0114 0.1367 0.9905
vn -0.9908 0.1352 0.0090
vt 0.765003 0.089513
vt 0.765003 0.007067
vt 0.773047 0.007067
vt 0.773047 0.089513
vt 0.780784 0.007066
vt 0.780784 0.089513
vt 0.787918 0.007066
vt 0.787918 0.089512
vt 0.794174 0.007066
vt 0.794174 0.089512
vt 0.741252 0.734273
vt 0.741252 0.651827
vt 0.747509 0.651827
vt 0.747509 0.734273
vt 0.754644 0.651827
vt 0.754644 0.734273
vt 0.762382 0.651828
vt 0.762382 0.734274
vt 0.770426 0.651828
vt 0.770426 0.734274
vt 0.778467 0.651828
vt 0.778467 0.734274
vt 0.786195 0.651827
vt 0.786195 0.734273
vt 0.793314 0.651827
vt 0.793314 0.734273
vt 0.799550 0.651827
vt 0.799550 0.734273
vt 0.755384 0.830851
vt 0.755384 0.748405
vt 0.761621 0.748405
vt 0.761621 0.830851
vt 0.768741 0.748406
vt 0.768741 0.830852
vt 0.776470 0.748406
vt 0.776470 0.830852
vt 0.784510 0.748406
vt 0.784510 0.830852
vt 0.668822 0.830852
vt 0.668822 0.748406
vt 0.676866 0.748406
vt 0.676866 0.830852
vt 0.684604 0.748406
vt 0.684604 0.830852
vt 0.691738 0.748405
vt 0.691738 0.830851
vt 0.697994 0.748405
vt 0.697994 0.830851
vt 0.668822 0.734273
vt 0.668822 0.651827
vt 0.675077 0.651827
vt 0.675077 0.734273
vt 0.682210 0.651827
vt 0.682210 0.734273
vt 0.689947 0.651827
vt 0.689947 0.734273
vt 0.697991 0.651828
vt 0.697991 0.734274
vt 0.706032 0.651827
vt 0.706032 0.734273
vt 0.713761 0.651827
vt 0.713761 0.734273
vt 0.720882 0.651827
vt 0.720882 0.734273
vt 0.727121 0.651827
vt 0.727121 0.734273
vt 0.712125 0.830851
vt 0.712125 0.748405
vt 0.718363 0.748406
vt 0.718363 0.830852
vt 0.725482 0.748406
vt 0.725482 0.830852
vt 0.692086 0.069732
vt 0.688205 0.065851
vt 0.685156 0.061288
vt 0.683056 0.056217
vt 0.681985 0.050834
vt 0.681985 0.045346
vt 0.683056 0.039963
vt 0.685156 0.034893
vt 0.688205 0.030329
vt 0.692086 0.026448
vt 0.696649 0.023399
vt 0.701720 0.021299
vt 0.707103 0.020228
vt 0.712591 0.020228
vt 0.717974 0.021299
vt 0.723045 0.023399
vt 0.727608 0.026448
vt 0.731489 0.030329
vt 0.734538 0.034893
vt 0.736638 0.039963
vt 0.737709 0.045346
vt 0.737709 0.050834
vt 0.736638 0.056217
vt 0.734538 0.061288
vt 0.731489 0.065851
vt 0.727608 0.069732
vt 0.723045 0.072781
vt 0.717974 0.074882
vt 0.712591 0.075952
vt 0.707103 0.075952
vt 0.701720 0.074882
vt 0.696649 0.072781
vt 0.733211 0.748406
vt 0.733211 0.830852
vt 0.741252 0.748406
vt 0.741252 0.830852
vt 0.677981 0.170422
vt 0.673491 0.163703
vt 0.670399 0.156237
vt 0.668822 0.148311
vt 0.668822 0.140230
vt 0.670399 0.132304
vt 0.673491 0.124838
vt 0.677981 0.118119
vt 0.683695 0.112405
vt 0.690415 0.107915
vt 0.697881 0.104823
vt 0.705806 0.103246
vt 0.713888 0.103246
vt 0.721813 0.104823
vt 0.729279 0.107915
vt 0.735999 0.112405
vt 0.741713 0.118119
vt 0.746202 0.124838
vt 0.749295 0.132304
vt 0.750871 0.140230
vt 0.750871 0.148311
vt 0.749295 0.156237
vt 0.746202 0.163703
vt 0.741713 0.170422
vt 0.735999 0.176137
vt 0.729279 0.180626
vt 0.721813 0.183719
vt 0.713888 0.185295
vt 0.705806 0.185295
vt 0.697881 0.183719
vt 0.690415 0.180626
vt 0.683695 0.176137
vt 0.682995 0.070127
vt 0.687810 0.074942
vt 0.683695 0.079956
vt 0.677981 0.074242
vt 0.693472 0.078726
vt 0.690415 0.084446
vt 0.699763 0.081332
vt 0.697881 0.087538
vt 0.706442 0.082660
vt 0.705806 0.089115
vt 0.713252 0.082660
vt 0.713888 0.089115
vt 0.719931 0.081332
vt 0.721813 0.087538
vt 0.726222 0.078726
vt 0.729279 0.084446
vt 0.731884 0.074942
vt 0.735999 0.079956
vt 0.736699 0.070127
vt 0.741713 0.074242
vt 0.740482 0.064465
vt 0.746202 0.067523
vt 0.743088 0.058174
vt 0.749295 0.060057
vt 0.744417 0.051495
vt 0.750871 0.052131
vt 0.744417 0.044685
vt 0.750871 0.044050
vt 0.743088 0.038007
vt 0.749295 0.036124
vt 0.740482 0.031715
vt 0.746202 0.028658
vt 0.736699 0.026053
vt 0.741713 0.021939
vt 0.731884 0.021238
vt 0.735999 0.016224
vt 0.726222 0.017455
vt 0.729279 0.011735
vt 0.719931 0.014849
vt 0.721813 0.008642
vt 0.713252 0.013520
vt 0.713888 0.007066
vt 0.706442 0.013520
vt 0.705806 0.007066
vt 0.699763 0.014849
vt 0.697881 0.008642
vt 0.693472 0.017455
vt 0.690415 0.011735
vt 0.687810 0.021238
vt 0.683695 0.016224
vt 0.682995 0.026053
vt 0.677981 0.021939
vt 0.679212 0.031715
vt 0.673491 0.028658
vt 0.676606 0.038007
vt 0.670399 0.036124
vt 0.675277 0.044685
vt 0.668822 0.044050
vt 0.675277 0.051495
vt 0.668822 0.052131
vt 0.676606 0.058174
vt 0.670399 0.060057
vt 0.679212 0.064465
vt 0.673491 0.067523
vt 0.910924 0.528131
vt 0.905895 0.528070
vt 0.906180 0.199427
vt 0.910924 0.199484
vt 0.277608 0.335688
vt 0.272424 0.335688
vt 0.268388 0.007066
vt 0.273536 0.007066
vt 0.694351 0.528145
vt 0.688682 0.528075
vt 0.688653 0.199427
vt 0.694351 0.199497
vt 0.189955 0.335688
vt 0.185219 0.335688
vt 0.181315 0.007066
vt 0.185782 0.007066
vt 0.250223 0.335688
vt 0.245038 0.335688
vt 0.249108 0.007066
vt 0.254257 0.007066
vt 0.968471 0.528128
vt 0.963573 0.528069
vt 0.963922 0.199427
vt 0.968471 0.199482
vt 0.016445 0.335688
vt 0.011134 0.335688
vt 0.007066 0.007066
vt 0.012405 0.007066
vt 0.891669 0.528074
vt 0.886136 0.528142
vt 0.886174 0.199494
vt 0.891669 0.199427
vt 0.808306 0.080733
vt 0.808743 0.076294
vt 0.814220 0.076294
vt 0.813678 0.081802
vt 0.808306 0.071856
vt 0.813678 0.070787
vt 0.765003 0.182546
vt 0.765549 0.176998
vt 0.772396 0.176998
vt 0.771718 0.183882
vt 0.765003 0.171450
vt 0.771718 0.170114
vt 0.813956 0.171229
vt 0.813500 0.175859
vt 0.807787 0.175859
vt 0.808353 0.170114
vt 0.813956 0.180488
vt 0.808353 0.181603
vt 0.793656 0.171402
vt 0.793129 0.176752
vt 0.786527 0.176752
vt 0.787181 0.170114
vt 0.793656 0.182101
vt 0.787181 0.183389
vt 0.871991 0.528142
vt 0.866457 0.528074
vt 0.866495 0.199427
vt 0.871991 0.199495
vt 0.363257 0.335688
vt 0.359539 0.335688
vt 0.355369 0.007066
vt 0.358822 0.007066
vt 0.520495 0.335688
vt 0.516214 0.335689
vt 0.512172 0.007066
vt 0.516476 0.007066
vt 0.572232 0.335689
vt 0.568514 0.335688
vt 0.572950 0.007066
vt 0.576402 0.007066
vt 0.598497 0.335689
vt 0.594679 0.335689
vt 0.590534 0.007066
vt 0.594136 0.007066
vt 0.650648 0.335689
vt 0.646368 0.335689
vt 0.650388 0.007066
vt 0.654691 0.007066
vt 0.442054 0.335688
vt 0.437876 0.335689
vt 0.433807 0.007066
vt 0.437956 0.007066
vt 0.493897 0.335689
vt 0.490078 0.335688
vt 0.494438 0.007066
vt 0.498041 0.007066
vt 0.949208 0.528069
vt 0.944309 0.528128
vt 0.944309 0.199482
vt 0.948859 0.199427
vt 0.337365 0.335688
vt 0.332752 0.335688
vt 0.336953 0.007066
vt 0.341238 0.007066
vt 0.415608 0.335688
vt 0.411430 0.335688
vt 0.415527 0.007066
vt 0.419676 0.007066
vt 0.674522 0.528075
vt 0.668852 0.528146
vt 0.668822 0.199498
vt 0.674522 0.199427
vt 0.163114 0.335688
vt 0.157804 0.335688
vt 0.161845 0.007066
vt 0.167183 0.007066
vt 0.930083 0.528070
vt 0.925055 0.528131
vt 0.925055 0.199484
vt 0.929799 0.199427
vt 0.102723 0.335688
vt 0.098108 0.335688
vt 0.094237 0.007066
vt 0.098522 0.007066
vt 0.076202 0.335688
vt 0.071465 0.335688
vt 0.075637 0.007066
vt 0.080105 0.007066
vt 0.111124 0.992933
vt 0.105852 0.992932
vt 0.101980 0.664310
vt 0.106924 0.664310
vt 0.104123 0.445229
vt 0.099399 0.445229
vt 0.329620 0.992932
vt 0.324348 0.992932
vt 0.328550 0.664310
vt 0.333493 0.664310
vt 0.336074 0.445229
vt 0.331351 0.445229
vt 0.793128 0.637617
vt 0.787530 0.637678
vt 0.787880 0.309032
vt 0.793128 0.308974
vt 0.949325 0.637617
vt 0.944309 0.637677
vt 0.563891 0.992934
vt 0.559643 0.992934
vt 0.564078 0.664311
vt 0.568061 0.664311
vt 0.570842 0.445230
vt 0.567036 0.445229
vt 0.372127 0.992933
vt 0.367878 0.992934
vt 0.363708 0.664311
vt 0.367692 0.664311
vt 0.364736 0.445229
vt 0.360929 0.445229
vt 0.832585 0.637678
vt 0.826988 0.637617
vt 0.826988 0.308974
vt 0.832235 0.309032
vt 0.968471 0.637677
vt 0.963456 0.637616
vt 0.407471 0.992934
vt 0.403235 0.992933
vt 0.407333 0.664311
vt 0.411540 0.664311
vt 0.414252 0.445229
vt 0.410064 0.445229
vt 0.450250 0.992934
vt 0.446015 0.992934
vt 0.441946 0.664311
vt 0.446152 0.664311
vt 0.443420 0.445229
vt 0.439233 0.445230
vt 0.753656 0.637692
vt 0.748045 0.637623
vt 0.748045 0.308976
vt 0.753618 0.309044
vt 0.871991 0.637692
vt 0.866444 0.637623
vt 0.773399 0.637623
vt 0.767788 0.637691
vt 0.767826 0.309044
vt 0.773399 0.308976
vt 0.891669 0.637623
vt 0.886123 0.637691
vt 0.242154 0.992932
vt 0.236897 0.992932
vt 0.240967 0.664310
vt 0.246188 0.664310
vt 0.248878 0.445229
vt 0.243681 0.445229
vt 0.285750 0.992932
vt 0.280494 0.992932
vt 0.276459 0.664310
vt 0.281679 0.664310
vt 0.278965 0.445229
vt 0.273769 0.445229
vt 0.068395 0.992932
vt 0.063123 0.992933
vt 0.067294 0.664310
vt 0.072298 0.664310
vt 0.074900 0.445229
vt 0.070075 0.445229
vt 0.852312 0.637618
vt 0.846716 0.637681
vt 0.847001 0.309034
vt 0.852312 0.308975
vt 0.930178 0.637618
vt 0.925055 0.637680
vt 0.485608 0.992934
vt 0.481358 0.992934
vt 0.485718 0.664311
vt 0.489752 0.664311
vt 0.492515 0.445230
vt 0.488625 0.445229
vt 0.607219 0.992934
vt 0.602970 0.992934
vt 0.598825 0.664312
vt 0.602858 0.664311
vt 0.599950 0.445230
vt 0.596061 0.445230
vt 0.198299 0.992932
vt 0.193028 0.992932
vt 0.189124 0.664310
vt 0.194127 0.664310
vt 0.191345 0.445229
vt 0.186521 0.445229
vt 0.812856 0.637681
vt 0.807260 0.637618
vt 0.807260 0.308975
vt 0.812572 0.309034
vt 0.910924 0.637680
vt 0.905801 0.637618
vt 0.154977 0.992932
vt 0.149722 0.992933
vt 0.153763 0.664311
vt 0.159046 0.664310
vt 0.161758 0.445229
vt 0.156457 0.445229
vt 0.714133 0.637624
vt 0.708522 0.637695
vt 0.708493 0.309047
vt 0.714133 0.308976
vt 0.674522 0.637625
vt 0.668862 0.637695
vt 0.642563 0.992934
vt 0.638327 0.992934
vt 0.642348 0.664311
vt 0.646606 0.664312
vt 0.649301 0.445230
vt 0.645028 0.445229
vt 0.528534 0.992934
vt 0.524297 0.992934
vt 0.520255 0.664311
vt 0.524515 0.664311
vt 0.521835 0.445229
vt 0.517561 0.445230
vt 0.024525 0.992933
vt 0.019269 0.992932
vt 0.015201 0.664310
vt 0.020485 0.664310
vt 0.017791 0.445229
vt 0.012489 0.445229
vt 0.733913 0.637694
vt 0.728303 0.637624
vt 0.728274 0.308976
vt 0.733913 0.309046
vt 0.694351 0.637695
vt 0.688692 0.637624
vt 0.826988 0.199427
vt 0.832119 0.199483
vt 0.808306 0.056655
vt 0.808306 0.007066
vt 0.813901 0.010908
vt 0.813487 0.053288
vt 0.362319 0.554770
vt 0.366214 0.554770
vt 0.565557 0.554770
vt 0.569451 0.554770
vt 0.787996 0.199483
vt 0.793128 0.199427
vt 0.329950 0.554770
vt 0.334783 0.554769
vt 0.100689 0.554770
vt 0.105523 0.554770
vt 0.728264 0.199427
vt 0.733913 0.199497
vt 0.643688 0.554770
vt 0.601404 0.554770
vt 0.013845 0.554770
vt 0.019138 0.554770
vt 0.518908 0.554770
vt 0.523175 0.554770
vt 0.647953 0.554771
vt 0.708483 0.199498
vt 0.714133 0.199427
vt 0.155110 0.554770
vt 0.160402 0.554770
vt 0.807260 0.199427
vt 0.812478 0.199486
vt 0.487172 0.554770
vt 0.444786 0.554770
vt 0.187822 0.554769
vt 0.192736 0.554770
vt 0.597443 0.554771
vt 0.491134 0.554770
vt 0.847095 0.199486
vt 0.852312 0.199427
vt 0.819285 0.651827
vt 0.819285 0.701375
vt 0.814024 0.697939
vt 0.813681 0.655657
vt 0.068684 0.554770
vt 0.073599 0.554769
vt 0.275114 0.554769
vt 0.280322 0.554770
vt 0.242324 0.554770
vt 0.247533 0.554769
vt 0.767839 0.199495
vt 0.773399 0.199427
vt 0.829625 0.103644
vt 0.829625 0.153233
vt 0.824103 0.149477
vt 0.824372 0.107092
vt 0.748045 0.199427
vt 0.753605 0.199495
vt 0.440589 0.554770
vt 0.408698 0.554770
vt 0.412896 0.554770
vt 0.823441 0.751784
vt 0.823781 0.794267
vt 0.818267 0.798035
vt 0.818267 0.748405
vt 0.799074 0.751698
vt 0.804136 0.748405
vt 0.804136 0.800794
vt 0.798642 0.797024
vt 0.770599 0.155983
vt 0.765528 0.152704
vt 0.765003 0.107506
vt 0.770599 0.103644
vt 0.784730 0.103644
vt 0.790336 0.107492
vt 0.789903 0.152567
vt 0.784730 0.155931
vt 0.804467 0.103644
vt 0.809631 0.107022
vt 0.809971 0.152226
vt 0.804467 0.155981
s 0
usemtl Material.001
f 181/205/35 149/208/35 137/207/35 179/206/35
f 171/209/36 140/212/36 138/211/36 169/210/36
f 193/213/37 146/216/37 134/215/37 189/214/37
f 179/217/38 137/220/38 135/219/38 178/218/38
f 169/221/39 138/224/39 139/223/39 165/222/39
f 155/225/40 143/228/40 131/227/40 154/226/40
f 189/229/41 134/232/41 132/231/41 192/230/41
f 165/233/42 139/236/42 151/235/42 168/234/42
f 142/237/31 130/240/31 129/239/31 141/238/31
f 141/238/31 129/239/31 131/242/31 143/241/31
f 145/243/31 133/246/31 132/245/31 144/244/31
f 144/244/31 132/245/31 134/248/31 146/247/31
f 148/249/31 136/252/31 135/251/31 147/250/31
f 147/250/31 135/251/31 137/254/31 149/253/31
f 151/255/31 139/258/31 138/257/31 150/256/31
f 150/256/31 138/257/31 140/260/31 152/259/31
f 173/261/43 152/264/43 140/263/43 171/262/43
f 159/265/44 142/268/44 141/267/44 158/266/44
f 197/269/45 145/272/45 144/271/45 196/270/45
f 158/273/46 141/276/46 143/275/46 155/274/46
f 185/277/47 148/280/47 147/279/47 184/278/47
f 196/281/48 144/284/48 146/283/48 193/282/48
f 168/285/49 151/288/49 150/287/49 176/286/49
f 184/289/50 147/292/50 149/291/50 181/290/50
f 161/293/51 130/296/51 142/295/51 159/294/51
f 163/297/52 129/300/52 130/299/52 161/298/52
f 176/301/53 150/304/53 152/303/53 173/302/53
f 199/305/54 133/308/54 145/307/54 197/306/54
f 192/309/55 132/312/55 133/311/55 199/310/55
f 187/313/56 136/316/56 148/315/56 185/314/56
f 154/317/57 131/320/57 129/319/57 163/318/57
f 178/321/58 135/324/58 136/323/58 187/322/58
f 102/325/57 153/328/57 164/327/57 101/326/57
f 202/329/57 154/317/57 163/318/57 211/330/57
f 101/331/52 164/334/52 162/333/52 100/332/52
f 211/335/52 163/297/52 161/298/52 209/336/52
f 100/337/51 162/340/51 160/339/51 8/338/51
f 209/341/51 161/293/51 159/294/51 207/342/51
f 10/343/46 157/346/46 156/345/46 12/344/46
f 206/347/46 158/273/46 155/274/46 203/348/46
f 8/349/44 160/352/44 157/351/44 10/350/44
f 207/353/44 159/265/44 158/266/44 206/354/44
f 12/355/40 156/358/40 153/357/40 102/356/40
f 203/359/40 155/225/40 154/226/40 202/360/40
f 58/361/53 175/364/53 174/363/53 60/362/53
f 248/365/53 176/301/53 173/302/53 245/366/53
f 56/367/49 167/370/49 175/369/49 58/368/49
f 240/371/49 168/285/49 176/286/49 248/372/49
f 60/373/43 174/376/43 172/375/43 126/374/43
f 245/377/43 173/261/43 171/262/43 243/378/43
f 124/379/42 166/382/42 167/381/42 56/380/42
f 237/383/42 165/233/42 168/234/42 240/384/42
f 125/385/39 170/388/39 166/387/39 124/386/39
f 241/389/39 169/221/39 165/222/39 237/390/39
f 126/391/36 172/394/36 170/393/36 125/392/36
f 243/395/36 171/209/36 169/210/36 241/396/36
f 117/397/58 177/400/58 188/399/58 116/398/58
f 226/401/58 178/321/58 187/322/58 235/402/58
f 116/403/56 188/406/56 186/405/56 40/404/56
f 235/407/56 187/313/56 185/314/56 233/408/56
f 42/409/50 183/412/50 182/411/50 44/410/50
f 232/413/50 184/289/50 181/290/50 229/414/50
f 40/415/47 186/418/47 183/417/47 42/416/47
f 233/419/47 185/277/47 184/278/47 232/420/47
f 118/421/38 180/424/38 177/423/38 117/422/38
f 227/425/38 179/217/38 178/218/38 226/426/38
f 44/427/35 182/430/35 180/429/35 118/428/35
f 229/431/35 181/205/35 179/206/35 227/432/35
f 109/433/55 191/436/55 200/435/55 108/434/55
f 216/437/55 192/309/55 199/310/55 223/438/55
f 108/439/54 200/442/54 198/441/54 24/440/54
f 223/443/54 199/305/54 197/306/54 221/444/54
f 26/445/48 195/448/48 194/447/48 28/446/48
f 220/449/48 196/281/48 193/282/48 217/450/48
f 24/451/45 198/454/45 195/453/45 26/452/45
f 221/455/45 197/269/45 196/270/45 220/456/45
f 110/457/41 190/460/41 191/459/41 109/458/41
f 213/461/41 189/229/41 192/230/41 216/462/41
f 28/463/37 194/466/37 190/465/37 110/464/37
f 217/467/37 193/213/37 189/214/37 213/468/37
f 156/358/40 204/470/40 201/469/40 153/357/40
f 201/471/34 204/474/34 222/473/34 224/472/34
f 160/352/44 208/476/44 205/475/44 157/351/44
f 208/476/44 207/353/44 206/354/44 205/475/44
f 157/346/46 205/478/46 204/477/46 156/345/46
f 205/478/46 206/347/46 203/348/46 204/477/46
f 162/340/51 210/480/51 208/479/51 160/339/51
f 164/334/52 212/482/52 210/481/52 162/333/52
f 212/482/52 211/335/52 209/336/52 210/481/52
f 153/328/57 201/484/57 212/483/57 164/327/57
f 201/484/57 202/329/57 211/330/57 212/483/57
f 194/466/37 218/486/37 214/485/37 190/465/37
f 218/487/59 217/450/59 233/419/59 234/488/59
f 190/460/41 214/490/41 215/489/41 191/459/41
f 214/490/41 213/461/41 216/462/41 215/489/41
f 198/454/45 222/492/45 219/491/45 195/453/45
f 222/492/45 221/455/45 220/456/45 219/491/45
f 195/448/48 219/493/48 218/487/48 194/447/48
f 219/493/48 220/449/48 217/450/48 218/487/48
f 200/442/54 224/495/54 222/494/54 198/441/54
f 204/477/60 203/348/60 221/455/60 222/492/60
f 191/436/55 215/497/55 224/496/55 200/435/55
f 215/497/55 216/437/55 223/438/55 224/496/55
f 182/430/35 230/499/35 228/498/35 180/429/35
f 229/414/61 240/371/61 239/501/61 230/500/61
f 180/424/38 228/503/38 225/502/38 177/423/38
f 228/503/38 227/425/38 226/426/38 225/502/38
f 186/418/47 234/488/47 231/504/47 183/417/47
f 234/488/47 233/419/47 232/420/47 231/504/47
f 183/412/50 231/505/50 230/500/50 182/411/50
f 231/505/50 232/413/50 229/414/50 230/500/50
f 188/406/56 236/507/56 234/506/56 186/405/56
f 214/508/34 218/511/34 234/510/34 236/509/34
f 177/400/58 225/513/58 236/512/58 188/399/58
f 225/513/58 226/401/58 235/402/58 236/512/58
f 172/394/36 244/515/36 242/514/36 170/393/36
f 244/515/36 243/395/36 241/396/36 242/514/36
f 170/388/39 242/517/39 238/516/39 166/387/39
f 242/517/39 241/389/39 237/390/39 238/516/39
f 166/382/42 238/519/42 239/518/42 167/381/42
f 228/520/34 230/523/34 239/522/34 238/521/34
f 174/376/43 246/525/43 244/524/43 172/375/43
f 167/370/49 239/501/49 247/526/49 175/369/49
f 239/501/49 240/371/49 248/372/49 247/526/49
f 175/364/53 247/528/53 246/527/53 174/363/53
f 247/528/53 248/365/53 245/366/53 246/527/53
f 208/529/34 210/532/34 244/531/34 246/530/34
f 208/476/62 246/527/62 245/366/62 207/353/62
f 207/533/31 245/536/31 243/535/31 209/534/31
f 210/481/63 209/336/63 243/395/63 244/515/63
f 202/537/31 223/540/31 221/539/31 203/538/31
f 201/484/64 224/496/64 223/438/64 202/329/64
f 213/541/31 235/544/31 233/543/31 217/542/31
f 214/490/65 236/512/65 235/402/65 213/461/65
f 227/545/31 237/548/31 240/547/31 229/546/31
f 228/503/66 238/516/66 237/390/66 227/425/66
usemtl Material.002
f 1/1/1 3/4/1 65/3/1 66/2/1
f 3/4/2 5/6/2 67/5/2 65/3/2
f 5/6/3 7/8/3 68/7/3 67/5/3
f 7/8/4 9/10/4 69/9/4 68/7/4
f 9/11/5 11/14/5 70/13/5 69/12/5
f 11/14/6 13/16/6 71/15/6 70/13/6
f 13/16/7 15/18/7 72/17/7 71/15/7
f 15/18/8 17/20/8 73/19/8 72/17/8
f 17/20/9 19/22/9 74/21/9 73/19/9
f 19/22/10 21/24/10 75/23/10 74/21/10
f 21/24/11 23/26/11 76/25/11 75/23/11
f 23/26/12 25/28/12 77/27/12 76/25/12
f 25/29/13 27/32/13 78/31/13 77/30/13
f 27/32/14 29/34/14 79/33/14 78/31/14
f 29/34/15 31/36/15 80/35/15 79/33/15
f 31/36/16 33/38/16 81/37/16 80/35/16
f 33/39/17 35/42/17 82/41/17 81/40/17
f 35/42/18 37/44/18 83/43/18 82/41/18
f 37/44/19 39/46/19 84/45/19 83/43/19
f 39/46/20 41/48/20 85/47/20 84/45/20
f 41/49/21 43/52/21 86/51/21 85/50/21
f 43/52/22 45/54/22 87/53/22 86/51/22
f 45/54/23 47/56/23 88/55/23 87/53/23
f 47/56/24 49/58/24 89/57/24 88/55/24
f 49/58/25 51/60/25 90/59/25 89/57/25
f 51/60/26 53/62/26 91/61/26 90/59/26
f 53/62/27 55/64/27 92/63/27 91/61/27
f 55/64/28 57/66/28 93/65/28 92/63/28
f 57/67/29 59/70/29 94/69/29 93/68/29
f 59/70/30 61/72/30 95/71/30 94/69/30
f 4/73/31 6/104/31 8/103/31 10/102/31 12/101/31 14/100/31 16/99/31 18/98/31 20/97/31 22/96/31 24/95/31 26/94/31 28/93/31 30/92/31 32/91/31 34/90/31 36/89/31 38/88/31 40/87/31 42/86/31 44/85/31 46/84/31 48/83/31 50/82/31 52/81/31 54/80/31 56/79/31 58/78/31 60/77/31 62/76/31 64/75/31 2/74/31
f 61/72/32 63/106/32 96/105/32 95/71/32
f 63/106/33 1/108/33 66/107/33 96/105/33
f 1/109/34 63/140/34 61/139/34 59/138/34 57/137/34 55/136/34 53/135/34 51/134/34 49/133/34 47/132/34 45/131/34 43/130/34 41/129/34 39/128/34 37/127/34 35/126/34 33/125/34 31/124/34 29/123/34 27/122/34 25/121/34 23/120/34 21/119/34 19/118/34 17/117/34 15/116/34 13/115/34 11/114/34 9/113/34 7/112/34 5/111/34 3/110/34
f 98/141/31 66/144/31 65/143/31 97/142/31
f 97/142/31 65/143/31 67/146/31 99/145/31
f 99/145/31 67/146/31 68/148/31 100/147/31
f 100/147/31 68/148/31 69/150/31 101/149/31
f 101/149/31 69/150/31 70/152/31 102/151/31
f 102/151/31 70/152/31 71/154/31 103/153/31
f 103/153/31 71/154/31 72/156/31 104/155/31
f 104/155/31 72/156/31 73/158/31 105/157/31
f 105/157/31 73/158/31 74/160/31 106/159/31
f 106/159/31 74/160/31 75/162/31 107/161/31
f 107/161/31 75/162/31 76/164/31 108/163/31
f 108/163/31 76/164/31 77/166/31 109/165/31
f 109/165/31 77/166/31 78/168/31 110/167/31
f 110/167/31 78/168/31 79/170/31 111/169/31
f 111/169/31 79/170/31 80/172/31 112/171/31
f 112/171/31 80/172/31 81/174/31 113/173/31
f 113/173/31 81/174/31 82/176/31 114/175/31
f 114/175/31 82/176/31 83/178/31 115/177/31
f 115/177/31 83/178/31 84/180/31 116/179/31
f 116/179/31 84/180/31 85/182/31 117/181/31
f 117/181/31 85/182/31 86/184/31 118/183/31
f 118/183/31 86/184/31 87/186/31 119/185/31
f 119/185/31 87/186/31 88/188/31 120/187/31
f 120/187/31 88/188/31 89/190/31 121/189/31
f 121/189/31 89/190/31 90/192/31 122/191/31
f 122/191/31 90/192/31 91/194/31 123/193/31
f 123/193/31 91/194/31 92/196/31 124/195/31
f 124/195/31 92/196/31 93/198/31 125/197/31
f 125/197/31 93/198/31 94/200/31 126/199/31
f 126/199/31 94/200/31 95/202/31 127/201/31
f 127/201/31 95/202/31 96/204/31 128/203/31
f 128/203/31 96/204/31 66/144/31 98/141/31
f 2/74/31 98/141/31 97/142/31 4/73/31
f 4/73/31 97/142/31 99/145/31 6/104/31
f 6/104/31 99/145/31 100/147/31 8/103/31
f 12/101/31 102/151/31 103/153/31 14/100/31
f 14/100/31 103/153/31 104/155/31 16/99/31
f 16/99/31 104/155/31 105/157/31 18/98/31
f 18/98/31 105/157/31 106/159/31 20/97/31
f 20/97/31 106/159/31 107/161/31 22/96/31
f 22/96/31 107/161/31 108/163/31 24/95/31
f 28/93/31 110/167/31 111/169/31 30/92/31
f 30/92/31 111/169/31 112/171/31 32/91/31
f 32/91/31 112/171/31 113/173/31 34/90/31
f 34/90/31 113/173/31 114/175/31 36/89/31
f 36/89/31 114/175/31 115/177/31 38/88/31
f 38/88/31 115/177/31 116/179/31 40/87/31
f 44/85/31 118/183/31 119/185/31 46/84/31
f 46/84/31 119/185/31 120/187/31 48/83/31
f 48/83/31 120/187/31 121/189/31 50/82/31
f 50/82/31 121/189/31 122/191/31 52/81/31
f 52/81/31 122/191/31 123/193/31 54/80/31
f 54/80/31 123/193/31 124/195/31 56/79/31
f 60/77/31 126/199/31 127/201/31 62/76/31
f 62/76/31 127/201/31 128/203/31 64/75/31
f 64/75/31 128/203/31 98/141/31 2/74/31
l 1 33
l 2 34
