# Blender 4.5.1 LTS
# www.blender.org
mtllib table.mtl
o Cube.001
v -1.391963 -0.128785 0.869072
v -1.391963 -0.128785 -0.869072
v 1.391963 -0.128785 0.869072
v 1.391963 -0.128785 -0.869072
v -1.391963 -0.259700 -0.869072
v -1.391963 -0.259700 0.869072
v 1.391963 -0.259700 -0.869072
v 1.391963 -0.259700 0.869072
v 1.224170 -0.259700 -0.869072
v -1.224170 -0.259700 -0.869072
v -1.224170 -0.259700 0.869072
v 1.224170 -0.259700 0.869072
v -1.391963 -0.259700 -0.718374
v -1.391963 -0.259700 0.718375
v 1.391963 -0.259700 0.718375
v 1.391963 -0.259700 -0.718375
v -1.224170 -0.259700 -0.718374
v -1.224170 -0.259700 0.718375
v 1.224170 -0.259700 -0.718374
v 1.224170 -0.259700 0.718375
v -1.224170 -1.744942 -0.869071
v -1.391963 -1.744942 -0.869071
v -1.391963 -1.744942 -0.718374
v -1.224170 -1.744942 -0.718374
v 1.391963 -1.744942 -0.718374
v 1.391963 -1.744942 -0.869071
v 1.224170 -1.744942 -0.869071
v 1.224170 -1.744942 -0.718374
v -1.391963 -1.744942 0.718375
v -1.391963 -1.744942 0.869072
v -1.224170 -1.744942 0.869072
v -1.224170 -1.744942 0.718375
v 1.224170 -1.744942 0.869072
v 1.391963 -1.744942 0.869072
v 1.224170 -1.744942 0.718375
v 1.391963 -1.744942 0.718375
v -1.224170 -0.136194 -0.718375
v -1.224170 -0.136194 0.718375
v 1.224170 -0.136194 -0.718375
v 1.224170 -0.126350 0.718375
v -1.521583 0.029416 0.950000
v -1.521583 0.029416 -0.950000
v 1.521583 0.029416 0.950000
v 1.521583 0.029416 -0.950000
v -1.521583 -0.128785 -0.950000
v -1.521583 -0.128785 0.950000
v 1.521583 -0.128785 -0.950000
v 1.521583 -0.128785 0.950000
v 1.521583 0.001802 1.000000
v 1.601666 0.001802 0.950000
v 1.601666 -0.101171 0.950000
v 1.521583 -0.101171 1.000000
v 1.601666 0.001802 -0.950000
v 1.521583 0.001802 -1.000000
v 1.521583 -0.101171 -1.000000
v 1.601666 -0.101171 -0.950000
v -1.521583 0.001802 -1.000000
v -1.601666 0.001802 -0.950000
v -1.601666 -0.101171 -0.950000
v -1.521583 -0.101171 -1.000000
v -1.601666 0.001802 0.950000
v -1.521583 0.001802 1.000000
v -1.521583 -0.101171 1.000000
v -1.601666 -0.101171 0.950000
v 1.391963 -1.129319 0.718375
v 1.391963 -1.278275 0.718375
v 1.224170 -1.278275 0.718375
v 1.224170 -1.129319 0.718375
v 1.224170 -1.278275 0.869072
v 1.224170 -1.129319 0.869072
v 1.391963 -1.278275 0.869072
v 1.391963 -1.129319 0.869072
v 1.224170 -1.129320 -0.718374
v 1.224170 -1.278275 -0.718374
v 1.391963 -1.278275 -0.718375
v 1.391963 -1.129320 -0.718375
v 1.391963 -1.278275 -0.869072
v 1.391963 -1.129320 -0.869072
v 1.224170 -1.278275 -0.869072
v 1.224170 -1.129320 -0.869072
v -1.391963 -1.129319 0.718375
v -1.391963 -1.278275 0.718375
v -1.391963 -1.278275 0.869072
v -1.391963 -1.129319 0.869072
v -1.224170 -1.278275 0.869072
v -1.224170 -1.129319 0.869072
v -1.224170 -1.129319 0.718375
v -1.224170 -1.278275 0.718375
v -1.391963 -1.129320 -0.869072
v -1.391963 -1.278275 -0.869072
v -1.391963 -1.278275 -0.718374
v -1.391963 -1.129320 -0.718374
v -1.224170 -1.278275 -0.718374
v -1.224170 -1.129320 -0.718374
v -1.224170 -1.129320 -0.869072
v -1.224170 -1.278275 -0.869072
v -1.391963 -1.129320 0.078898
v -1.391963 -1.278275 0.078898
v -1.224170 -1.129320 0.078898
v -1.224170 -1.278275 0.078898
v 1.224170 -1.129320 0.078898
v 1.224170 -1.278275 0.078898
v 1.391963 -1.278275 0.078898
v 1.391963 -1.129320 0.078898
v 1.391963 -1.278275 -0.078897
v 1.224170 -1.278275 -0.078897
v 1.391963 -1.129320 -0.078897
v 1.224170 -1.129320 -0.078897
v -1.391963 -1.129320 -0.078897
v -1.391963 -1.278275 -0.078897
v -1.224170 -1.129320 -0.078897
v -1.224170 -1.278275 -0.078897
vn 1.0000 -0.0000 -0.0000
vn -0.0000 -0.0000 -1.0000
vn -1.0000 -0.0000 -0.0000
vn -0.0000 -0.0000 1.0000
vn -0.0000 -1.0000 -0.0000
vn 0.0020 -1.0000 0.0034
vn -0.0000 1.0000 -0.0000
vn 0.2890 0.8380 0.4628
vn 0.2890 -0.8380 0.4628
vn 0.5296 -0.0000 0.8482
vn 0.2890 0.8380 -0.4628
vn 0.2890 -0.8380 -0.4628
vn 0.5296 -0.0000 -0.8482
vn 0.3260 0.9454 -0.0000
vn 0.3260 -0.9454 -0.0000
vn -0.2890 0.8380 -0.4628
vn -0.2890 -0.8380 -0.4628
vn -0.5296 -0.0000 -0.8482
vn -0.0000 0.8754 -0.4835
vn -0.0000 -0.8754 -0.4835
vn -0.2890 0.8380 0.4628
vn -0.2890 -0.8380 0.4628
vn -0.5296 -0.0000 0.8482
vn -0.3260 0.9454 -0.0000
vn -0.0000 0.8754 0.4835
vn -0.3260 -0.9454 -0.0000
vn -0.0000 -0.8754 0.4835
vt 0.200640 0.015014
vt 0.200640 0.040329
vt 0.184546 0.040329
vt 0.890801 0.208291
vt 0.901989 0.208291
vt 0.901989 0.298530
vt 0.890801 0.298530
vt 0.416293 0.015014
vt 0.416293 0.040329
vt 0.400199 0.040329
vt 0.631946 0.015014
vt 0.631946 0.040329
vt 0.620758 0.040329
vt 0.200640 0.357557
vt 0.200640 0.382872
vt 0.189452 0.382872
vt 0.015014 0.357557
vt 0.026202 0.382872
vt 0.015014 0.382872
vt 0.446320 0.015014
vt 0.457508 0.040329
vt 0.446320 0.040329
vt 0.230667 0.237290
vt 0.246760 0.237290
vt 0.246760 0.327530
vt 0.230667 0.327530
vt 0.946615 0.178264
vt 0.946615 0.015014
vt 0.962708 0.015014
vt 0.962708 0.178264
vt 0.946428 0.520807
vt 0.946428 0.357557
vt 0.962522 0.357557
vt 0.962522 0.520807
vt 0.936167 0.942551
vt 0.936167 0.789112
vt 0.961953 0.789112
vt 0.960050 0.942551
vt 0.400199 0.237290
vt 0.416293 0.237290
vt 0.416293 0.327530
vt 0.400199 0.327530
vt 0.406715 0.970267
vt 0.395527 0.970267
vt 0.395527 0.816828
vt 0.406715 0.816828
vt 0.230667 0.015014
vt 0.246760 0.040329
vt 0.230667 0.040329
vt 0.477958 0.816828
vt 0.489146 0.816828
vt 0.489146 0.907067
vt 0.477958 0.907067
vt 0.447930 0.970267
vt 0.436742 0.970267
vt 0.436742 0.816828
vt 0.447930 0.816828
vt 0.015014 0.015014
vt 0.031107 0.040329
vt 0.015014 0.040329
vt 0.073081 0.909471
vt 0.061892 0.909471
vt 0.061892 0.893377
vt 0.073081 0.893377
vt 0.519173 0.816828
vt 0.530361 0.816828
vt 0.530361 0.907067
vt 0.519173 0.907067
vt 0.015014 0.579834
vt 0.026202 0.579834
vt 0.026202 0.670073
vt 0.015014 0.670073
vt 0.712565 0.554519
vt 0.728659 0.554519
vt 0.728659 0.644758
vt 0.712565 0.644758
vt 0.114296 0.909471
vt 0.103108 0.909471
vt 0.103108 0.893378
vt 0.114296 0.893378
vt 0.015014 0.237290
vt 0.031107 0.237290
vt 0.031107 0.327530
vt 0.015014 0.327530
vt 0.189452 0.579834
vt 0.200640 0.579834
vt 0.200640 0.670073
vt 0.189452 0.670073
vt 0.730266 0.211975
vt 0.746360 0.211975
vt 0.746360 0.302215
vt 0.730266 0.302215
vt 0.196726 0.909471
vt 0.185538 0.909471
vt 0.185538 0.893378
vt 0.196726 0.893378
vt 0.620758 0.237290
vt 0.631946 0.237290
vt 0.631946 0.327530
vt 0.620758 0.327530
vt 0.826979 0.834114
vt 0.838167 0.834114
vt 0.838167 0.924353
vt 0.826979 0.924353
vt 0.844681 0.211975
vt 0.860774 0.211975
vt 0.860774 0.302215
vt 0.844681 0.302215
vt 0.155511 0.909471
vt 0.144323 0.909471
vt 0.144323 0.893377
vt 0.155511 0.893377
vt 0.597598 0.798137
vt 0.613692 0.798137
vt 0.613692 0.888376
vt 0.597598 0.888376
vt 0.446320 0.237290
vt 0.457508 0.237290
vt 0.457508 0.327530
vt 0.446320 0.327530
vt 0.184546 0.237290
vt 0.200640 0.237290
vt 0.200640 0.327530
vt 0.184546 0.327530
vt 0.015014 0.863350
vt 0.015014 0.700100
vt 0.168453 0.700100
vt 0.168452 0.863350
vt 0.964971 0.595835
vt 0.964971 0.749274
vt 0.941089 0.749274
vt 0.941089 0.595835
vt 0.906140 0.789112
vt 0.906140 0.952362
vt 0.882258 0.952362
vt 0.882258 0.789112
vt 0.890801 0.178264
vt 0.890801 0.015014
vt 0.914684 0.015014
vt 0.916587 0.178264
vt 0.438918 0.362897
vt 0.438918 0.565808
vt 0.236006 0.565808
vt 0.236006 0.362897
vt 0.482928 0.557167
vt 0.668554 0.557167
vt 0.677197 0.565810
vt 0.474285 0.565810
vt 0.482928 0.371541
vt 0.474285 0.362898
vt 0.668554 0.371541
vt 0.677197 0.362898
vt 0.732477 0.680125
vt 0.732477 0.674785
vt 0.737817 0.680125
vt 0.677198 0.357557
vt 0.682538 0.362897
vt 0.712565 0.674785
vt 0.712565 0.680125
vt 0.438918 0.357557
vt 0.444258 0.362897
vt 0.787756 0.883036
vt 0.787756 0.877697
vt 0.793095 0.877697
vt 0.767844 0.877697
vt 0.767844 0.883036
vt 0.236006 0.357557
vt 0.767844 0.674785
vt 0.787756 0.674785
vt 0.474287 0.357557
vt 0.852231 0.362897
vt 0.852231 0.357557
vt 0.857571 0.362896
vt 0.832319 0.357557
vt 0.832319 0.362897
vt 0.826979 0.362896
vt 0.444258 0.565808
vt 0.852231 0.565808
vt 0.832319 0.565808
vt 0.826979 0.565808
vt 0.236006 0.571148
vt 0.230667 0.565808
vt 0.682538 0.565808
vt 0.677198 0.571148
vt 0.846891 0.804087
vt 0.826979 0.804087
vt 0.826979 0.798747
vt 0.846891 0.798747
vt 0.438918 0.571148
vt 0.732477 0.883036
vt 0.712565 0.883036
vt 0.230667 0.362897
vt 0.826979 0.595835
vt 0.846891 0.595835
vt 0.852231 0.595835
vt 0.852231 0.798747
vt 0.200640 0.208487
vt 0.184546 0.208487
vt 0.457508 0.208487
vt 0.446320 0.208487
vt 0.597598 0.601175
vt 0.613692 0.601175
vt 0.613692 0.769333
vt 0.597598 0.769333
vt 0.230667 0.816828
vt 0.241855 0.816828
vt 0.241855 0.984986
vt 0.230667 0.984986
vt 0.730266 0.015014
vt 0.746360 0.015014
vt 0.746360 0.183172
vt 0.730266 0.183172
vt 0.200640 0.551030
vt 0.189452 0.551030
vt 0.031107 0.208487
vt 0.015014 0.208487
vt 0.271882 0.816828
vt 0.283070 0.816828
vt 0.283070 0.984986
vt 0.271882 0.984986
vt 0.482426 0.612363
vt 0.482426 0.601175
vt 0.499277 0.601175
vt 0.499277 0.612363
vt 0.844681 0.015014
vt 0.860774 0.015014
vt 0.860774 0.183172
vt 0.844681 0.183172
vt 0.313097 0.816828
vt 0.324285 0.816828
vt 0.324285 0.984986
vt 0.313097 0.984986
vt 0.631946 0.208487
vt 0.620758 0.208487
vt 0.246760 0.208487
vt 0.230667 0.208487
vt 0.712565 0.357557
vt 0.728659 0.357557
vt 0.728659 0.525715
vt 0.712565 0.525715
vt 0.026202 0.551030
vt 0.015014 0.551030
vt 0.354312 0.816828
vt 0.365500 0.816828
vt 0.365500 0.984986
vt 0.354312 0.984986
vt 0.482426 0.786801
vt 0.482426 0.775613
vt 0.499277 0.775613
vt 0.499277 0.786801
vt 0.416293 0.208487
vt 0.400199 0.208487
vt 0.331906 0.208487
vt 0.331906 0.237290
vt 0.315054 0.237290
vt 0.315054 0.208487
vt 0.315812 0.775613
vt 0.315812 0.786801
vt 0.298960 0.786801
vt 0.298960 0.775613
vt 0.099401 0.237290
vt 0.099401 0.208487
vt 0.116252 0.208487
vt 0.116252 0.237290
vt 0.315812 0.601175
vt 0.315812 0.612363
vt 0.298960 0.612363
vt 0.298960 0.601175
vt 0.015014 0.922181
vt 0.015014 0.893377
vt 0.031865 0.893377
vt 0.031865 0.922181
vt 0.230667 0.612363
vt 0.230667 0.601175
vt 0.681985 0.769333
vt 0.681985 0.798137
vt 0.567571 0.601175
vt 0.567571 0.612363
vt 0.661973 0.211975
vt 0.661973 0.183172
vt 0.384105 0.601175
vt 0.384105 0.612363
vt 0.414132 0.612363
vt 0.414132 0.601175
vt 0.230667 0.786801
vt 0.230667 0.775613
vt 0.776387 0.211975
vt 0.776387 0.183172
vt 0.567571 0.775613
vt 0.567571 0.786801
vt 0.384105 0.775613
vt 0.384105 0.786801
vt 0.796952 0.525715
vt 0.796952 0.554519
vt 0.414132 0.786801
vt 0.414132 0.775613
vt 0.882258 0.595835
vt 0.911062 0.595835
vt 0.911061 0.759085
vt 0.882258 0.759085
vt 0.916401 0.520807
vt 0.887598 0.520807
vt 0.887598 0.357557
vt 0.916401 0.357557
s 1
usemtl Material.002
f 3/1/1 8/2/1 15/3/1
f 67/4/2 66/5/2 36/6/2 35/7/2
f 2/8/3 5/9/3 13/10/3
f 1/11/4 6/12/4 11/13/4
f 4/14/2 7/15/2 9/16/2
f 2/17/2 10/18/2 5/19/2
f 2/17/2 4/14/2 9/16/2 10/18/2
f 3/20/4 12/21/4 8/22/4
f 3/20/4 1/11/4 11/13/4 12/21/4
f 83/23/3 82/24/3 29/25/3 30/26/3
f 18/27/5 20/28/5 12/29/5 11/30/5
f 10/31/5 9/32/5 19/33/5 17/34/5
f 19/35/3 20/36/3 40/37/3 39/38/3
f 91/39/3 90/40/3 22/41/3 23/42/3
f 13/43/5 17/44/5 18/45/5 14/46/5
f 1/47/3 14/48/3 6/49/3
f 1/47/3 2/8/3 13/10/3 14/48/3
f 75/50/4 74/51/4 28/52/4 25/53/4
f 19/54/5 16/55/5 15/56/5 20/57/5
f 4/58/1 16/59/1 7/60/1
f 4/58/1 3/1/1 15/3/1 16/59/1
f 22/61/5 21/62/5 24/63/5 23/64/5
f 93/65/4 91/66/4 23/67/4 24/68/4
f 90/69/2 96/70/2 21/71/2 22/72/2
f 96/73/1 93/74/1 24/75/1 21/76/1
f 27/77/5 26/78/5 25/79/5 28/80/5
f 77/81/1 75/82/1 25/83/1 26/84/1
f 79/85/2 77/86/2 26/87/2 27/88/2
f 74/89/3 79/90/3 27/91/3 28/92/3
f 29/93/5 32/94/5 31/95/5 30/96/5
f 85/97/4 83/98/4 30/99/4 31/100/4
f 82/101/2 88/102/2 32/103/2 29/104/2
f 88/105/1 85/106/1 31/107/1 32/108/1
f 35/109/5 36/110/5 34/111/5 33/112/5
f 69/113/3 67/114/3 35/115/3 33/116/3
f 71/117/4 69/118/4 33/119/4 34/120/4
f 66/121/1 71/122/1 34/123/1 36/124/1
f 37/125/6 39/126/6 40/127/6 38/128/6
f 18/129/1 17/130/1 37/131/1 38/132/1
f 17/133/4 19/134/4 39/135/4 37/136/4
f 20/137/2 18/138/2 38/139/2 40/140/2
f 44/141/7 42/142/7 41/143/7 43/144/7
f 2/145/5 1/146/5 46/147/5 45/148/5
f 4/149/5 2/145/5 45/148/5 47/150/5
f 1/146/5 3/151/5 48/152/5 46/147/5
f 3/151/5 4/149/5 47/150/5 48/152/5
f 49/153/8 50/154/8 43/155/8
f 51/156/9 52/157/9 48/152/9
f 51/158/10 50/154/10 49/153/10 52/159/10
f 53/160/11 54/161/11 44/141/11
f 55/162/12 56/163/12 47/164/12
f 53/165/13 56/163/13 55/162/13 54/166/13
f 44/141/14 43/144/14 50/167/14 53/160/14
f 56/163/1 53/165/1 50/168/1 51/169/1
f 48/152/15 47/150/15 56/170/15 51/156/15
f 57/171/16 58/172/16 42/173/16
f 59/174/17 60/175/17 45/176/17
f 57/171/18 60/175/18 59/174/18 58/172/18
f 42/142/19 44/141/19 54/161/19 57/177/19
f 60/175/2 57/171/2 54/178/2 55/179/2
f 47/180/20 45/176/20 60/175/20 55/179/20
f 61/181/21 62/182/21 41/143/21
f 63/183/22 64/184/22 46/147/22
f 63/185/23 62/186/23 61/187/23 64/188/23
f 42/142/24 58/189/24 61/181/24 41/143/24
f 52/159/4 49/153/4 62/190/4 63/191/4
f 41/143/25 62/182/25 49/192/25 43/144/25
f 64/188/3 61/187/3 58/193/3 59/194/3
f 45/195/26 46/196/26 64/188/26 59/194/26
f 46/147/27 48/152/27 52/157/27 63/183/27
f 15/3/1 8/2/1 72/197/1 65/198/1
f 65/198/1 72/197/1 71/122/1 66/121/1
f 8/22/4 12/21/4 70/199/4 72/200/4
f 72/200/4 70/199/4 69/118/4 71/117/4
f 12/201/3 20/202/3 68/203/3 70/204/3
f 70/204/3 68/203/3 67/114/3 69/113/3
f 20/205/2 15/206/2 65/207/2 68/208/2
f 19/209/3 9/210/3 80/211/3 73/212/3
f 73/212/3 80/211/3 79/90/3 74/89/3
f 9/16/2 7/15/2 78/213/2 80/214/2
f 80/214/2 78/213/2 77/86/2 79/85/2
f 7/60/1 16/59/1 76/215/1 78/216/1
f 78/216/1 76/215/1 75/82/1 77/81/1
f 16/217/4 19/218/4 73/219/4 76/220/4
f 106/221/5 105/222/5 103/223/5 102/224/5
f 18/225/1 11/226/1 86/227/1 87/228/1
f 87/228/1 86/227/1 85/106/1 88/105/1
f 14/229/2 18/230/2 87/231/2 81/232/2
f 11/13/4 6/12/4 84/233/4 86/234/4
f 86/234/4 84/233/4 83/98/4 85/97/4
f 6/49/3 14/48/3 81/235/3 84/236/3
f 84/236/3 81/235/3 82/24/3 83/23/3
f 10/237/1 17/238/1 94/239/1 95/240/1
f 95/240/1 94/239/1 93/74/1 96/73/1
f 5/19/2 10/18/2 95/241/2 89/242/2
f 89/242/2 95/241/2 96/70/2 90/69/2
f 17/243/4 13/244/4 92/245/4 94/246/4
f 110/247/5 112/248/5 100/249/5 98/250/5
f 13/10/3 5/9/3 89/251/3 92/252/3
f 92/252/3 89/251/3 90/40/3 91/39/3
f 100/249/5 112/248/5 106/221/5 102/224/5
f 109/253/3 110/254/3 98/255/3 97/256/3
f 111/257/7 109/258/7 97/259/7 99/260/7
f 105/261/1 107/262/1 104/263/1 103/264/1
f 107/265/7 108/266/7 101/267/7 104/268/7
f 106/269/1 108/270/1 101/271/1 102/272/1
f 65/198/1 66/121/1 103/264/1 104/263/1
f 68/273/7 65/274/7 104/268/7 101/267/7
f 67/114/3 68/203/3 101/275/3 102/276/3
f 66/277/5 67/278/5 102/224/5 103/223/5
f 73/212/3 74/89/3 106/279/3 108/280/3
f 76/281/7 73/282/7 108/266/7 107/265/7
f 75/82/1 76/215/1 107/262/1 105/261/1
f 74/283/5 75/284/5 105/222/5 106/221/5
f 81/285/7 87/286/7 99/260/7 97/259/7
f 82/24/3 81/235/3 97/256/3 98/255/3
f 87/228/1 88/105/1 100/287/1 99/288/1
f 88/289/5 82/290/5 98/250/5 100/249/5
f 94/291/7 92/292/7 109/258/7 111/257/7
f 92/252/3 91/39/3 110/254/3 109/253/3
f 93/74/1 94/239/1 111/293/1 112/294/1
f 91/295/5 93/296/5 112/248/5 110/247/5
f 99/297/4 100/298/4 102/299/4 101/300/4
f 111/257/7 99/260/7 101/267/7 108/266/7
f 112/301/2 111/302/2 108/303/2 106/304/2
