# Blender 4.5.1 LTS
# www.blender.org
mtllib xyzArrow.mtl
o Cone.002
v 0.000000 0.991423 -0.100000
v 0.078183 0.991423 -0.062349
v 0.097493 0.991423 0.022252
v 0.043388 0.991423 0.090097
v -0.043388 0.991423 0.090097
v -0.097493 0.991423 0.022252
v -0.078183 0.991423 -0.062349
v 0.000000 1.191423 0.000000
v 0.000000 -0.001182 -0.050000
v 0.000000 0.998818 -0.050000
v 0.043301 -0.001182 -0.025000
v 0.043301 0.998818 -0.025000
v 0.043301 -0.001182 0.025000
v 0.043301 0.998818 0.025000
v 0.000000 -0.001182 0.050000
v 0.000000 0.998818 0.050000
v -0.043301 -0.001182 0.025000
v -0.043301 0.998818 0.025000
v -0.043301 -0.001182 -0.025000
v -0.043301 0.998818 -0.025000
v 1.002328 -0.001182 -0.100000
v 1.002328 -0.079366 -0.062349
v 1.002328 -0.098675 0.022252
v 1.002328 -0.044571 0.090097
v 1.002328 0.042206 0.090097
v 1.002328 0.096310 0.022252
v 1.002328 0.077001 -0.062349
v 1.202328 -0.001182 0.000000
v 0.000000 -0.001182 -0.050000
v 1.000000 -0.001182 -0.050000
v 0.000000 -0.044484 -0.025000
v 1.000000 -0.044484 -0.025000
v 0.000000 -0.044484 0.025000
v 1.000000 -0.044484 0.025000
v 0.000000 -0.001182 0.050000
v 1.000000 -0.001182 0.050000
v 0.000000 0.042119 0.025000
v 1.000000 0.042119 0.025000
v 0.000000 0.042119 -0.025000
v 1.000000 0.042119 -0.025000
v 0.000000 -0.101182 -0.997355
v 0.078183 -0.063531 -0.997355
v 0.097493 0.021070 -0.997355
v 0.043388 0.088914 -0.997355
v -0.043388 0.088914 -0.997355
v -0.097493 0.021070 -0.997355
v -0.078183 -0.063531 -0.997355
v 0.000000 -0.001182 -1.197355
v 0.000000 0.048818 -1.000000
v 0.000000 0.048818 0.000000
v 0.043301 0.023818 -1.000000
v 0.043301 0.023818 0.000000
v 0.043301 -0.026182 -1.000000
v 0.043301 -0.026182 0.000000
v 0.000000 -0.051182 -1.000000
v 0.000000 -0.051183 0.000000
v -0.043301 -0.026182 -1.000000
v -0.043301 -0.026182 0.000000
v -0.043301 0.023818 -1.000000
v -0.043301 0.023818 0.000000
vn 0.3956 0.4107 -0.8215
vn 0.8889 0.4107 -0.2029
vn 0.7128 0.4107 0.5685
vn -0.0000 0.4107 0.9118
vn -0.7128 0.4107 0.5685
vn -0.0000 -1.0000 -0.0000
vn -0.8889 0.4107 -0.2029
vn -0.3956 0.4107 -0.8215
vn 0.5000 -0.0000 -0.8660
vn 1.0000 -0.0000 -0.0000
vn 0.5000 -0.0000 0.8660
vn -0.5000 -0.0000 0.8660
vn -0.0000 1.0000 -0.0000
vn -1.0000 -0.0000 -0.0000
vn -0.5000 -0.0000 -0.8660
vn 0.4107 -0.3956 -0.8215
vn 0.4107 -0.8889 -0.2029
vn 0.4107 -0.7128 0.5685
vn 0.4107 -0.0000 0.9118
vn 0.4107 0.7128 0.5685
vn 0.4107 0.8889 -0.2029
vn 0.4107 0.3956 -0.8215
vn -0.0000 -0.5000 -0.8660
vn -0.0000 -0.5000 0.8660
vn -0.0000 0.5000 0.8660
vn -0.0000 0.5000 -0.8660
vn 0.3956 -0.8215 -0.4107
vn 0.8889 -0.2029 -0.4107
vn 0.7128 0.5685 -0.4107
vn -0.0000 0.9118 -0.4107
vn -0.7128 0.5685 -0.4107
vn -0.0000 -0.0000 1.0000
vn -0.8889 -0.2029 -0.4107
vn -0.3956 -0.8215 -0.4107
vn 0.5000 0.8660 -0.0000
vn 0.5000 -0.8660 -0.0000
vn -0.5000 -0.8660 -0.0000
vn -0.5000 0.8660 -0.0000
vn -0.0000 -0.0000 -1.0000
vt 0.847300 0.795718
vt 0.894038 0.676157
vt 0.894038 0.813989
vt 0.879047 0.963020
vt 0.914351 0.837841
vt 0.934352 0.963020
vt 0.654699 0.967908
vt 0.654699 0.824771
vt 0.689204 0.954018
vt 0.739312 0.929898
vt 0.822173 0.633843
vt 0.822173 0.491328
vt 0.858660 0.618299
vt 0.564641 0.677347
vt 0.607595 0.710905
vt 0.607595 0.766165
vt 0.564641 0.801516
vt 0.511079 0.790338
vt 0.487242 0.741048
vt 0.511079 0.690762
vt 0.908646 0.594627
vt 0.800562 0.777447
vt 0.119158 0.653784
vt 0.119158 0.011926
vt 0.146951 0.011926
vt 0.146951 0.653784
vt 0.543007 0.652922
vt 0.543007 0.011926
vt 0.574923 0.012101
vt 0.574923 0.653097
vt 0.250154 0.652946
vt 0.250154 0.012102
vt 0.278806 0.012914
vt 0.278806 0.653759
vt 0.305653 0.011926
vt 0.305653 0.652771
vt 0.917890 0.724262
vt 0.917890 0.692171
vt 0.945441 0.676157
vt 0.972991 0.692235
vt 0.972991 0.724327
vt 0.945441 0.740340
vt 0.487242 0.653374
vt 0.487242 0.011926
vt 0.519155 0.012047
vt 0.519155 0.653495
vt 0.091365 0.653784
vt 0.091365 0.011926
vt 0.988074 0.506922
vt 0.988074 0.538335
vt 0.960286 0.554153
vt 0.932498 0.538559
vt 0.932498 0.507146
vt 0.960286 0.491328
vt 0.872355 0.140298
vt 0.872355 0.011926
vt 0.922538 0.140298
vt 0.580279 0.825368
vt 0.580279 0.946777
vt 0.527927 0.842855
vt 0.487242 0.847783
vt 0.855195 0.848220
vt 0.800562 0.971614
vt 0.800562 0.837841
vt 0.913318 0.357237
vt 0.822173 0.467476
vt 0.875854 0.344531
vt 0.463390 0.767423
vt 0.420110 0.802213
vt 0.366142 0.789902
vt 0.342123 0.739760
vt 0.366142 0.689546
vt 0.420110 0.677071
vt 0.463390 0.711730
vt 0.822173 0.331088
vt 0.822173 0.140298
vt 0.039719 0.011926
vt 0.039719 0.653784
vt 0.011926 0.653784
vt 0.011926 0.011926
vt 0.798321 0.012450
vt 0.798321 0.642989
vt 0.766350 0.642465
vt 0.766350 0.011926
vt 0.226302 0.012914
vt 0.226302 0.653759
vt 0.199456 0.652771
vt 0.199456 0.011926
vt 0.170803 0.653583
vt 0.170803 0.012738
vt 0.250206 0.860180
vt 0.277962 0.844070
vt 0.305717 0.859876
vt 0.305717 0.891792
vt 0.277962 0.907902
vt 0.250206 0.892096
vt 0.686597 0.012186
vt 0.686597 0.652305
vt 0.654699 0.652044
vt 0.654699 0.011926
vt 0.067513 0.011926
vt 0.067513 0.653784
vt 0.198579 0.907897
vt 0.170803 0.892046
vt 0.170803 0.860132
vt 0.198579 0.844070
vt 0.226354 0.859921
vt 0.226354 0.891835
vt 0.063616 0.801101
vt 0.011926 0.677636
vt 0.105430 0.784892
vt 0.911262 0.201482
vt 0.822173 0.307236
vt 0.861720 0.177866
vt 0.822173 0.164150
vt 0.397671 0.826065
vt 0.373085 0.960029
vt 0.342123 0.826065
vt 0.262027 0.677611
vt 0.262027 0.820218
vt 0.219570 0.692230
vt 0.678865 0.788602
vt 0.654699 0.738593
vt 0.678865 0.688550
vt 0.733165 0.676157
vt 0.776710 0.710745
vt 0.776710 0.766270
vt 0.733165 0.800919
vt 0.170803 0.715052
vt 0.011926 0.816164
vt 0.356034 0.649894
vt 0.356034 0.011926
vt 0.384939 0.013459
vt 0.384939 0.651427
vt 0.742498 0.011926
vt 0.742498 0.650244
vt 0.710449 0.650419
vt 0.710449 0.012101
vt 0.463390 0.011926
vt 0.463390 0.651420
vt 0.439102 0.653219
vt 0.439102 0.013725
vt 0.408791 0.652315
vt 0.408791 0.012821
vt 0.119152 0.840017
vt 0.146939 0.856060
vt 0.146939 0.888058
vt 0.119152 0.904013
vt 0.091365 0.887970
vt 0.091365 0.855972
vt 0.598775 0.650321
vt 0.598775 0.012048
vt 0.630847 0.011926
vt 0.630847 0.650200
vt 0.329505 0.651880
vt 0.329505 0.013911
vt 0.011926 0.856063
vt 0.039719 0.840017
vt 0.067513 0.856063
vt 0.067513 0.888156
vt 0.039719 0.904202
vt 0.011926 0.888156
s 0
usemtl Material.002
f 1/1/1 8/2/1 2/3/1
f 2/4/2 8/5/2 3/6/2
f 3/7/3 8/8/3 4/9/3
f 4/9/4 8/8/4 5/10/4
f 5/11/5 8/12/5 6/13/5
f 1/14/6 2/15/6 3/16/6 4/17/6 5/18/6 6/19/6 7/20/6
f 6/13/7 8/12/7 7/21/7
f 7/22/8 8/2/8 1/1/8
f 9/23/9 10/24/9 12/25/9 11/26/9
f 11/27/10 12/28/10 14/29/10 13/30/10
f 13/31/11 14/32/11 16/33/11 15/34/11
f 15/34/12 16/33/12 18/35/12 17/36/12
f 12/37/13 10/38/13 20/39/13 18/40/13 16/41/13 14/42/13
f 17/43/14 18/44/14 20/45/14 19/46/14
f 19/47/15 20/48/15 10/24/15 9/23/15
f 9/49/6 11/50/6 13/51/6 15/52/6 17/53/6 19/54/6
usemtl Material.001
f 21/55/16 28/56/16 22/57/16
f 22/58/17 28/59/17 23/60/17
f 23/60/18 28/59/18 24/61/18
f 24/62/19 28/63/19 25/64/19
f 25/65/20 28/66/20 26/67/20
f 21/68/14 22/69/14 23/70/14 24/71/14 25/72/14 26/73/14 27/74/14
f 26/67/21 28/66/21 27/75/21
f 27/76/22 28/56/22 21/55/22
f 29/77/23 30/78/23 32/79/23 31/80/23
f 31/81/6 32/82/6 34/83/6 33/84/6
f 33/85/24 34/86/24 36/87/24 35/88/24
f 35/88/25 36/87/25 38/89/25 37/90/25
f 32/91/10 30/92/10 40/93/10 38/94/10 36/95/10 34/96/10
f 37/97/13 38/98/13 40/99/13 39/100/13
f 39/101/26 40/102/26 30/78/26 29/77/26
f 29/103/14 31/104/14 33/105/14 35/106/14 37/107/14 39/108/14
usemtl Material.003
f 41/109/27 48/110/27 42/111/27
f 42/112/28 48/113/28 43/114/28
f 43/114/29 48/113/29 44/115/29
f 44/116/30 48/117/30 45/118/30
f 45/119/31 48/120/31 46/121/31
f 41/122/32 42/123/32 43/124/32 44/125/32 45/126/32 46/127/32 47/128/32
f 46/121/33 48/120/33 47/129/33
f 47/130/34 48/110/34 41/109/34
f 49/131/35 50/132/35 52/133/35 51/134/35
f 51/135/10 52/136/10 54/137/10 53/138/10
f 53/139/36 54/140/36 56/141/36 55/142/36
f 55/142/37 56/141/37 58/143/37 57/144/37
f 52/145/32 50/146/32 60/147/32 58/148/32 56/149/32 54/150/32
f 57/151/14 58/152/14 60/153/14 59/154/14
f 59/155/38 60/156/38 50/132/38 49/131/38
f 49/157/39 51/158/39 53/159/39 55/160/39 57/161/39 59/162/39
