# Blender 4.5.1 LTS
# www.blender.org
mtllib ceiling_light.mtl
o Cube
v -0.467722 -0.005926 0.467722
v -0.263071 0.256080 0.263071
v -0.467722 -0.005926 -0.467722
v -0.263071 0.256080 -0.263071
v 0.467722 -0.005926 0.467722
v 0.263071 0.256080 0.263071
v 0.467722 -0.005926 -0.467722
v 0.263071 0.256080 -0.263071
v -0.467722 0.161301 0.467722
v -0.467722 0.161301 -0.467722
v 0.467722 0.161301 -0.467722
v 0.467722 0.161301 0.467722
v -0.360297 0.161301 0.360297
v -0.360297 0.161301 -0.360297
v 0.360297 0.161301 -0.360297
v 0.360297 0.161301 0.360297
v -0.467722 -0.005926 -0.155907
v -0.467722 -0.005926 0.155907
v -0.467722 0.161301 0.155907
v -0.467722 0.161301 -0.155907
v 0.467722 -0.005926 0.155907
v 0.467722 -0.005926 -0.155907
v 0.467722 0.161301 -0.155907
v 0.467722 0.161301 0.155907
v -0.360297 0.161301 0.120099
v -0.360297 0.161301 -0.120099
v 0.360297 0.161301 -0.120099
v 0.360297 0.161301 0.120099
v -0.263071 0.256080 0.087690
v -0.263071 0.256080 -0.087690
v 0.263071 0.256080 -0.087690
v 0.263071 0.256080 0.087690
v 0.155907 -0.005926 -0.467722
v -0.155907 -0.005926 -0.467722
v -0.155907 0.161301 -0.467722
v 0.155907 0.161301 -0.467722
v -0.155907 -0.005926 0.467722
v 0.155907 -0.005926 0.467722
v 0.155907 0.161301 0.467722
v -0.155907 0.161301 0.467722
v -0.120099 0.161301 -0.360297
v 0.120099 0.161301 -0.360297
v 0.120099 0.161301 0.360297
v -0.120099 0.161301 0.360297
v -0.087690 0.256080 -0.263071
v 0.087690 0.256080 -0.263071
v 0.087690 0.256080 0.263071
v -0.087690 0.256080 0.263071
v -0.087690 0.256080 -0.087690
v 0.087690 0.256080 -0.087690
v -0.087690 0.256080 0.087690
v 0.087690 0.256080 0.087690
v 0.155907 -0.005926 -0.155907
v -0.155907 -0.005926 -0.155907
v 0.155907 -0.005926 0.155907
v -0.155907 -0.005926 0.155907
v -0.596725 -0.005926 -0.155907
v -0.596725 -0.005926 0.155907
v -0.568695 0.175653 0.155907
v -0.568695 0.175653 -0.155907
v 0.596725 -0.005926 0.155907
v 0.596725 -0.005926 -0.155907
v 0.568695 0.175653 -0.155907
v 0.568695 0.175653 0.155907
v -0.433298 0.180314 0.120099
v -0.433298 0.180314 -0.120099
v 0.433298 0.180314 -0.120099
v 0.433298 0.180314 0.120099
v -0.347193 0.301779 0.087690
v -0.347193 0.301779 -0.087690
v 0.347193 0.301779 -0.087690
v 0.347193 0.301779 0.087690
v 0.087690 0.307357 -0.087690
v 0.087690 0.307357 0.087690
v 0.155907 -0.005926 -0.596725
v -0.155907 -0.005926 -0.596725
v -0.155907 0.175653 -0.568695
v 0.155907 0.175653 -0.568695
v -0.155907 -0.005926 0.596725
v 0.155907 -0.005926 0.596725
v 0.155907 0.175653 0.568695
v -0.155907 0.175653 0.568695
v -0.120099 0.180314 -0.433298
v 0.120099 0.180314 -0.433298
v 0.120099 0.180314 0.433298
v -0.120099 0.180314 0.433298
v -0.087690 0.301779 -0.347193
v 0.087690 0.301779 -0.347193
v 0.087690 0.301779 0.347193
v -0.087690 0.301779 0.347193
v -0.087690 0.307357 -0.087690
v -0.087690 0.307357 0.087690
vn -1.0000 -0.0000 -0.0000
vn -0.0000 -0.0000 -1.0000
vn 1.0000 -0.0000 -0.0000
vn -0.0000 -0.0000 1.0000
vn -0.0000 -1.0000 -0.0000
vn -0.0000 1.0000 -0.0000
vn -0.6980 0.7161 -0.0000
vn -0.0000 0.7161 -0.6980
vn 0.6980 0.7161 -0.0000
vn -0.0000 0.7161 0.6980
vn 0.1541 0.8036 -0.5749
vn 0.1541 0.8036 0.5749
vn -0.1541 0.8036 0.5749
vn -0.1541 0.8036 -0.5749
vn 0.0890 0.2160 -0.9723
vn 0.0890 0.2160 0.9723
vn 0.5749 0.8036 0.1541
vn 0.8158 0.5783 -0.0000
vn -0.8158 0.5783 -0.0000
vn 0.0344 0.9994 -0.0000
vn -0.0344 0.9994 -0.0000
vn -0.0215 0.9998 -0.0000
vn 0.9883 0.1526 -0.0000
vn -0.9883 0.1526 -0.0000
vn 0.0215 0.9998 -0.0000
vn -0.0000 0.9998 -0.0215
vn -0.0000 0.5783 0.8158
vn -0.0000 0.5783 -0.8158
vn -0.0000 0.9994 0.0344
vn -0.0000 0.9994 -0.0344
vn -0.0000 0.9998 0.0215
vn -0.0000 0.1526 0.9883
vn -0.0000 0.1526 -0.9883
vn 0.9723 0.2160 -0.0890
vn -0.9723 0.2160 -0.0890
vn -0.9723 0.2160 0.0890
vn 0.9723 0.2160 0.0890
vn 0.5749 0.8036 -0.1541
vn -0.5749 0.8036 -0.1541
vn -0.0890 0.2160 -0.9723
vn -0.5749 0.8036 0.1541
vn -0.0890 0.2160 0.9723
vt 0.396011 0.772055
vt 0.396011 0.562586
vt 0.466063 0.562586
vt 0.466063 0.772055
vt 0.732929 0.614338
vt 0.732929 0.404869
vt 0.802981 0.404869
vt 0.802981 0.614338
vt 0.732929 0.843355
vt 0.732929 0.633886
vt 0.802981 0.633886
vt 0.802981 0.843355
vt 0.790289 0.219243
vt 0.790289 0.009774
vt 0.860341 0.009774
vt 0.860341 0.219243
vt 0.108808 0.178860
vt 0.108808 0.248912
vt 0.038756 0.248912
vt 0.038756 0.178860
vt 0.919290 0.147690
vt 0.919290 0.187091
vt 0.879889 0.187091
vt 0.879889 0.147690
vt 0.811026 0.887037
vt 0.757063 0.887037
vt 0.732929 0.862903
vt 0.802981 0.862903
vt 0.912129 0.596747
vt 0.966092 0.596747
vt 0.990226 0.620881
vt 0.920174 0.620881
vt 0.908671 0.887037
vt 0.854708 0.887037
vt 0.830574 0.862903
vt 0.900626 0.862903
vt 0.577863 0.881390
vt 0.577863 0.935353
vt 0.553729 0.959487
vt 0.553729 0.889435
vt 0.009774 0.692537
vt 0.049103 0.694913
vt 0.063638 0.816497
vt 0.009774 0.813242
vt 0.083187 0.692537
vt 0.122516 0.694913
vt 0.137051 0.816497
vt 0.083187 0.813242
vt 0.790289 0.238791
vt 0.829618 0.241168
vt 0.844153 0.362752
vt 0.790289 0.359497
vt 0.396011 0.791604
vt 0.435341 0.793980
vt 0.449876 0.915564
vt 0.396011 0.912309
vt 0.483959 0.793980
vt 0.523288 0.791604
vt 0.523288 0.912309
vt 0.469424 0.915564
vt 0.335583 0.047622
vt 0.297442 0.037737
vt 0.304689 0.009774
vt 0.359372 0.031163
vt 0.221448 0.794828
vt 0.260777 0.792451
vt 0.260777 0.913157
vt 0.206913 0.916412
vt 0.445680 0.168596
vt 0.422481 0.175280
vt 0.396011 0.163567
vt 0.423829 0.149655
vt 0.966092 0.542784
vt 0.990226 0.550829
vt 0.532722 0.047622
vt 0.494581 0.037737
vt 0.501828 0.009774
vt 0.556510 0.031163
vt 0.631826 0.935353
vt 0.623781 0.959487
vt 0.593150 0.378050
vt 0.645702 0.175280
vt 0.672171 0.163567
vt 0.621205 0.385321
vt 0.690775 0.920791
vt 0.651374 0.920791
vt 0.651374 0.881390
vt 0.690775 0.881390
vt 0.349994 0.175280
vt 0.326795 0.168596
vt 0.348646 0.149655
vt 0.376463 0.163567
vt 0.248912 0.178860
vt 0.248912 0.248912
vt 0.178860 0.248912
vt 0.178860 0.178860
vt 0.553729 0.861842
vt 0.553729 0.652373
vt 0.623781 0.652373
vt 0.623781 0.861842
vt 0.088795 0.325405
vt 0.050654 0.335290
vt 0.026866 0.318831
vt 0.081548 0.297442
vt 0.643329 0.861842
vt 0.643329 0.652373
vt 0.713381 0.652373
vt 0.713381 0.861842
vt 0.475033 0.037737
vt 0.436892 0.047622
vt 0.413103 0.031163
vt 0.467785 0.009774
vt 0.178860 0.038756
vt 0.178860 0.108808
vt 0.108808 0.108808
vt 0.108808 0.038756
vt 0.248912 0.038756
vt 0.248912 0.108808
vt 0.158012 0.456264
vt 0.134813 0.462948
vt 0.108343 0.451235
vt 0.136161 0.437323
vt 0.744271 0.175280
vt 0.721072 0.168596
vt 0.742923 0.149655
vt 0.770741 0.163567
vt 0.951530 0.640429
vt 0.951530 0.679830
vt 0.912129 0.679830
vt 0.912129 0.640429
vt 0.277894 0.108808
vt 0.277894 0.178860
vt 0.878236 0.241168
vt 0.917566 0.238791
vt 0.917566 0.359497
vt 0.863701 0.362752
vt 0.376463 0.432832
vt 0.338322 0.442717
vt 0.314534 0.426258
vt 0.369216 0.404869
vt 0.311977 0.802340
vt 0.351306 0.799963
vt 0.351306 0.920669
vt 0.297442 0.923924
vt 0.854708 0.941000
vt 0.830574 0.932955
vt 0.178860 0.277894
vt 0.108808 0.277894
vt 0.757063 0.941000
vt 0.732929 0.932955
vt 0.631291 0.047622
vt 0.593150 0.037737
vt 0.600397 0.009774
vt 0.655080 0.031163
vt 0.951530 0.738779
vt 0.912129 0.738779
vt 0.912129 0.699378
vt 0.951530 0.699378
vt 0.038756 0.108808
vt 0.038756 0.038756
vt 0.822529 0.614338
vt 0.822529 0.404869
vt 0.892581 0.404869
vt 0.892581 0.614338
vt 0.475033 0.378050
vt 0.446978 0.385321
vt 0.822529 0.843355
vt 0.822529 0.633886
vt 0.892581 0.633886
vt 0.892581 0.843355
vt 0.059443 0.456264
vt 0.036244 0.462948
vt 0.009774 0.451235
vt 0.037592 0.437323
vt 0.887170 0.009774
vt 0.926571 0.009774
vt 0.933852 0.128142
vt 0.879889 0.128142
vt 0.017055 0.836045
vt 0.056456 0.836045
vt 0.063737 0.954413
vt 0.009774 0.954413
vt 0.485611 0.624594
vt 0.485611 0.570631
vt 0.516030 0.562586
vt 0.516030 0.632638
vt 0.516030 0.660231
vt 0.516030 0.714194
vt 0.485611 0.722238
vt 0.485611 0.652186
vt 0.437235 0.473953
vt 0.396011 0.432729
vt 0.423872 0.404869
vt 0.465096 0.446093
vt 0.206913 0.525398
vt 0.206913 0.297442
vt 0.276965 0.297442
vt 0.276965 0.525398
vt 0.553729 0.632825
vt 0.553729 0.404869
vt 0.623781 0.404869
vt 0.623781 0.632825
vt 0.506320 0.543038
vt 0.465096 0.501814
vt 0.492957 0.473953
vt 0.534181 0.515178
vt 0.423872 0.543038
vt 0.396011 0.515178
vt 0.090566 0.836045
vt 0.129967 0.836045
vt 0.137247 0.954413
vt 0.083285 0.954413
vt 0.919410 0.404869
vt 0.958811 0.404869
vt 0.966092 0.523236
vt 0.912129 0.523236
vt 0.187017 0.700581
vt 0.187017 0.754544
vt 0.156599 0.762589
vt 0.156599 0.692537
vt 0.156946 0.854458
vt 0.156946 0.800496
vt 0.187365 0.792451
vt 0.187365 0.862503
vt 0.506320 0.404869
vt 0.534181 0.432729
vt 0.643329 0.632825
vt 0.643329 0.404869
vt 0.713381 0.404869
vt 0.713381 0.632825
vt 0.206913 0.772903
vt 0.206913 0.544947
vt 0.276965 0.544947
vt 0.276965 0.772903
vt 0.323912 0.570374
vt 0.376463 0.773144
vt 0.348408 0.780415
vt 0.297442 0.558662
vt 0.009774 0.178860
vt 0.009774 0.108808
vt 0.622503 0.168596
vt 0.644354 0.149655
vt 0.729860 0.047622
vt 0.691719 0.037737
vt 0.698967 0.009774
vt 0.753649 0.031163
vt 0.494581 0.378050
vt 0.547132 0.175280
vt 0.573602 0.163567
vt 0.522636 0.385321
vt 0.347111 0.563691
vt 0.325260 0.544750
vt 0.187365 0.325405
vt 0.149224 0.335290
vt 0.125435 0.318831
vt 0.180117 0.297442
vt 0.088795 0.665718
vt 0.060740 0.672989
vt 0.523933 0.168596
vt 0.545784 0.149655
vt 0.108808 0.009774
vt 0.178860 0.009774
vt 0.691719 0.378050
vt 0.719774 0.385321
vt 0.187365 0.665718
vt 0.159310 0.672989
vt 0.297442 0.378050
vt 0.325497 0.385321
s 0
usemtl Material.001
f 17/1/1 20/2/1 10/3/1 3/4/1
f 33/5/2 36/6/2 11/7/2 7/8/2
f 21/9/3 24/10/3 12/11/3 5/12/3
f 37/13/4 40/14/4 9/15/4 1/16/4
f 55/17/5 21/18/5 5/19/5 38/20/5
f 26/25/6 14/26/6 10/27/6 20/28/6
f 42/29/6 15/30/6 11/31/6 36/32/6
f 28/33/6 16/34/6 12/35/6 24/36/6
f 44/37/6 13/38/6 9/39/6 40/40/6
f 29/61/4 51/62/4 92/63/4 69/64/4
f 26/69/11 20/70/11 60/71/11 66/72/11
f 15/30/6 27/73/6 23/74/6 11/31/6
f 45/75/1 49/76/1 91/77/1 87/78/1
f 13/38/6 25/79/6 19/80/6 9/39/6
f 38/81/3 39/82/3 81/83/3 80/84/3
f 19/89/12 25/90/12 65/91/12 59/92/12
f 33/93/5 7/94/5 22/95/5 53/96/5
f 53/96/5 22/95/5 21/18/5 55/17/5
f 7/97/3 11/98/3 23/99/3 22/100/3
f 50/101/3 46/102/3 88/103/3 73/104/3
f 1/105/1 9/106/1 19/107/1 18/108/1
f 49/109/2 30/110/2 70/111/2 91/112/2
f 17/113/5 54/114/5 56/115/5 18/116/5
f 54/114/5 53/96/5 55/17/5 56/115/5
f 3/117/5 34/118/5 54/114/5 17/113/5
f 34/118/5 33/93/5 53/96/5 54/114/5
f 28/119/13 24/120/13 64/121/13 68/122/13
f 23/123/14 27/124/14 67/125/14 63/126/14
f 33/93/5 34/118/5 76/131/5 75/132/5
f 51/137/1 48/138/1 90/139/1 92/140/1
f 30/110/15 26/69/15 66/72/15 70/111/15
f 16/34/6 43/145/6 39/146/6 12/35/6
f 21/18/5 22/95/5 62/147/5 61/148/5
f 14/26/6 41/149/6 35/150/6 10/27/6
f 47/151/3 52/152/3 74/153/3 89/154/3
f 25/90/16 29/61/16 69/64/16 65/91/16
f 18/116/5 56/115/5 37/159/5 1/160/5
f 56/115/5 55/17/5 38/20/5 37/159/5
f 5/161/4 12/162/4 39/163/4 38/164/4
f 20/70/2 17/165/2 57/166/2 60/71/2
f 3/167/2 10/168/2 35/169/2 34/170/2
f 42/171/17 36/172/17 78/173/17 84/174/17
f 71/175/18 72/176/18 68/177/18 67/178/18
f 69/179/19 70/180/19 66/181/19 65/182/19
f 67/183/20 68/184/20 64/185/20 63/186/20
f 65/187/21 66/188/21 60/189/21 59/190/21
f 91/191/22 70/192/22 69/193/22 92/194/22
f 62/195/23 63/196/23 64/197/23 61/198/23
f 58/199/24 59/200/24 60/201/24 57/202/24
f 71/203/25 73/204/25 74/205/25 72/206/25
f 73/204/6 91/191/6 92/194/6 74/205/6
f 88/207/26 87/208/26 91/191/26 73/204/26
f 89/209/27 90/210/27 86/211/27 85/212/27
f 87/213/28 88/214/28 84/215/28 83/216/28
f 85/217/29 86/218/29 82/219/29 81/220/29
f 83/221/30 84/222/30 78/223/30 77/224/30
f 74/205/31 92/194/31 90/225/31 89/226/31
f 80/227/32 81/228/32 82/229/32 79/230/32
f 76/231/33 77/232/33 78/233/33 75/234/33
f 40/235/1 37/236/1 79/237/1 82/238/1
f 37/159/5 38/20/5 80/239/5 79/240/5
f 43/241/34 47/151/34 89/154/34 85/242/34
f 31/243/2 50/244/2 73/245/2 71/246/2
f 34/247/1 35/248/1 77/249/1 76/250/1
f 48/138/35 44/251/35 86/252/35 90/139/35
f 52/253/4 32/254/4 72/255/4 74/256/4
f 36/172/3 33/257/3 75/258/3 78/173/3
f 41/259/36 45/75/36 87/78/36 83/260/36
f 46/102/37 42/171/37 84/174/37 88/103/37
f 39/82/38 43/241/38 85/242/38 81/83/38
f 17/113/5 18/116/5 58/261/5 57/262/5
f 22/263/2 23/123/2 63/126/2 62/264/2
f 44/251/39 40/235/39 82/238/39 86/252/39
f 24/120/4 21/265/4 61/266/4 64/121/4
f 27/124/40 31/243/40 71/246/40 67/125/40
f 35/248/41 41/259/41 83/260/41 77/249/41
f 18/267/4 19/89/4 59/92/4 58/268/4
f 32/254/42 28/119/42 68/122/42 72/255/42
usemtl Material.002
f 51/21/6 29/22/6 2/23/6 48/24/6
f 30/41/7 4/42/7 14/43/7 26/44/7
f 46/45/8 8/46/8 15/47/8 42/48/8
f 32/49/9 6/50/9 16/51/9 28/52/9
f 48/53/10 2/54/10 13/55/10 44/56/10
f 8/57/9 31/58/9 27/59/9 15/60/9
f 2/65/7 29/66/7 25/67/7 13/68/7
f 45/85/6 4/86/6 30/87/6 49/88/6
f 8/127/6 46/128/6 50/129/6 31/130/6
f 6/133/10 47/134/10 43/135/10 16/136/10
f 4/141/8 45/142/8 41/143/8 14/144/8
f 32/155/6 52/156/6 47/157/6 6/158/6
